<?xml version="1.0" encoding="UTF-8" standalone="no"?><svg xmlns="http://www.w3.org/2000/svg" xmlns:xlink="http://www.w3.org/1999/xlink" contentScriptType="application/ecmascript" contentStyleType="text/css" height="535px" preserveAspectRatio="none" style="width:428px;height:535px;" version="1.1" viewBox="0 0 428 535" width="428px" zoomAndPan="magnify"><defs><filter height="300%" id="f2yfwetr4g4ib" width="300%" x="-1" y="-1"><feGaussianBlur result="blurOut" stdDeviation="2.0"/><feColorMatrix in="blurOut" result="blurOut2" type="matrix" values="0 0 0 0 0 0 0 0 0 0 0 0 0 0 0 0 0 0 .4 0"/><feOffset dx="4.0" dy="4.0" in="blurOut2" result="blurOut3"/><feBlend in="SourceGraphic" in2="blurOut3" mode="normal"/></filter></defs><g><polygon fill="#DDDDDD" filter="url(#f2yfwetr4g4ib)" points="147.5,8,235.5,8,242.5,31.6094,249.5,31.6094,249.5,63.2188,147.5,63.2188,147.5,8" style="stroke: #000000; stroke-width: 1.5;"/><line style="stroke: #000000; stroke-width: 1.5;" x1="147.5" x2="242.5" y1="31.6094" y2="31.6094"/><text fill="#000000" font-family="sans-serif" font-size="14" font-weight="bold" lengthAdjust="spacingAndGlyphs" textLength="82" x="151.5" y="24.5332">mastermind</text><polygon fill="#DDDDDD" filter="url(#f2yfwetr4g4ib)" points="44,238,213,238,220,261.6094,227,261.6094,227,293.2188,44,293.2188,44,238" style="stroke: #000000; stroke-width: 1.5;"/><line style="stroke: #000000; stroke-width: 1.5;" x1="44" x2="220" y1="261.6094" y2="261.6094"/><text fill="#000000" font-family="sans-serif" font-size="14" font-weight="bold" lengthAdjust="spacingAndGlyphs" textLength="163" x="48" y="254.5332">mastermind.controllers</text><polygon fill="#FFFFFF" filter="url(#f2yfwetr4g4ib)" points="179,468,240,468,247,491.6094,254,491.6094,254,523.2188,179,523.2188,179,468" style="stroke: #000000; stroke-width: 1.5;"/><line style="stroke: #000000; stroke-width: 1.5;" x1="179" x2="247" y1="491.6094" y2="491.6094"/><text fill="#000000" font-family="sans-serif" font-size="14" font-weight="bold" lengthAdjust="spacingAndGlyphs" textLength="55" x="183" y="484.5332">java.util</text><polygon fill="#DDDDDD" filter="url(#f2yfwetr4g4ib)" points="6,353,149,353,156,376.6094,163,376.6094,163,408.2188,6,408.2188,6,353" style="stroke: #000000; stroke-width: 1.5;"/><line style="stroke: #000000; stroke-width: 1.5;" x1="6" x2="156" y1="376.6094" y2="376.6094"/><text fill="#000000" font-family="sans-serif" font-size="14" font-weight="bold" lengthAdjust="spacingAndGlyphs" textLength="137" x="10" y="369.5332">mastermind.models</text><polygon fill="#FFFFFF" filter="url(#f2yfwetr4g4ib)" points="43,468,112,468,119,491.6094,126,491.6094,126,523.2188,43,523.2188,43,468" style="stroke: #000000; stroke-width: 1.5;"/><line style="stroke: #000000; stroke-width: 1.5;" x1="43" x2="119" y1="491.6094" y2="491.6094"/><text fill="#000000" font-family="sans-serif" font-size="14" font-weight="bold" lengthAdjust="spacingAndGlyphs" textLength="63" x="47" y="484.5332">java.lang</text><polygon fill="#DDDDDD" filter="url(#f2yfwetr4g4ib)" points="262.5,238,384.5,238,391.5,261.6094,398.5,261.6094,398.5,293.2188,262.5,293.2188,262.5,238" style="stroke: #000000; stroke-width: 1.5;"/><line style="stroke: #000000; stroke-width: 1.5;" x1="262.5" x2="391.5" y1="261.6094" y2="261.6094"/><text fill="#000000" font-family="sans-serif" font-size="14" font-weight="bold" lengthAdjust="spacingAndGlyphs" textLength="116" x="266.5" y="254.5332">mastermind.utils</text><polygon fill="#FFFFFF" filter="url(#f2yfwetr4g4ib)" points="340.5,353,392.5,353,399.5,376.6094,406.5,376.6094,406.5,408.2188,340.5,408.2188,340.5,353" style="stroke: #000000; stroke-width: 1.5;"/><line style="stroke: #000000; stroke-width: 1.5;" x1="340.5" x2="399.5" y1="376.6094" y2="376.6094"/><text fill="#000000" font-family="sans-serif" font-size="14" font-weight="bold" lengthAdjust="spacingAndGlyphs" textLength="46" x="344.5" y="369.5332">java.io</text><polygon fill="#DDDDDD" filter="url(#f2yfwetr4g4ib)" points="189,123,322,123,329,146.6094,336,146.6094,336,178.2188,189,178.2188,189,123" style="stroke: #000000; stroke-width: 1.5;"/><line style="stroke: #000000; stroke-width: 1.5;" x1="189" x2="329" y1="146.6094" y2="146.6094"/><text fill="#000000" font-family="sans-serif" font-size="14" font-weight="bold" lengthAdjust="spacingAndGlyphs" textLength="127" x="193" y="139.5332">mastermind.views</text><!--link mastermind to mastermind.controllers--><path d="M189.737,63.274 C184.264,80.306 177.199,102.868 171.5,123 C160.906,160.427 150.078,203.825 143.102,232.59 " fill="none" id="mastermind-mastermind.controllers" style="stroke: #A80036; stroke-width: 1.0; stroke-dasharray: 7.0,7.0;"/><polygon fill="#A80036" points="141.846,237.786,147.8501,229.9789,143.0217,232.9262,140.0744,228.0978,141.846,237.786" style="stroke: #A80036; stroke-width: 1.0;"/><!--link mastermind to mastermind.views--><path d="M213.667,63.279 C222.992,79.745 234.984,100.917 244.75,118.161 " fill="none" id="mastermind-mastermind.views" style="stroke: #A80036; stroke-width: 1.0; stroke-dasharray: 7.0,7.0;"/><polygon fill="#A80036" points="247.442,122.913,246.4862,113.1106,244.9775,118.5626,239.5255,117.0539,247.442,122.913" style="stroke: #A80036; stroke-width: 1.0;"/><!--link mastermind.controllers to java.util--><path d="M151.34,293.028 C160.821,309.777 172.536,332.122 180.5,353 C194.448,389.566 204.666,433.4926 210.58,462.6021 " fill="none" id="mastermind.controllers-java.util" style="stroke: #A80036; stroke-width: 1.0; stroke-dasharray: 7.0,7.0;"/><polygon fill="#A80036" points="211.634,467.8599,213.7867,458.2492,210.6511,462.9575,205.9428,459.8218,211.634,467.8599" style="stroke: #A80036; stroke-width: 1.0;"/><!--link mastermind.controllers to mastermind.models--><path d="M123.414,293.279 C115.983,309.745 106.427,330.917 98.6443,348.161 " fill="none" id="mastermind.controllers-mastermind.models" style="stroke: #A80036; stroke-width: 1.0; stroke-dasharray: 7.0,7.0;"/><polygon fill="#A80036" points="96.4995,352.913,103.8464,346.3538,98.5554,348.3552,96.554,343.0643,96.4995,352.913" style="stroke: #A80036; stroke-width: 1.0;"/><!--link mastermind.models to java.util--><path d="M115.782,408.279 C135.509,425.1667 161.02,447.006 181.431,464.4792 " fill="none" id="mastermind.models-java.util" style="stroke: #A80036; stroke-width: 1.0; stroke-dasharray: 7.0,7.0;"/><polygon fill="#A80036" points="185.442,467.9128,181.2061,459.0214,181.6436,464.6613,176.0037,465.0988,185.442,467.9128" style="stroke: #A80036; stroke-width: 1.0;"/><!--link mastermind.models to java.lang--><path d="M84.5,408.279 C84.5,424.6038 84.5,445.5556 84.5,462.7176 " fill="none" id="mastermind.models-java.lang" style="stroke: #A80036; stroke-width: 1.0; stroke-dasharray: 7.0,7.0;"/><polygon fill="#A80036" points="84.5,467.9128,88.5,458.9128,84.5,462.9128,80.5,458.9128,84.5,467.9128" style="stroke: #A80036; stroke-width: 1.0;"/><!--link mastermind.utils to java.util--><path d="M317.2,293.101 C296.019,335.462 254.72,418.06 232.149,463.2011 " fill="none" id="mastermind.utils-java.util" style="stroke: #A80036; stroke-width: 1.0; stroke-dasharray: 7.0,7.0;"/><polygon fill="#A80036" points="229.892,467.7163,237.4951,461.4559,232.1284,463.2443,230.34,457.8776,229.892,467.7163" style="stroke: #A80036; stroke-width: 1.0;"/><!--link mastermind.utils to java.io--><path d="M340.69,293.279 C346.956,309.745 355.013,330.917 361.574,348.161 " fill="none" id="mastermind.utils-java.io" style="stroke: #A80036; stroke-width: 1.0; stroke-dasharray: 7.0,7.0;"/><polygon fill="#A80036" points="363.383,352.913,363.9199,343.0788,361.6044,348.24,356.4431,345.9246,363.383,352.913" style="stroke: #A80036; stroke-width: 1.0;"/><!--link mastermind.views to mastermind.controllers--><path d="M232.403,178.279 C213.423,195.167 188.878,217.006 169.24,234.479 " fill="none" id="mastermind.views-mastermind.controllers" style="stroke: #A80036; stroke-width: 1.0; stroke-dasharray: 7.0,7.0;"/><polygon fill="#A80036" points="165.381,237.913,174.7635,234.9182,169.1162,234.5891,169.4453,228.9419,165.381,237.913" style="stroke: #A80036; stroke-width: 1.0;"/><!--link mastermind.views to mastermind.utils--><path d="M278.615,178.279 C288.608,194.885 301.482,216.279 311.906,233.602 " fill="none" id="mastermind.views-mastermind.utils" style="stroke: #A80036; stroke-width: 1.0; stroke-dasharray: 7.0,7.0;"/><polygon fill="#A80036" points="314.501,237.913,313.2871,228.1392,311.9226,233.6291,306.4328,232.2646,314.501,237.913" style="stroke: #A80036; stroke-width: 1.0;"/><!--
@startuml
package mastermind #DDDDDD { }
mastermind .down.> mastermind.controllers
mastermind .down.> mastermind.views

package mastermind.controllers #DDDDDD { }
package java.util{ }
mastermind.controllers .down.> java.util
mastermind.controllers .down.> mastermind.models

package mastermind.models #DDDDDD { }
package java.util{ }
mastermind.models .down.> java.util
package java.lang{ }
mastermind.models .down.> java.lang

package mastermind.utils #DDDDDD { }
package java.util{ }
mastermind.utils .down.> java.util
package java.io{ }
mastermind.utils .down.> java.io

package mastermind.views #DDDDDD { }
mastermind.views .down.> mastermind.controllers
mastermind.views .down.> mastermind.utils

@enduml

PlantUML version 1.2019.05(Sat Apr 20 18:45:36 CEST 2019)
(GPL source distribution)
Java Runtime: OpenJDK Runtime Environment
JVM: OpenJDK 64-Bit Server VM
Java Version: 1.8.0_222-b10
Operating System: Windows 10
OS Version: 10.0
Default Encoding: windows-1252
Language: es
Country: ES
--></g></svg>