<?xml version="1.0" encoding="UTF-8" standalone="no"?><svg xmlns="http://www.w3.org/2000/svg" xmlns:xlink="http://www.w3.org/1999/xlink" contentScriptType="application/ecmascript" contentStyleType="text/css" height="158px" preserveAspectRatio="none" style="width:1090px;height:158px;" version="1.1" viewBox="0 0 1090 158" width="1090px" zoomAndPan="magnify"><defs><filter height="300%" id="f1r15qw0nybp3k" width="300%" x="-1" y="-1"><feGaussianBlur result="blurOut" stdDeviation="2.0"/><feColorMatrix in="blurOut" result="blurOut2" type="matrix" values="0 0 0 0 0 0 0 0 0 0 0 0 0 0 0 0 0 0 .4 0"/><feOffset dx="4.0" dy="4.0" in="blurOut2" result="blurOut3"/><feBlend in="SourceGraphic" in2="blurOut3" mode="normal"/></filter></defs><g><!--entity mastermind--><polygon fill="#FFFFFF" filter="url(#f1r15qw0nybp3k)" points="6,106,85,106,92,129.6094,109,129.6094,109,146.6094,6,146.6094,6,106" style="stroke: #000000; stroke-width: 1.5;"/><line style="stroke: #000000; stroke-width: 1.5;" x1="6" x2="92" y1="129.6094" y2="129.6094"/><text fill="#000000" font-family="sans-serif" font-size="14" lengthAdjust="spacingAndGlyphs" textLength="73" x="10" y="123.5332">mastermind</text><!--entity mastermind.controllers--><polygon fill="#FFFFFF" filter="url(#f1r15qw0nybp3k)" points="144,106,293,106,300,129.6094,317,129.6094,317,146.6094,144,146.6094,144,106" style="stroke: #000000; stroke-width: 1.5;"/><line style="stroke: #000000; stroke-width: 1.5;" x1="144" x2="300" y1="129.6094" y2="129.6094"/><text fill="#000000" font-family="sans-serif" font-size="14" lengthAdjust="spacingAndGlyphs" textLength="143" x="148" y="123.5332">mastermind.controllers</text><!--entity mastermind.models--><polygon fill="#FFFFFF" filter="url(#f1r15qw0nybp3k)" points="352.5,106,480.5,106,487.5,129.6094,504.5,129.6094,504.5,146.6094,352.5,146.6094,352.5,106" style="stroke: #000000; stroke-width: 1.5;"/><line style="stroke: #000000; stroke-width: 1.5;" x1="352.5" x2="487.5" y1="129.6094" y2="129.6094"/><text fill="#000000" font-family="sans-serif" font-size="14" lengthAdjust="spacingAndGlyphs" textLength="122" x="356.5" y="123.5332">mastermind.models</text><!--entity mastermind.views--><polygon fill="#FFFFFF" filter="url(#f1r15qw0nybp3k)" points="540,106,657,106,664,129.6094,681,129.6094,681,146.6094,540,146.6094,540,106" style="stroke: #000000; stroke-width: 1.5;"/><line style="stroke: #000000; stroke-width: 1.5;" x1="540" x2="664" y1="129.6094" y2="129.6094"/><text fill="#000000" font-family="sans-serif" font-size="14" lengthAdjust="spacingAndGlyphs" textLength="111" x="544" y="123.5332">mastermind.views</text><!--entity mastermind.utils--><polygon fill="#FFFFFF" filter="url(#f1r15qw0nybp3k)" points="716.5,106,824.5,106,831.5,129.6094,848.5,129.6094,848.5,146.6094,716.5,146.6094,716.5,106" style="stroke: #000000; stroke-width: 1.5;"/><line style="stroke: #000000; stroke-width: 1.5;" x1="716.5" x2="831.5" y1="129.6094" y2="129.6094"/><text fill="#000000" font-family="sans-serif" font-size="14" lengthAdjust="spacingAndGlyphs" textLength="102" x="720.5" y="123.5332">mastermind.utils</text><!--entity java.io--><polygon fill="#FFFFFF" filter="url(#f1r15qw0nybp3k)" points="884,106,931,106,938,129.6094,955,129.6094,955,146.6094,884,146.6094,884,106" style="stroke: #000000; stroke-width: 1.5;"/><line style="stroke: #000000; stroke-width: 1.5;" x1="884" x2="938" y1="129.6094" y2="129.6094"/><text fill="#000000" font-family="sans-serif" font-size="14" lengthAdjust="spacingAndGlyphs" textLength="41" x="888" y="123.5332">java.io</text><!--entity java.util--><polygon fill="#FFFFFF" filter="url(#f1r15qw0nybp3k)" points="990.5,106,1044.5,106,1051.5,129.6094,1068.5,129.6094,1068.5,146.6094,990.5,146.6094,990.5,106" style="stroke: #000000; stroke-width: 1.5;"/><line style="stroke: #000000; stroke-width: 1.5;" x1="990.5" x2="1051.5" y1="129.6094" y2="129.6094"/><text fill="#000000" font-family="sans-serif" font-size="14" lengthAdjust="spacingAndGlyphs" textLength="48" x="994.5" y="123.5332">java.util</text><!--entity jar--><rect fill="#FEFECE" filter="url(#f1r15qw0nybp3k)" height="37.6094" style="stroke: #A80036; stroke-width: 1.5;" width="113" x="554" y="8"/><rect fill="#FEFECE" height="5" style="stroke: #A80036; stroke-width: 1.5;" width="10" x="549" y="13"/><rect fill="#FEFECE" height="5" style="stroke: #A80036; stroke-width: 1.5;" width="10" x="549" y="35.6094"/><text fill="#000000" font-family="sans-serif" font-size="14" lengthAdjust="spacingAndGlyphs" textLength="93" x="564" y="32.5332">mastermind.jar</text><!--link jar to mastermind--><path d="M540.762,36.66 C446.272,48.9785 272.593,73.6981 126.5,106 C125.015,106.3284 123.514,106.6698 122.003,107.0224 " fill="none" id="jar-mastermind" style="stroke: #A80036; stroke-width: 1.0;"/><polygon fill="#A80036" points="109.33,110.1582,119.0273,111.8791,114.1836,108.9571,117.1056,104.1134,109.33,110.1582" style="stroke: #A80036; stroke-width: 1.0;"/><line style="stroke: #A80036; stroke-width: 1.0;" x1="114.1836" x2="121.949" y1="108.9571" y2="107.0356"/><polygon fill="#A80036" points="553.837,34.968,547.3736,31.7705,541.9361,36.5069,548.3995,39.7044,553.837,34.968" style="stroke: #A80036; stroke-width: 1.0;"/><!--link jar to mastermind.controllers--><path d="M540.824,45.877 C478.598,61.8434 387.113,85.3164 319.587,102.6422 " fill="none" id="jar-mastermind.controllers" style="stroke: #A80036; stroke-width: 1.0;"/><polygon fill="#A80036" points="306.843,105.9119,316.5546,107.5503,311.6862,104.6696,314.5669,99.8011,306.843,105.9119" style="stroke: #A80036; stroke-width: 1.0;"/><line style="stroke: #A80036; stroke-width: 1.0;" x1="311.6862" x2="319.4355" y1="104.6696" y2="102.681"/><polygon fill="#A80036" points="553.61,42.597,546.8041,40.2139,541.9866,45.5797,548.7925,47.9628,553.61,42.597" style="stroke: #A80036; stroke-width: 1.0;"/><!--link jar to mastermind.models--><path d="M564.931,52.4118 C538.007,66.8355 503.946,85.0825 476.593,99.7361 " fill="none" id="jar-mastermind.models" style="stroke: #A80036; stroke-width: 1.0;"/><polygon fill="#A80036" points="464.935,105.9814,474.7572,105.2566,469.3422,103.62,470.9789,98.205,464.935,105.9814" style="stroke: #A80036; stroke-width: 1.0;"/><line style="stroke: #A80036; stroke-width: 1.0;" x1="469.3422" x2="476.394" y1="103.62" y2="99.8425"/><polygon fill="#A80036" points="576.694,46.111,569.5163,45.4182,566.1161,51.7774,573.2939,52.4702,576.694,46.111" style="stroke: #A80036; stroke-width: 1.0;"/><!--link jar to mastermind.views--><path d="M610.5,59.4311 C610.5,70.0549 610.5,81.9399 610.5,92.6692 " fill="none" id="jar-mastermind.views" style="stroke: #A80036; stroke-width: 1.0;"/><polygon fill="#A80036" points="610.5,105.905,614.5,96.905,610.5,100.905,606.5,96.905,610.5,105.905" style="stroke: #A80036; stroke-width: 1.0;"/><line style="stroke: #A80036; stroke-width: 1.0;" x1="610.5" x2="610.5" y1="100.905" y2="92.905"/><polygon fill="#A80036" points="610.5,46.339,606.5,52.339,610.5,58.339,614.5,52.339,610.5,46.339" style="stroke: #A80036; stroke-width: 1.0;"/><!--link jar to mastermind.utils--><path d="M653.953,52.6319 C679.24,66.9657 711.086,85.0181 736.754,99.5684 " fill="none" id="jar-mastermind.utils" style="stroke: #A80036; stroke-width: 1.0;"/><polygon fill="#A80036" points="748.067,105.9814,742.2103,98.0631,743.7173,103.5155,738.2649,105.0226,748.067,105.9814" style="stroke: #A80036; stroke-width: 1.0;"/><line style="stroke: #A80036; stroke-width: 1.0;" x1="743.7173" x2="736.758" y1="103.5155" y2="99.5705"/><polygon fill="#A80036" points="642.449,46.111,645.6959,52.5498,652.8882,52.0291,649.6413,45.5903,642.449,46.111" style="stroke: #A80036; stroke-width: 1.0;"/><!--link jar to java.io--><path d="M679.91,47.9885 C731.6,63.1545 803.771,84.9228 866.5,106 C868.183,106.5655 869.893,107.1486 871.618,107.7439 " fill="none" id="jar-java.io" style="stroke: #A80036; stroke-width: 1.0;"/><polygon fill="#A80036" points="883.962,112.1096,876.8106,105.3378,879.2481,110.4425,874.1433,112.88,883.962,112.1096" style="stroke: #A80036; stroke-width: 1.0;"/><line style="stroke: #A80036; stroke-width: 1.0;" x1="879.2481" x2="871.706" y1="110.4425" y2="107.7748"/><polygon fill="#A80036" points="667.228,44.279,671.8635,49.8028,678.7453,47.6483,674.1097,42.1246,667.228,44.279" style="stroke: #A80036; stroke-width: 1.0;"/><!--link jar to java.util--><path d="M680.276,40.512 C753.612,54.2495 872.052,78.1003 972.5,106 C974.235,106.482 975.995,106.9873 977.768,107.5107 " fill="none" id="jar-java.util" style="stroke: #A80036; stroke-width: 1.0;"/><polygon fill="#A80036" points="990.441,111.4627,983.0398,104.9648,985.6677,109.9742,980.6583,112.6021,990.441,111.4627" style="stroke: #A80036; stroke-width: 1.0;"/><line style="stroke: #A80036; stroke-width: 1.0;" x1="985.6677" x2="978.0305" y1="109.9742" y2="107.5926"/><polygon fill="#A80036" points="667.122,38.066,672.2899,43.0952,678.9199,40.2591,673.752,35.2299,667.122,38.066" style="stroke: #A80036; stroke-width: 1.0;"/><!--
@startuml

package "  "  as mastermind {
}
package "  "  as mastermind.controllers {
}
package "  "  as mastermind.models {
}
package "  "  as mastermind.views {
}
package "  "  as mastermind.utils {
}
package "  "  as java.io {
}
package "  "  as java.util {
}

[mastermind.jar] as jar

jar *- -> mastermind
jar *- -> mastermind.controllers
jar *- -> mastermind.models
jar *- -> mastermind.views
jar *- -> mastermind.utils
jar *- -> java.io
jar *- -> java.util
@enduml

PlantUML version 1.2019.05(Sat Apr 20 18:45:36 CEST 2019)
(GPL source distribution)
Java Runtime: OpenJDK Runtime Environment
JVM: OpenJDK 64-Bit Server VM
Java Version: 1.8.0_222-b10
Operating System: Windows 10
OS Version: 10.0
Default Encoding: windows-1252
Language: es
Country: ES
--></g></svg>