<?xml version="1.0" encoding="UTF-8" standalone="no"?><svg xmlns="http://www.w3.org/2000/svg" xmlns:xlink="http://www.w3.org/1999/xlink" contentScriptType="application/ecmascript" contentStyleType="text/css" height="1203px" preserveAspectRatio="none" style="width:2363px;height:1203px;" version="1.1" viewBox="0 0 2363 1203" width="2363px" zoomAndPan="magnify"><defs><filter height="300%" id="fuxc3uw44qujp" width="300%" x="-1" y="-1"><feGaussianBlur result="blurOut" stdDeviation="2.0"/><feColorMatrix in="blurOut" result="blurOut2" type="matrix" values="0 0 0 0 0 0 0 0 0 0 0 0 0 0 0 0 0 0 .4 0"/><feOffset dx="4.0" dy="4.0" in="blurOut2" result="blurOut3"/><feBlend in="SourceGraphic" in2="blurOut3" mode="normal"/></filter></defs><g><!--cluster mastermind.views--><polygon fill="#FFFFFF" filter="url(#fuxc3uw44qujp)" points="834,24,967,24,974,47.6094,1932,47.6094,1932,1191,834,1191,834,24" style="stroke: #000000; stroke-width: 1.5;"/><line style="stroke: #000000; stroke-width: 1.5;" x1="834" x2="974" y1="47.6094" y2="47.6094"/><text fill="#000000" font-family="sans-serif" font-size="14" font-weight="bold" lengthAdjust="spacingAndGlyphs" textLength="127" x="838" y="40.5332">mastermind.views</text><!--cluster mastermind.utils--><polygon fill="#FFFFFF" filter="url(#fuxc3uw44qujp)" points="1956,79.5,2078,79.5,2085,103.1094,2341,103.1094,2341,179.5,1956,179.5,1956,79.5" style="stroke: #000000; stroke-width: 1.5;"/><line style="stroke: #000000; stroke-width: 1.5;" x1="1956" x2="2085" y1="103.1094" y2="103.1094"/><text fill="#000000" font-family="sans-serif" font-size="14" font-weight="bold" lengthAdjust="spacingAndGlyphs" textLength="116" x="1960" y="96.0332">mastermind.utils</text><!--cluster mastermind.controllers--><polygon fill="#FFFFFF" filter="url(#fuxc3uw44qujp)" points="22,713.5,191,713.5,198,737.1094,810,737.1094,810,813.5,22,813.5,22,713.5" style="stroke: #000000; stroke-width: 1.5;"/><line style="stroke: #000000; stroke-width: 1.5;" x1="22" x2="198" y1="737.1094" y2="737.1094"/><text fill="#000000" font-family="sans-serif" font-size="14" font-weight="bold" lengthAdjust="spacingAndGlyphs" textLength="163" x="26" y="730.0332">mastermind.controllers</text><!--class mastermind.views.Color--><rect fill="#FEFECE" filter="url(#fuxc3uw44qujp)" height="227.8672" id="mastermind.views.Color" style="stroke: #A80036; stroke-width: 1.5;" width="143" x="1003.5" y="926.5"/><ellipse cx="1055.75" cy="942.5" fill="#ADD1B2" rx="11" ry="11" style="stroke: #A80036; stroke-width: 1.0;"/><path d="M1058.5156,938.375 Q1058.6719,938.1563 1058.8594,938.0469 Q1059.0469,937.9375 1059.2656,937.9375 Q1059.6406,937.9375 1059.875,938.1953 Q1060.1094,938.4531 1060.1094,939.0625 L1060.1094,940.5156 Q1060.1094,941.125 1059.875,941.3906 Q1059.6406,941.6563 1059.2656,941.6563 Q1058.9219,941.6563 1058.7188,941.4531 Q1058.5156,941.2656 1058.4063,940.75 Q1058.3594,940.3906 1058.1719,940.2031 Q1057.8438,939.8281 1057.2344,939.6094 Q1056.625,939.3906 1056,939.3906 Q1055.2344,939.3906 1054.6016,939.7188 Q1053.9688,940.0469 1053.4766,940.7969 Q1052.9844,941.5469 1052.9844,942.5781 L1052.9844,943.6719 Q1052.9844,944.9063 1053.875,945.7266 Q1054.7656,946.5469 1056.3594,946.5469 Q1057.2969,946.5469 1057.9531,946.2969 Q1058.3438,946.1406 1058.7656,945.7031 Q1059.0313,945.4375 1059.1797,945.3594 Q1059.3281,945.2813 1059.5313,945.2813 Q1059.8594,945.2813 1060.1172,945.5391 Q1060.375,945.7969 1060.375,946.1406 Q1060.375,946.4844 1060.0313,946.8906 Q1059.5313,947.4688 1058.7344,947.7969 Q1057.6563,948.25 1056.3594,948.25 Q1054.8438,948.25 1053.6406,947.625 Q1052.6563,947.125 1051.9688,946.0547 Q1051.2813,944.9844 1051.2813,943.7031 L1051.2813,942.5469 Q1051.2813,941.2188 1051.8984,940.0703 Q1052.5156,938.9219 1053.6094,938.3047 Q1054.7031,937.6875 1055.9375,937.6875 Q1056.6719,937.6875 1057.3203,937.8516 Q1057.9688,938.0156 1058.5156,938.375 Z "/><text fill="#000000" font-family="sans-serif" font-size="12" lengthAdjust="spacingAndGlyphs" textLength="30" x="1076.25" y="947.4102">Color</text><line style="stroke: #A80036; stroke-width: 1.5;" x1="1004.5" x2="1145.5" y1="958.5" y2="958.5"/><ellipse cx="1014.5" cy="970.918" fill="none" rx="3" ry="3" style="stroke: #038048; stroke-width: 1.0;"/><text fill="#000000" font-family="sans-serif" font-size="11" lengthAdjust="spacingAndGlyphs" text-decoration="underline" textLength="51" x="1023.5" y="973.9189">RED: Color</text><ellipse cx="1014.5" cy="984.7539" fill="none" rx="3" ry="3" style="stroke: #038048; stroke-width: 1.0;"/><text fill="#000000" font-family="sans-serif" font-size="11" lengthAdjust="spacingAndGlyphs" text-decoration="underline" textLength="57" x="1023.5" y="987.7549">BLUE: Color</text><ellipse cx="1014.5" cy="998.5898" fill="none" rx="3" ry="3" style="stroke: #038048; stroke-width: 1.0;"/><text fill="#000000" font-family="sans-serif" font-size="11" lengthAdjust="spacingAndGlyphs" text-decoration="underline" textLength="75" x="1023.5" y="1001.5908">YELLOW: Color</text><ellipse cx="1014.5" cy="1012.4258" fill="none" rx="3" ry="3" style="stroke: #038048; stroke-width: 1.0;"/><text fill="#000000" font-family="sans-serif" font-size="11" lengthAdjust="spacingAndGlyphs" text-decoration="underline" textLength="65" x="1023.5" y="1015.4268">GREEN: Color</text><ellipse cx="1014.5" cy="1026.2617" fill="none" rx="3" ry="3" style="stroke: #038048; stroke-width: 1.0;"/><text fill="#000000" font-family="sans-serif" font-size="11" lengthAdjust="spacingAndGlyphs" text-decoration="underline" textLength="75" x="1023.5" y="1029.2627">ORANGE: Color</text><ellipse cx="1014.5" cy="1040.0977" fill="none" rx="3" ry="3" style="stroke: #038048; stroke-width: 1.0;"/><text fill="#000000" font-family="sans-serif" font-size="11" lengthAdjust="spacingAndGlyphs" text-decoration="underline" textLength="69" x="1023.5" y="1043.0986">PURPLE: Color</text><rect fill="none" height="6" style="stroke: #C82930; stroke-width: 1.0;" width="6" x="1011.5" y="1050.9336"/><text fill="#000000" font-family="sans-serif" font-size="11" lengthAdjust="spacingAndGlyphs" textLength="51" x="1023.5" y="1056.9346">initial: char</text><line style="stroke: #A80036; stroke-width: 1.5;" x1="1004.5" x2="1145.5" y1="1063.3516" y2="1063.3516"/><rect fill="#F24D5C" height="6" style="stroke: #C82930; stroke-width: 1.0;" width="6" x="1011.5" y="1072.7695"/><text fill="#000000" font-family="sans-serif" font-size="11" lengthAdjust="spacingAndGlyphs" textLength="55" x="1023.5" y="1078.7705">Color(char)</text><ellipse cx="1014.5" cy="1089.6055" fill="#84BE84" rx="3" ry="3" style="stroke: #038048; stroke-width: 1.0;"/><text fill="#000000" font-family="sans-serif" font-size="11" lengthAdjust="spacingAndGlyphs" text-decoration="underline" textLength="105" x="1023.5" y="1092.6064">valueOf(String): Color</text><ellipse cx="1014.5" cy="1103.4414" fill="#84BE84" rx="3" ry="3" style="stroke: #038048; stroke-width: 1.0;"/><text fill="#000000" font-family="sans-serif" font-size="11" lengthAdjust="spacingAndGlyphs" text-decoration="underline" textLength="117" x="1023.5" y="1106.4424">getInstance(char): Color</text><ellipse cx="1014.5" cy="1117.2773" fill="#84BE84" rx="3" ry="3" style="stroke: #038048; stroke-width: 1.0;"/><text fill="#000000" font-family="sans-serif" font-size="11" lengthAdjust="spacingAndGlyphs" text-decoration="underline" textLength="106" x="1023.5" y="1120.2783">getInstance(int): Color</text><ellipse cx="1014.5" cy="1131.1133" fill="#84BE84" rx="3" ry="3" style="stroke: #038048; stroke-width: 1.0;"/><text fill="#000000" font-family="sans-serif" font-size="11" lengthAdjust="spacingAndGlyphs" textLength="74" x="1023.5" y="1134.1143">getInitial(): char</text><ellipse cx="1014.5" cy="1144.9492" fill="#84BE84" rx="3" ry="3" style="stroke: #038048; stroke-width: 1.0;"/><text fill="#000000" font-family="sans-serif" font-size="11" lengthAdjust="spacingAndGlyphs" text-decoration="underline" textLength="81" x="1023.5" y="1147.9502">allInitials(): String</text><!--class mastermind.views.Command--><rect fill="#FEFECE" filter="url(#fuxc3uw44qujp)" height="75.6719" id="mastermind.views.Command" style="stroke: #A80036; stroke-width: 1.5;" width="181" x="1312.5" y="415"/><ellipse cx="1369.25" cy="431" fill="#ADD1B2" rx="11" ry="11" style="stroke: #A80036; stroke-width: 1.0;"/><path d="M1372.0156,426.875 Q1372.1719,426.6563 1372.3594,426.5469 Q1372.5469,426.4375 1372.7656,426.4375 Q1373.1406,426.4375 1373.375,426.6953 Q1373.6094,426.9531 1373.6094,427.5625 L1373.6094,429.0156 Q1373.6094,429.625 1373.375,429.8906 Q1373.1406,430.1563 1372.7656,430.1563 Q1372.4219,430.1563 1372.2188,429.9531 Q1372.0156,429.7656 1371.9063,429.25 Q1371.8594,428.8906 1371.6719,428.7031 Q1371.3438,428.3281 1370.7344,428.1094 Q1370.125,427.8906 1369.5,427.8906 Q1368.7344,427.8906 1368.1016,428.2188 Q1367.4688,428.5469 1366.9766,429.2969 Q1366.4844,430.0469 1366.4844,431.0781 L1366.4844,432.1719 Q1366.4844,433.4063 1367.375,434.2266 Q1368.2656,435.0469 1369.8594,435.0469 Q1370.7969,435.0469 1371.4531,434.7969 Q1371.8438,434.6406 1372.2656,434.2031 Q1372.5313,433.9375 1372.6797,433.8594 Q1372.8281,433.7813 1373.0313,433.7813 Q1373.3594,433.7813 1373.6172,434.0391 Q1373.875,434.2969 1373.875,434.6406 Q1373.875,434.9844 1373.5313,435.3906 Q1373.0313,435.9688 1372.2344,436.2969 Q1371.1563,436.75 1369.8594,436.75 Q1368.3438,436.75 1367.1406,436.125 Q1366.1563,435.625 1365.4688,434.5547 Q1364.7813,433.4844 1364.7813,432.2031 L1364.7813,431.0469 Q1364.7813,429.7188 1365.3984,428.5703 Q1366.0156,427.4219 1367.1094,426.8047 Q1368.2031,426.1875 1369.4375,426.1875 Q1370.1719,426.1875 1370.8203,426.3516 Q1371.4688,426.5156 1372.0156,426.875 Z "/><text fill="#000000" font-family="sans-serif" font-size="12" lengthAdjust="spacingAndGlyphs" textLength="59" x="1389.75" y="435.9102">Command</text><line style="stroke: #A80036; stroke-width: 1.5;" x1="1313.5" x2="1492.5" y1="447" y2="447"/><polygon fill="none" points="1323.5,454.418,1327.5,458.418,1323.5,462.418,1319.5,458.418" style="stroke: #B38D22; stroke-width: 1.0;"/><text fill="#000000" font-family="sans-serif" font-size="11" lengthAdjust="spacingAndGlyphs" textLength="138" x="1332.5" y="462.4189">playController: PlayController</text><line style="stroke: #A80036; stroke-width: 1.5;" x1="1313.5" x2="1492.5" y1="468.8359" y2="468.8359"/><polygon fill="#FFFF44" points="1323.5,476.2539,1327.5,480.2539,1323.5,484.2539,1319.5,480.2539" style="stroke: #B38D22; stroke-width: 1.0;"/><text fill="#000000" font-family="sans-serif" font-size="11" lengthAdjust="spacingAndGlyphs" textLength="155" x="1332.5" y="484.2549">Command(PlayController, String)</text><!--class mastermind.views.GameView--><rect fill="#FEFECE" filter="url(#fuxc3uw44qujp)" height="61.8359" id="mastermind.views.GameView" style="stroke: #A80036; stroke-width: 1.5;" width="154" x="1762" y="565"/><ellipse cx="1804.9" cy="581" fill="#ADD1B2" rx="11" ry="11" style="stroke: #A80036; stroke-width: 1.0;"/><path d="M1807.6656,576.875 Q1807.8219,576.6563 1808.0094,576.5469 Q1808.1969,576.4375 1808.4156,576.4375 Q1808.7906,576.4375 1809.025,576.6953 Q1809.2594,576.9531 1809.2594,577.5625 L1809.2594,579.0156 Q1809.2594,579.625 1809.025,579.8906 Q1808.7906,580.1563 1808.4156,580.1563 Q1808.0719,580.1563 1807.8688,579.9531 Q1807.6656,579.7656 1807.5563,579.25 Q1807.5094,578.8906 1807.3219,578.7031 Q1806.9938,578.3281 1806.3844,578.1094 Q1805.775,577.8906 1805.15,577.8906 Q1804.3844,577.8906 1803.7516,578.2188 Q1803.1188,578.5469 1802.6266,579.2969 Q1802.1344,580.0469 1802.1344,581.0781 L1802.1344,582.1719 Q1802.1344,583.4063 1803.025,584.2266 Q1803.9156,585.0469 1805.5094,585.0469 Q1806.4469,585.0469 1807.1031,584.7969 Q1807.4938,584.6406 1807.9156,584.2031 Q1808.1813,583.9375 1808.3297,583.8594 Q1808.4781,583.7813 1808.6813,583.7813 Q1809.0094,583.7813 1809.2672,584.0391 Q1809.525,584.2969 1809.525,584.6406 Q1809.525,584.9844 1809.1813,585.3906 Q1808.6813,585.9688 1807.8844,586.2969 Q1806.8063,586.75 1805.5094,586.75 Q1803.9938,586.75 1802.7906,586.125 Q1801.8063,585.625 1801.1188,584.5547 Q1800.4313,583.4844 1800.4313,582.2031 L1800.4313,581.0469 Q1800.4313,579.7188 1801.0484,578.5703 Q1801.6656,577.4219 1802.7594,576.8047 Q1803.8531,576.1875 1805.0875,576.1875 Q1805.8219,576.1875 1806.4703,576.3516 Q1807.1188,576.5156 1807.6656,576.875 Z "/><text fill="#000000" font-family="sans-serif" font-size="12" lengthAdjust="spacingAndGlyphs" textLength="60" x="1825.1" y="585.9102">GameView</text><line style="stroke: #A80036; stroke-width: 1.5;" x1="1763" x2="1915" y1="597" y2="597"/><line style="stroke: #A80036; stroke-width: 1.5;" x1="1763" x2="1915" y1="605" y2="605"/><ellipse cx="1773" cy="617.418" fill="#84BE84" rx="3" ry="3" style="stroke: #038048; stroke-width: 1.0;"/><text fill="#000000" font-family="sans-serif" font-size="11" lengthAdjust="spacingAndGlyphs" textLength="128" x="1782" y="620.4189">GameView(PlayController)</text><!--class mastermind.views.Message--><rect fill="#FEFECE" filter="url(#fuxc3uw44qujp)" height="269.375" id="mastermind.views.Message" style="stroke: #A80036; stroke-width: 1.5;" width="207" x="1339.5" y="906"/><ellipse cx="1413.25" cy="922" fill="#ADD1B2" rx="11" ry="11" style="stroke: #A80036; stroke-width: 1.0;"/><path d="M1416.0156,917.875 Q1416.1719,917.6563 1416.3594,917.5469 Q1416.5469,917.4375 1416.7656,917.4375 Q1417.1406,917.4375 1417.375,917.6953 Q1417.6094,917.9531 1417.6094,918.5625 L1417.6094,920.0156 Q1417.6094,920.625 1417.375,920.8906 Q1417.1406,921.1563 1416.7656,921.1563 Q1416.4219,921.1563 1416.2188,920.9531 Q1416.0156,920.7656 1415.9063,920.25 Q1415.8594,919.8906 1415.6719,919.7031 Q1415.3438,919.3281 1414.7344,919.1094 Q1414.125,918.8906 1413.5,918.8906 Q1412.7344,918.8906 1412.1016,919.2188 Q1411.4688,919.5469 1410.9766,920.2969 Q1410.4844,921.0469 1410.4844,922.0781 L1410.4844,923.1719 Q1410.4844,924.4063 1411.375,925.2266 Q1412.2656,926.0469 1413.8594,926.0469 Q1414.7969,926.0469 1415.4531,925.7969 Q1415.8438,925.6406 1416.2656,925.2031 Q1416.5313,924.9375 1416.6797,924.8594 Q1416.8281,924.7813 1417.0313,924.7813 Q1417.3594,924.7813 1417.6172,925.0391 Q1417.875,925.2969 1417.875,925.6406 Q1417.875,925.9844 1417.5313,926.3906 Q1417.0313,926.9688 1416.2344,927.2969 Q1415.1563,927.75 1413.8594,927.75 Q1412.3438,927.75 1411.1406,927.125 Q1410.1563,926.625 1409.4688,925.5547 Q1408.7813,924.4844 1408.7813,923.2031 L1408.7813,922.0469 Q1408.7813,920.7188 1409.3984,919.5703 Q1410.0156,918.4219 1411.1094,917.8047 Q1412.2031,917.1875 1413.4375,917.1875 Q1414.1719,917.1875 1414.8203,917.3516 Q1415.4688,917.5156 1416.0156,917.875 Z "/><text fill="#000000" font-family="sans-serif" font-size="12" lengthAdjust="spacingAndGlyphs" textLength="51" x="1433.75" y="926.9102">Message</text><line style="stroke: #A80036; stroke-width: 1.5;" x1="1340.5" x2="1545.5" y1="938" y2="938"/><ellipse cx="1350.5" cy="950.418" fill="none" rx="3" ry="3" style="stroke: #038048; stroke-width: 1.0;"/><text fill="#000000" font-family="sans-serif" font-size="11" lengthAdjust="spacingAndGlyphs" text-decoration="underline" textLength="77" x="1359.5" y="953.4189">TURN: Message</text><ellipse cx="1350.5" cy="964.2539" fill="none" rx="3" ry="3" style="stroke: #038048; stroke-width: 1.0;"/><text fill="#000000" font-family="sans-serif" font-size="11" lengthAdjust="spacingAndGlyphs" text-decoration="underline" textLength="89" x="1359.5" y="967.2549">SECRET: Message</text><ellipse cx="1350.5" cy="978.0898" fill="none" rx="3" ry="3" style="stroke: #038048; stroke-width: 1.0;"/><text fill="#000000" font-family="sans-serif" font-size="11" lengthAdjust="spacingAndGlyphs" text-decoration="underline" textLength="91" x="1359.5" y="981.0908">RESUME: Message</text><ellipse cx="1350.5" cy="991.9258" fill="none" rx="3" ry="3" style="stroke: #038048; stroke-width: 1.0;"/><text fill="#000000" font-family="sans-serif" font-size="11" lengthAdjust="spacingAndGlyphs" text-decoration="underline" textLength="89" x="1359.5" y="994.9268">RESULT: Message</text><ellipse cx="1350.5" cy="1005.7617" fill="none" rx="3" ry="3" style="stroke: #038048; stroke-width: 1.0;"/><text fill="#000000" font-family="sans-serif" font-size="11" lengthAdjust="spacingAndGlyphs" text-decoration="underline" textLength="181" x="1359.5" y="1008.7627">PROPOSED_COMBINATION: Message</text><ellipse cx="1350.5" cy="1019.5977" fill="none" rx="3" ry="3" style="stroke: #038048; stroke-width: 1.0;"/><text fill="#000000" font-family="sans-serif" font-size="11" lengthAdjust="spacingAndGlyphs" text-decoration="underline" textLength="76" x="1359.5" y="1022.5986">TITLE: Message</text><ellipse cx="1350.5" cy="1033.4336" fill="none" rx="3" ry="3" style="stroke: #038048; stroke-width: 1.0;"/><text fill="#000000" font-family="sans-serif" font-size="11" lengthAdjust="spacingAndGlyphs" text-decoration="underline" textLength="89" x="1359.5" y="1036.4346">WINNER: Message</text><ellipse cx="1350.5" cy="1047.2695" fill="none" rx="3" ry="3" style="stroke: #038048; stroke-width: 1.0;"/><text fill="#000000" font-family="sans-serif" font-size="11" lengthAdjust="spacingAndGlyphs" text-decoration="underline" textLength="92" x="1359.5" y="1050.2705">LOOSER: Message</text><ellipse cx="1350.5" cy="1061.1055" fill="none" rx="3" ry="3" style="stroke: #038048; stroke-width: 1.0;"/><text fill="#000000" font-family="sans-serif" font-size="11" lengthAdjust="spacingAndGlyphs" text-decoration="underline" textLength="87" x="1359.5" y="1064.1064">OPTION: Message</text><ellipse cx="1350.5" cy="1074.9414" fill="none" rx="3" ry="3" style="stroke: #038048; stroke-width: 1.0;"/><text fill="#000000" font-family="sans-serif" font-size="11" lengthAdjust="spacingAndGlyphs" text-decoration="underline" textLength="157" x="1359.5" y="1077.9424">PROPOSE_COMMAND: Message</text><ellipse cx="1350.5" cy="1088.7773" fill="none" rx="3" ry="3" style="stroke: #038048; stroke-width: 1.0;"/><text fill="#000000" font-family="sans-serif" font-size="11" lengthAdjust="spacingAndGlyphs" text-decoration="underline" textLength="138" x="1359.5" y="1091.7783">UNDO_COMMAND: Message</text><ellipse cx="1350.5" cy="1102.6133" fill="none" rx="3" ry="3" style="stroke: #038048; stroke-width: 1.0;"/><text fill="#000000" font-family="sans-serif" font-size="11" lengthAdjust="spacingAndGlyphs" text-decoration="underline" textLength="137" x="1359.5" y="1105.6143">REDO_COMMAND: Message</text><rect fill="none" height="6" style="stroke: #C82930; stroke-width: 1.0;" width="6" x="1347.5" y="1113.4492"/><text fill="#000000" font-family="sans-serif" font-size="11" lengthAdjust="spacingAndGlyphs" textLength="78" x="1359.5" y="1119.4502">message: String</text><line style="stroke: #A80036; stroke-width: 1.5;" x1="1340.5" x2="1545.5" y1="1125.8672" y2="1125.8672"/><rect fill="#F24D5C" height="6" style="stroke: #C82930; stroke-width: 1.0;" width="6" x="1347.5" y="1135.2852"/><text fill="#000000" font-family="sans-serif" font-size="11" lengthAdjust="spacingAndGlyphs" textLength="80" x="1359.5" y="1141.2861">Message(String)</text><ellipse cx="1350.5" cy="1152.1211" fill="#84BE84" rx="3" ry="3" style="stroke: #038048; stroke-width: 1.0;"/><text fill="#000000" font-family="sans-serif" font-size="11" lengthAdjust="spacingAndGlyphs" text-decoration="underline" textLength="124" x="1359.5" y="1155.1221">valueOf(String): Message</text><ellipse cx="1350.5" cy="1165.957" fill="#84BE84" rx="3" ry="3" style="stroke: #038048; stroke-width: 1.0;"/><text fill="#000000" font-family="sans-serif" font-size="11" lengthAdjust="spacingAndGlyphs" textLength="101" x="1359.5" y="1168.958">getMessage(): String</text><!--class mastermind.views.Error--><rect fill="#FEFECE" filter="url(#fuxc3uw44qujp)" height="144.8516" id="mastermind.views.Error" style="stroke: #A80036; stroke-width: 1.5;" width="172" x="850" y="701"/><ellipse cx="918.25" cy="717" fill="#ADD1B2" rx="11" ry="11" style="stroke: #A80036; stroke-width: 1.0;"/><path d="M921.0156,712.875 Q921.1719,712.6563 921.3594,712.5469 Q921.5469,712.4375 921.7656,712.4375 Q922.1406,712.4375 922.375,712.6953 Q922.6094,712.9531 922.6094,713.5625 L922.6094,715.0156 Q922.6094,715.625 922.375,715.8906 Q922.1406,716.1563 921.7656,716.1563 Q921.4219,716.1563 921.2188,715.9531 Q921.0156,715.7656 920.9063,715.25 Q920.8594,714.8906 920.6719,714.7031 Q920.3438,714.3281 919.7344,714.1094 Q919.125,713.8906 918.5,713.8906 Q917.7344,713.8906 917.1016,714.2188 Q916.4688,714.5469 915.9766,715.2969 Q915.4844,716.0469 915.4844,717.0781 L915.4844,718.1719 Q915.4844,719.4063 916.375,720.2266 Q917.2656,721.0469 918.8594,721.0469 Q919.7969,721.0469 920.4531,720.7969 Q920.8438,720.6406 921.2656,720.2031 Q921.5313,719.9375 921.6797,719.8594 Q921.8281,719.7813 922.0313,719.7813 Q922.3594,719.7813 922.6172,720.0391 Q922.875,720.2969 922.875,720.6406 Q922.875,720.9844 922.5313,721.3906 Q922.0313,721.9688 921.2344,722.2969 Q920.1563,722.75 918.8594,722.75 Q917.3438,722.75 916.1406,722.125 Q915.1563,721.625 914.4688,720.5547 Q913.7813,719.4844 913.7813,718.2031 L913.7813,717.0469 Q913.7813,715.7188 914.3984,714.5703 Q915.0156,713.4219 916.1094,712.8047 Q917.2031,712.1875 918.4375,712.1875 Q919.1719,712.1875 919.8203,712.3516 Q920.4688,712.5156 921.0156,712.875 Z "/><text fill="#000000" font-family="sans-serif" font-size="12" lengthAdjust="spacingAndGlyphs" textLength="27" x="938.75" y="721.9102">Error</text><line style="stroke: #A80036; stroke-width: 1.5;" x1="851" x2="1021" y1="733" y2="733"/><ellipse cx="861" cy="745.418" fill="none" rx="3" ry="3" style="stroke: #038048; stroke-width: 1.0;"/><text fill="#000000" font-family="sans-serif" font-size="11" lengthAdjust="spacingAndGlyphs" text-decoration="underline" textLength="92" x="870" y="748.4189">DUPLICATED: Error</text><ellipse cx="861" cy="759.2539" fill="none" rx="3" ry="3" style="stroke: #038048; stroke-width: 1.0;"/><text fill="#000000" font-family="sans-serif" font-size="11" lengthAdjust="spacingAndGlyphs" text-decoration="underline" textLength="146" x="870" y="762.2549">WRONG_CHARACTERS: Error</text><ellipse cx="861" cy="773.0898" fill="none" rx="3" ry="3" style="stroke: #038048; stroke-width: 1.0;"/><text fill="#000000" font-family="sans-serif" font-size="11" lengthAdjust="spacingAndGlyphs" text-decoration="underline" textLength="116" x="870" y="776.0908">WRONG_LENGTH: Error</text><rect fill="none" height="6" style="stroke: #C82930; stroke-width: 1.0;" width="6" x="858" y="783.9258"/><text fill="#000000" font-family="sans-serif" font-size="11" lengthAdjust="spacingAndGlyphs" textLength="78" x="870" y="789.9268">message: String</text><line style="stroke: #A80036; stroke-width: 1.5;" x1="851" x2="1021" y1="796.3438" y2="796.3438"/><rect fill="#F24D5C" height="6" style="stroke: #C82930; stroke-width: 1.0;" width="6" x="858" y="805.7617"/><text fill="#000000" font-family="sans-serif" font-size="11" lengthAdjust="spacingAndGlyphs" textLength="60" x="870" y="811.7627">Error(String)</text><ellipse cx="861" cy="822.5977" fill="#84BE84" rx="3" ry="3" style="stroke: #038048; stroke-width: 1.0;"/><text fill="#000000" font-family="sans-serif" font-size="11" lengthAdjust="spacingAndGlyphs" text-decoration="underline" textLength="104" x="870" y="825.5986">valueOf(String): Error</text><ellipse cx="861" cy="836.4336" fill="#84BE84" rx="3" ry="3" style="stroke: #038048; stroke-width: 1.0;"/><text fill="#000000" font-family="sans-serif" font-size="11" lengthAdjust="spacingAndGlyphs" textLength="101" x="870" y="839.4346">getMessage(): String</text><!--class mastermind.views.SecretCombinationView--><rect fill="#FEFECE" filter="url(#fuxc3uw44qujp)" height="75.6719" id="mastermind.views.SecretCombinationView" style="stroke: #A80036; stroke-width: 1.5;" width="164" x="1607" y="735.5"/><ellipse cx="1622" cy="751.5" fill="#ADD1B2" rx="11" ry="11" style="stroke: #A80036; stroke-width: 1.0;"/><path d="M1624.7656,747.375 Q1624.9219,747.1563 1625.1094,747.0469 Q1625.2969,746.9375 1625.5156,746.9375 Q1625.8906,746.9375 1626.125,747.1953 Q1626.3594,747.4531 1626.3594,748.0625 L1626.3594,749.5156 Q1626.3594,750.125 1626.125,750.3906 Q1625.8906,750.6563 1625.5156,750.6563 Q1625.1719,750.6563 1624.9688,750.4531 Q1624.7656,750.2656 1624.6563,749.75 Q1624.6094,749.3906 1624.4219,749.2031 Q1624.0938,748.8281 1623.4844,748.6094 Q1622.875,748.3906 1622.25,748.3906 Q1621.4844,748.3906 1620.8516,748.7188 Q1620.2188,749.0469 1619.7266,749.7969 Q1619.2344,750.5469 1619.2344,751.5781 L1619.2344,752.6719 Q1619.2344,753.9063 1620.125,754.7266 Q1621.0156,755.5469 1622.6094,755.5469 Q1623.5469,755.5469 1624.2031,755.2969 Q1624.5938,755.1406 1625.0156,754.7031 Q1625.2813,754.4375 1625.4297,754.3594 Q1625.5781,754.2813 1625.7813,754.2813 Q1626.1094,754.2813 1626.3672,754.5391 Q1626.625,754.7969 1626.625,755.1406 Q1626.625,755.4844 1626.2813,755.8906 Q1625.7813,756.4688 1624.9844,756.7969 Q1623.9063,757.25 1622.6094,757.25 Q1621.0938,757.25 1619.8906,756.625 Q1618.9063,756.125 1618.2188,755.0547 Q1617.5313,753.9844 1617.5313,752.7031 L1617.5313,751.5469 Q1617.5313,750.2188 1618.1484,749.0703 Q1618.7656,747.9219 1619.8594,747.3047 Q1620.9531,746.6875 1622.1875,746.6875 Q1622.9219,746.6875 1623.5703,746.8516 Q1624.2188,747.0156 1624.7656,747.375 Z "/><text fill="#000000" font-family="sans-serif" font-size="12" lengthAdjust="spacingAndGlyphs" textLength="132" x="1636" y="756.4102">SecretCombinationView</text><line style="stroke: #A80036; stroke-width: 1.5;" x1="1608" x2="1770" y1="767.5" y2="767.5"/><line style="stroke: #A80036; stroke-width: 1.5;" x1="1608" x2="1770" y1="775.5" y2="775.5"/><polygon fill="#4177AF" points="1618,783.918,1614,789.918,1622,789.918" style="stroke: #1963A0; stroke-width: 1.0;"/><text fill="#000000" font-family="sans-serif" font-size="11" lengthAdjust="spacingAndGlyphs" textLength="124" x="1627" y="790.9189">SecretCombinationView()</text><polygon fill="#4177AF" points="1618,797.7539,1614,803.7539,1622,803.7539" style="stroke: #1963A0; stroke-width: 1.0;"/><text fill="#000000" font-family="sans-serif" font-size="11" lengthAdjust="spacingAndGlyphs" textLength="78" x="1627" y="804.7549">writeln(int): void</text><!--class mastermind.views.ProposedCombinationView--><rect fill="#FEFECE" filter="url(#fuxc3uw44qujp)" height="103.3438" id="mastermind.views.ProposedCombinationView" style="stroke: #A80036; stroke-width: 1.5;" width="183" x="1351.5" y="722"/><ellipse cx="1366.5" cy="738" fill="#ADD1B2" rx="11" ry="11" style="stroke: #A80036; stroke-width: 1.0;"/><path d="M1369.2656,733.875 Q1369.4219,733.6563 1369.6094,733.5469 Q1369.7969,733.4375 1370.0156,733.4375 Q1370.3906,733.4375 1370.625,733.6953 Q1370.8594,733.9531 1370.8594,734.5625 L1370.8594,736.0156 Q1370.8594,736.625 1370.625,736.8906 Q1370.3906,737.1563 1370.0156,737.1563 Q1369.6719,737.1563 1369.4688,736.9531 Q1369.2656,736.7656 1369.1563,736.25 Q1369.1094,735.8906 1368.9219,735.7031 Q1368.5938,735.3281 1367.9844,735.1094 Q1367.375,734.8906 1366.75,734.8906 Q1365.9844,734.8906 1365.3516,735.2188 Q1364.7188,735.5469 1364.2266,736.2969 Q1363.7344,737.0469 1363.7344,738.0781 L1363.7344,739.1719 Q1363.7344,740.4063 1364.625,741.2266 Q1365.5156,742.0469 1367.1094,742.0469 Q1368.0469,742.0469 1368.7031,741.7969 Q1369.0938,741.6406 1369.5156,741.2031 Q1369.7813,740.9375 1369.9297,740.8594 Q1370.0781,740.7813 1370.2813,740.7813 Q1370.6094,740.7813 1370.8672,741.0391 Q1371.125,741.2969 1371.125,741.6406 Q1371.125,741.9844 1370.7813,742.3906 Q1370.2813,742.9688 1369.4844,743.2969 Q1368.4063,743.75 1367.1094,743.75 Q1365.5938,743.75 1364.3906,743.125 Q1363.4063,742.625 1362.7188,741.5547 Q1362.0313,740.4844 1362.0313,739.2031 L1362.0313,738.0469 Q1362.0313,736.7188 1362.6484,735.5703 Q1363.2656,734.4219 1364.3594,733.8047 Q1365.4531,733.1875 1366.6875,733.1875 Q1367.4219,733.1875 1368.0703,733.3516 Q1368.7188,733.5156 1369.2656,733.875 Z "/><text fill="#000000" font-family="sans-serif" font-size="12" lengthAdjust="spacingAndGlyphs" textLength="151" x="1380.5" y="742.9102">ProposedCombinationView</text><line style="stroke: #A80036; stroke-width: 1.5;" x1="1352.5" x2="1533.5" y1="754" y2="754"/><rect fill="none" height="6" style="stroke: #C82930; stroke-width: 1.0;" width="6" x="1359.5" y="763.418"/><text fill="#000000" font-family="sans-serif" font-size="11" lengthAdjust="spacingAndGlyphs" text-decoration="underline" textLength="86" x="1371.5" y="769.4189">ERROR_CODE: int</text><line style="stroke: #A80036; stroke-width: 1.5;" x1="1352.5" x2="1533.5" y1="775.8359" y2="775.8359"/><polygon fill="#4177AF" points="1362.5,784.2539,1358.5,790.2539,1366.5,790.2539" style="stroke: #1963A0; stroke-width: 1.0;"/><text fill="#000000" font-family="sans-serif" font-size="11" lengthAdjust="spacingAndGlyphs" textLength="138" x="1371.5" y="791.2549">ProposedCombinationView()</text><polygon fill="#4177AF" points="1362.5,798.0898,1358.5,804.0898,1366.5,804.0898" style="stroke: #1963A0; stroke-width: 1.0;"/><text fill="#000000" font-family="sans-serif" font-size="11" lengthAdjust="spacingAndGlyphs" textLength="76" x="1371.5" y="805.0908">write(int[]): void</text><polygon fill="#4177AF" points="1362.5,811.9258,1358.5,817.9258,1366.5,817.9258" style="stroke: #1963A0; stroke-width: 1.0;"/><text fill="#000000" font-family="sans-serif" font-size="11" lengthAdjust="spacingAndGlyphs" textLength="53" x="1371.5" y="818.9268">read(): int[]</text><!--class mastermind.views.ResultView--><rect fill="#FEFECE" filter="url(#fuxc3uw44qujp)" height="75.6719" id="mastermind.views.ResultView" style="stroke: #A80036; stroke-width: 1.5;" width="110" x="1806" y="735.5"/><ellipse cx="1828.2" cy="751.5" fill="#ADD1B2" rx="11" ry="11" style="stroke: #A80036; stroke-width: 1.0;"/><path d="M1830.9656,747.375 Q1831.1219,747.1563 1831.3094,747.0469 Q1831.4969,746.9375 1831.7156,746.9375 Q1832.0906,746.9375 1832.325,747.1953 Q1832.5594,747.4531 1832.5594,748.0625 L1832.5594,749.5156 Q1832.5594,750.125 1832.325,750.3906 Q1832.0906,750.6563 1831.7156,750.6563 Q1831.3719,750.6563 1831.1688,750.4531 Q1830.9656,750.2656 1830.8563,749.75 Q1830.8094,749.3906 1830.6219,749.2031 Q1830.2938,748.8281 1829.6844,748.6094 Q1829.075,748.3906 1828.45,748.3906 Q1827.6844,748.3906 1827.0516,748.7188 Q1826.4188,749.0469 1825.9266,749.7969 Q1825.4344,750.5469 1825.4344,751.5781 L1825.4344,752.6719 Q1825.4344,753.9063 1826.325,754.7266 Q1827.2156,755.5469 1828.8094,755.5469 Q1829.7469,755.5469 1830.4031,755.2969 Q1830.7938,755.1406 1831.2156,754.7031 Q1831.4813,754.4375 1831.6297,754.3594 Q1831.7781,754.2813 1831.9813,754.2813 Q1832.3094,754.2813 1832.5672,754.5391 Q1832.825,754.7969 1832.825,755.1406 Q1832.825,755.4844 1832.4813,755.8906 Q1831.9813,756.4688 1831.1844,756.7969 Q1830.1063,757.25 1828.8094,757.25 Q1827.2938,757.25 1826.0906,756.625 Q1825.1063,756.125 1824.4188,755.0547 Q1823.7313,753.9844 1823.7313,752.7031 L1823.7313,751.5469 Q1823.7313,750.2188 1824.3484,749.0703 Q1824.9656,747.9219 1826.0594,747.3047 Q1827.1531,746.6875 1828.3875,746.6875 Q1829.1219,746.6875 1829.7703,746.8516 Q1830.4188,747.0156 1830.9656,747.375 Z "/><text fill="#000000" font-family="sans-serif" font-size="12" lengthAdjust="spacingAndGlyphs" textLength="62" x="1843.8" y="756.4102">ResultView</text><line style="stroke: #A80036; stroke-width: 1.5;" x1="1807" x2="1915" y1="767.5" y2="767.5"/><line style="stroke: #A80036; stroke-width: 1.5;" x1="1807" x2="1915" y1="775.5" y2="775.5"/><polygon fill="#4177AF" points="1817,783.918,1813,789.918,1821,789.918" style="stroke: #1963A0; stroke-width: 1.0;"/><text fill="#000000" font-family="sans-serif" font-size="11" lengthAdjust="spacingAndGlyphs" textLength="64" x="1826" y="790.9189">ResultView()</text><polygon fill="#4177AF" points="1817,797.7539,1813,803.7539,1821,803.7539" style="stroke: #1963A0; stroke-width: 1.0;"/><text fill="#000000" font-family="sans-serif" font-size="11" lengthAdjust="spacingAndGlyphs" textLength="84" x="1826" y="804.7549">writeln(int[]): void</text><!--class mastermind.views.PlayMenu--><rect fill="#FEFECE" filter="url(#fuxc3uw44qujp)" height="61.8359" id="mastermind.views.PlayMenu" style="stroke: #A80036; stroke-width: 1.5;" width="146" x="1105" y="422"/><ellipse cx="1147.45" cy="438" fill="#ADD1B2" rx="11" ry="11" style="stroke: #A80036; stroke-width: 1.0;"/><path d="M1150.2156,433.875 Q1150.3719,433.6563 1150.5594,433.5469 Q1150.7469,433.4375 1150.9656,433.4375 Q1151.3406,433.4375 1151.575,433.6953 Q1151.8094,433.9531 1151.8094,434.5625 L1151.8094,436.0156 Q1151.8094,436.625 1151.575,436.8906 Q1151.3406,437.1563 1150.9656,437.1563 Q1150.6219,437.1563 1150.4188,436.9531 Q1150.2156,436.7656 1150.1063,436.25 Q1150.0594,435.8906 1149.8719,435.7031 Q1149.5438,435.3281 1148.9344,435.1094 Q1148.325,434.8906 1147.7,434.8906 Q1146.9344,434.8906 1146.3016,435.2188 Q1145.6688,435.5469 1145.1766,436.2969 Q1144.6844,437.0469 1144.6844,438.0781 L1144.6844,439.1719 Q1144.6844,440.4063 1145.575,441.2266 Q1146.4656,442.0469 1148.0594,442.0469 Q1148.9969,442.0469 1149.6531,441.7969 Q1150.0438,441.6406 1150.4656,441.2031 Q1150.7313,440.9375 1150.8797,440.8594 Q1151.0281,440.7813 1151.2313,440.7813 Q1151.5594,440.7813 1151.8172,441.0391 Q1152.075,441.2969 1152.075,441.6406 Q1152.075,441.9844 1151.7313,442.3906 Q1151.2313,442.9688 1150.4344,443.2969 Q1149.3563,443.75 1148.0594,443.75 Q1146.5438,443.75 1145.3406,443.125 Q1144.3563,442.625 1143.6688,441.5547 Q1142.9813,440.4844 1142.9813,439.2031 L1142.9813,438.0469 Q1142.9813,436.7188 1143.5984,435.5703 Q1144.2156,434.4219 1145.3094,433.8047 Q1146.4031,433.1875 1147.6375,433.1875 Q1148.3719,433.1875 1149.0203,433.3516 Q1149.6688,433.5156 1150.2156,433.875 Z "/><text fill="#000000" font-family="sans-serif" font-size="12" lengthAdjust="spacingAndGlyphs" textLength="53" x="1167.55" y="442.9102">PlayMenu</text><line style="stroke: #A80036; stroke-width: 1.5;" x1="1106" x2="1250" y1="454" y2="454"/><line style="stroke: #A80036; stroke-width: 1.5;" x1="1106" x2="1250" y1="462" y2="462"/><ellipse cx="1116" cy="474.418" fill="#84BE84" rx="3" ry="3" style="stroke: #038048; stroke-width: 1.0;"/><text fill="#000000" font-family="sans-serif" font-size="11" lengthAdjust="spacingAndGlyphs" textLength="120" x="1125" y="477.4189">PlayMenu(PlayController)</text><!--class mastermind.views.ProposeCommand--><rect fill="#FEFECE" filter="url(#fuxc3uw44qujp)" height="89.5078" id="mastermind.views.ProposeCommand" style="stroke: #A80036; stroke-width: 1.5;" width="187" x="1094.5" y="551"/><ellipse cx="1131.55" cy="567" fill="#ADD1B2" rx="11" ry="11" style="stroke: #A80036; stroke-width: 1.0;"/><path d="M1134.3156,562.875 Q1134.4719,562.6563 1134.6594,562.5469 Q1134.8469,562.4375 1135.0656,562.4375 Q1135.4406,562.4375 1135.675,562.6953 Q1135.9094,562.9531 1135.9094,563.5625 L1135.9094,565.0156 Q1135.9094,565.625 1135.675,565.8906 Q1135.4406,566.1563 1135.0656,566.1563 Q1134.7219,566.1563 1134.5188,565.9531 Q1134.3156,565.7656 1134.2063,565.25 Q1134.1594,564.8906 1133.9719,564.7031 Q1133.6438,564.3281 1133.0344,564.1094 Q1132.425,563.8906 1131.8,563.8906 Q1131.0344,563.8906 1130.4016,564.2188 Q1129.7688,564.5469 1129.2766,565.2969 Q1128.7844,566.0469 1128.7844,567.0781 L1128.7844,568.1719 Q1128.7844,569.4063 1129.675,570.2266 Q1130.5656,571.0469 1132.1594,571.0469 Q1133.0969,571.0469 1133.7531,570.7969 Q1134.1438,570.6406 1134.5656,570.2031 Q1134.8313,569.9375 1134.9797,569.8594 Q1135.1281,569.7813 1135.3313,569.7813 Q1135.6594,569.7813 1135.9172,570.0391 Q1136.175,570.2969 1136.175,570.6406 Q1136.175,570.9844 1135.8313,571.3906 Q1135.3313,571.9688 1134.5344,572.2969 Q1133.4563,572.75 1132.1594,572.75 Q1130.6438,572.75 1129.4406,572.125 Q1128.4563,571.625 1127.7688,570.5547 Q1127.0813,569.4844 1127.0813,568.2031 L1127.0813,567.0469 Q1127.0813,565.7188 1127.6984,564.5703 Q1128.3156,563.4219 1129.4094,562.8047 Q1130.5031,562.1875 1131.7375,562.1875 Q1132.4719,562.1875 1133.1203,562.3516 Q1133.7688,562.5156 1134.3156,562.875 Z "/><text fill="#000000" font-family="sans-serif" font-size="12" lengthAdjust="spacingAndGlyphs" textLength="106" x="1150.45" y="571.9102">ProposeCommand</text><line style="stroke: #A80036; stroke-width: 1.5;" x1="1095.5" x2="1280.5" y1="583" y2="583"/><line style="stroke: #A80036; stroke-width: 1.5;" x1="1095.5" x2="1280.5" y1="591" y2="591"/><polygon fill="#4177AF" points="1105.5,599.418,1101.5,605.418,1109.5,605.418" style="stroke: #1963A0; stroke-width: 1.0;"/><text fill="#000000" font-family="sans-serif" font-size="11" lengthAdjust="spacingAndGlyphs" textLength="161" x="1114.5" y="606.4189">ProposeCommand(PlayController)</text><polygon fill="#FFFF44" points="1105.5,612.2539,1109.5,616.2539,1105.5,620.2539,1101.5,616.2539" style="stroke: #B38D22; stroke-width: 1.0;"/><text fill="#000000" font-family="sans-serif" font-size="11" lengthAdjust="spacingAndGlyphs" textLength="73" x="1114.5" y="620.2549">execute(): void</text><polygon fill="#FFFF44" points="1105.5,626.0898,1109.5,630.0898,1105.5,634.0898,1101.5,630.0898" style="stroke: #B38D22; stroke-width: 1.0;"/><text fill="#000000" font-family="sans-serif" font-size="11" lengthAdjust="spacingAndGlyphs" textLength="91" x="1114.5" y="634.0908">isActive(): boolean</text><!--class mastermind.views.UndoCommand--><rect fill="#FEFECE" filter="url(#fuxc3uw44qujp)" height="89.5078" id="mastermind.views.UndoCommand" style="stroke: #A80036; stroke-width: 1.5;" width="172" x="1317" y="551"/><ellipse cx="1354.95" cy="567" fill="#ADD1B2" rx="11" ry="11" style="stroke: #A80036; stroke-width: 1.0;"/><path d="M1357.7156,562.875 Q1357.8719,562.6563 1358.0594,562.5469 Q1358.2469,562.4375 1358.4656,562.4375 Q1358.8406,562.4375 1359.075,562.6953 Q1359.3094,562.9531 1359.3094,563.5625 L1359.3094,565.0156 Q1359.3094,565.625 1359.075,565.8906 Q1358.8406,566.1563 1358.4656,566.1563 Q1358.1219,566.1563 1357.9188,565.9531 Q1357.7156,565.7656 1357.6063,565.25 Q1357.5594,564.8906 1357.3719,564.7031 Q1357.0438,564.3281 1356.4344,564.1094 Q1355.825,563.8906 1355.2,563.8906 Q1354.4344,563.8906 1353.8016,564.2188 Q1353.1688,564.5469 1352.6766,565.2969 Q1352.1844,566.0469 1352.1844,567.0781 L1352.1844,568.1719 Q1352.1844,569.4063 1353.075,570.2266 Q1353.9656,571.0469 1355.5594,571.0469 Q1356.4969,571.0469 1357.1531,570.7969 Q1357.5438,570.6406 1357.9656,570.2031 Q1358.2313,569.9375 1358.3797,569.8594 Q1358.5281,569.7813 1358.7313,569.7813 Q1359.0594,569.7813 1359.3172,570.0391 Q1359.575,570.2969 1359.575,570.6406 Q1359.575,570.9844 1359.2313,571.3906 Q1358.7313,571.9688 1357.9344,572.2969 Q1356.8563,572.75 1355.5594,572.75 Q1354.0438,572.75 1352.8406,572.125 Q1351.8563,571.625 1351.1688,570.5547 Q1350.4813,569.4844 1350.4813,568.2031 L1350.4813,567.0469 Q1350.4813,565.7188 1351.0984,564.5703 Q1351.7156,563.4219 1352.8094,562.8047 Q1353.9031,562.1875 1355.1375,562.1875 Q1355.8719,562.1875 1356.5203,562.3516 Q1357.1688,562.5156 1357.7156,562.875 Z "/><text fill="#000000" font-family="sans-serif" font-size="12" lengthAdjust="spacingAndGlyphs" textLength="89" x="1374.05" y="571.9102">UndoCommand</text><line style="stroke: #A80036; stroke-width: 1.5;" x1="1318" x2="1488" y1="583" y2="583"/><line style="stroke: #A80036; stroke-width: 1.5;" x1="1318" x2="1488" y1="591" y2="591"/><polygon fill="#4177AF" points="1328,599.418,1324,605.418,1332,605.418" style="stroke: #1963A0; stroke-width: 1.0;"/><text fill="#000000" font-family="sans-serif" font-size="11" lengthAdjust="spacingAndGlyphs" textLength="146" x="1337" y="606.4189">UndoCommand(PlayController)</text><polygon fill="#FFFF44" points="1328,612.2539,1332,616.2539,1328,620.2539,1324,616.2539" style="stroke: #B38D22; stroke-width: 1.0;"/><text fill="#000000" font-family="sans-serif" font-size="11" lengthAdjust="spacingAndGlyphs" textLength="73" x="1337" y="620.2549">execute(): void</text><polygon fill="#FFFF44" points="1328,626.0898,1332,630.0898,1328,634.0898,1324,630.0898" style="stroke: #B38D22; stroke-width: 1.0;"/><text fill="#000000" font-family="sans-serif" font-size="11" lengthAdjust="spacingAndGlyphs" textLength="91" x="1337" y="634.0908">isActive(): boolean</text><!--class mastermind.views.RedoCommand--><rect fill="#FEFECE" filter="url(#fuxc3uw44qujp)" height="89.5078" id="mastermind.views.RedoCommand" style="stroke: #A80036; stroke-width: 1.5;" width="172" x="887" y="551"/><ellipse cx="924.95" cy="567" fill="#ADD1B2" rx="11" ry="11" style="stroke: #A80036; stroke-width: 1.0;"/><path d="M927.7156,562.875 Q927.8719,562.6563 928.0594,562.5469 Q928.2469,562.4375 928.4656,562.4375 Q928.8406,562.4375 929.075,562.6953 Q929.3094,562.9531 929.3094,563.5625 L929.3094,565.0156 Q929.3094,565.625 929.075,565.8906 Q928.8406,566.1563 928.4656,566.1563 Q928.1219,566.1563 927.9188,565.9531 Q927.7156,565.7656 927.6063,565.25 Q927.5594,564.8906 927.3719,564.7031 Q927.0438,564.3281 926.4344,564.1094 Q925.825,563.8906 925.2,563.8906 Q924.4344,563.8906 923.8016,564.2188 Q923.1688,564.5469 922.6766,565.2969 Q922.1844,566.0469 922.1844,567.0781 L922.1844,568.1719 Q922.1844,569.4063 923.075,570.2266 Q923.9656,571.0469 925.5594,571.0469 Q926.4969,571.0469 927.1531,570.7969 Q927.5438,570.6406 927.9656,570.2031 Q928.2313,569.9375 928.3797,569.8594 Q928.5281,569.7813 928.7313,569.7813 Q929.0594,569.7813 929.3172,570.0391 Q929.575,570.2969 929.575,570.6406 Q929.575,570.9844 929.2313,571.3906 Q928.7313,571.9688 927.9344,572.2969 Q926.8563,572.75 925.5594,572.75 Q924.0438,572.75 922.8406,572.125 Q921.8563,571.625 921.1688,570.5547 Q920.4813,569.4844 920.4813,568.2031 L920.4813,567.0469 Q920.4813,565.7188 921.0984,564.5703 Q921.7156,563.4219 922.8094,562.8047 Q923.9031,562.1875 925.1375,562.1875 Q925.8719,562.1875 926.5203,562.3516 Q927.1688,562.5156 927.7156,562.875 Z "/><text fill="#000000" font-family="sans-serif" font-size="12" lengthAdjust="spacingAndGlyphs" textLength="89" x="944.05" y="571.9102">RedoCommand</text><line style="stroke: #A80036; stroke-width: 1.5;" x1="888" x2="1058" y1="583" y2="583"/><line style="stroke: #A80036; stroke-width: 1.5;" x1="888" x2="1058" y1="591" y2="591"/><polygon fill="#4177AF" points="898,599.418,894,605.418,902,605.418" style="stroke: #1963A0; stroke-width: 1.0;"/><text fill="#000000" font-family="sans-serif" font-size="11" lengthAdjust="spacingAndGlyphs" textLength="146" x="907" y="606.4189">RedoCommand(PlayController)</text><polygon fill="#FFFF44" points="898,612.2539,902,616.2539,898,620.2539,894,616.2539" style="stroke: #B38D22; stroke-width: 1.0;"/><text fill="#000000" font-family="sans-serif" font-size="11" lengthAdjust="spacingAndGlyphs" textLength="73" x="907" y="620.2549">execute(): void</text><polygon fill="#FFFF44" points="898,626.0898,902,630.0898,898,634.0898,894,630.0898" style="stroke: #B38D22; stroke-width: 1.0;"/><text fill="#000000" font-family="sans-serif" font-size="11" lengthAdjust="spacingAndGlyphs" textLength="91" x="907" y="634.0908">isActive(): boolean</text><!--class mastermind.views.PlayView--><rect fill="#FEFECE" filter="url(#fuxc3uw44qujp)" height="75.6719" id="mastermind.views.PlayView" style="stroke: #A80036; stroke-width: 1.5;" width="162" x="1077" y="279"/><ellipse cx="1129.25" cy="295" fill="#ADD1B2" rx="11" ry="11" style="stroke: #A80036; stroke-width: 1.0;"/><path d="M1132.0156,290.875 Q1132.1719,290.6563 1132.3594,290.5469 Q1132.5469,290.4375 1132.7656,290.4375 Q1133.1406,290.4375 1133.375,290.6953 Q1133.6094,290.9531 1133.6094,291.5625 L1133.6094,293.0156 Q1133.6094,293.625 1133.375,293.8906 Q1133.1406,294.1563 1132.7656,294.1563 Q1132.4219,294.1563 1132.2188,293.9531 Q1132.0156,293.7656 1131.9063,293.25 Q1131.8594,292.8906 1131.6719,292.7031 Q1131.3438,292.3281 1130.7344,292.1094 Q1130.125,291.8906 1129.5,291.8906 Q1128.7344,291.8906 1128.1016,292.2188 Q1127.4688,292.5469 1126.9766,293.2969 Q1126.4844,294.0469 1126.4844,295.0781 L1126.4844,296.1719 Q1126.4844,297.4063 1127.375,298.2266 Q1128.2656,299.0469 1129.8594,299.0469 Q1130.7969,299.0469 1131.4531,298.7969 Q1131.8438,298.6406 1132.2656,298.2031 Q1132.5313,297.9375 1132.6797,297.8594 Q1132.8281,297.7813 1133.0313,297.7813 Q1133.3594,297.7813 1133.6172,298.0391 Q1133.875,298.2969 1133.875,298.6406 Q1133.875,298.9844 1133.5313,299.3906 Q1133.0313,299.9688 1132.2344,300.2969 Q1131.1563,300.75 1129.8594,300.75 Q1128.3438,300.75 1127.1406,300.125 Q1126.1563,299.625 1125.4688,298.5547 Q1124.7813,297.4844 1124.7813,296.2031 L1124.7813,295.0469 Q1124.7813,293.7188 1125.3984,292.5703 Q1126.0156,291.4219 1127.1094,290.8047 Q1128.2031,290.1875 1129.4375,290.1875 Q1130.1719,290.1875 1130.8203,290.3516 Q1131.4688,290.5156 1132.0156,290.875 Z "/><text fill="#000000" font-family="sans-serif" font-size="12" lengthAdjust="spacingAndGlyphs" textLength="49" x="1149.75" y="299.9102">PlayView</text><line style="stroke: #A80036; stroke-width: 1.5;" x1="1078" x2="1238" y1="311" y2="311"/><line style="stroke: #A80036; stroke-width: 1.5;" x1="1078" x2="1238" y1="319" y2="319"/><polygon fill="#4177AF" points="1088,327.418,1084,333.418,1092,333.418" style="stroke: #1963A0; stroke-width: 1.0;"/><text fill="#000000" font-family="sans-serif" font-size="11" lengthAdjust="spacingAndGlyphs" textLength="54" x="1097" y="334.4189">PlayView()</text><polygon fill="#4177AF" points="1088,341.2539,1084,347.2539,1092,347.2539" style="stroke: #1963A0; stroke-width: 1.0;"/><text fill="#000000" font-family="sans-serif" font-size="11" lengthAdjust="spacingAndGlyphs" textLength="136" x="1097" y="348.2549">interact(PlayController): void</text><!--class mastermind.views.ResumeView--><rect fill="#FEFECE" filter="url(#fuxc3uw44qujp)" height="75.6719" id="mastermind.views.ResumeView" style="stroke: #A80036; stroke-width: 1.5;" width="181" x="850.5" y="279"/><ellipse cx="899.75" cy="295" fill="#ADD1B2" rx="11" ry="11" style="stroke: #A80036; stroke-width: 1.0;"/><path d="M902.5156,290.875 Q902.6719,290.6563 902.8594,290.5469 Q903.0469,290.4375 903.2656,290.4375 Q903.6406,290.4375 903.875,290.6953 Q904.1094,290.9531 904.1094,291.5625 L904.1094,293.0156 Q904.1094,293.625 903.875,293.8906 Q903.6406,294.1563 903.2656,294.1563 Q902.9219,294.1563 902.7188,293.9531 Q902.5156,293.7656 902.4063,293.25 Q902.3594,292.8906 902.1719,292.7031 Q901.8438,292.3281 901.2344,292.1094 Q900.625,291.8906 900,291.8906 Q899.2344,291.8906 898.6016,292.2188 Q897.9688,292.5469 897.4766,293.2969 Q896.9844,294.0469 896.9844,295.0781 L896.9844,296.1719 Q896.9844,297.4063 897.875,298.2266 Q898.7656,299.0469 900.3594,299.0469 Q901.2969,299.0469 901.9531,298.7969 Q902.3438,298.6406 902.7656,298.2031 Q903.0313,297.9375 903.1797,297.8594 Q903.3281,297.7813 903.5313,297.7813 Q903.8594,297.7813 904.1172,298.0391 Q904.375,298.2969 904.375,298.6406 Q904.375,298.9844 904.0313,299.3906 Q903.5313,299.9688 902.7344,300.2969 Q901.6563,300.75 900.3594,300.75 Q898.8438,300.75 897.6406,300.125 Q896.6563,299.625 895.9688,298.5547 Q895.2813,297.4844 895.2813,296.2031 L895.2813,295.0469 Q895.2813,293.7188 895.8984,292.5703 Q896.5156,291.4219 897.6094,290.8047 Q898.7031,290.1875 899.9375,290.1875 Q900.6719,290.1875 901.3203,290.3516 Q901.9688,290.5156 902.5156,290.875 Z "/><text fill="#000000" font-family="sans-serif" font-size="12" lengthAdjust="spacingAndGlyphs" textLength="74" x="920.25" y="299.9102">ResumeView</text><line style="stroke: #A80036; stroke-width: 1.5;" x1="851.5" x2="1030.5" y1="311" y2="311"/><line style="stroke: #A80036; stroke-width: 1.5;" x1="851.5" x2="1030.5" y1="319" y2="319"/><polygon fill="#4177AF" points="861.5,327.418,857.5,333.418,865.5,333.418" style="stroke: #1963A0; stroke-width: 1.0;"/><text fill="#000000" font-family="sans-serif" font-size="11" lengthAdjust="spacingAndGlyphs" textLength="73" x="870.5" y="334.4189">ResumeView()</text><polygon fill="#4177AF" points="861.5,341.2539,857.5,347.2539,865.5,347.2539" style="stroke: #1963A0; stroke-width: 1.0;"/><text fill="#000000" font-family="sans-serif" font-size="11" lengthAdjust="spacingAndGlyphs" textLength="155" x="870.5" y="348.2549">interact(ResumeController): void</text><!--class mastermind.views.StartView--><rect fill="#FEFECE" filter="url(#fuxc3uw44qujp)" height="75.6719" id="mastermind.views.StartView" style="stroke: #A80036; stroke-width: 1.5;" width="165" x="1561.5" y="558"/><ellipse cx="1614.25" cy="574" fill="#ADD1B2" rx="11" ry="11" style="stroke: #A80036; stroke-width: 1.0;"/><path d="M1617.0156,569.875 Q1617.1719,569.6563 1617.3594,569.5469 Q1617.5469,569.4375 1617.7656,569.4375 Q1618.1406,569.4375 1618.375,569.6953 Q1618.6094,569.9531 1618.6094,570.5625 L1618.6094,572.0156 Q1618.6094,572.625 1618.375,572.8906 Q1618.1406,573.1563 1617.7656,573.1563 Q1617.4219,573.1563 1617.2188,572.9531 Q1617.0156,572.7656 1616.9063,572.25 Q1616.8594,571.8906 1616.6719,571.7031 Q1616.3438,571.3281 1615.7344,571.1094 Q1615.125,570.8906 1614.5,570.8906 Q1613.7344,570.8906 1613.1016,571.2188 Q1612.4688,571.5469 1611.9766,572.2969 Q1611.4844,573.0469 1611.4844,574.0781 L1611.4844,575.1719 Q1611.4844,576.4063 1612.375,577.2266 Q1613.2656,578.0469 1614.8594,578.0469 Q1615.7969,578.0469 1616.4531,577.7969 Q1616.8438,577.6406 1617.2656,577.2031 Q1617.5313,576.9375 1617.6797,576.8594 Q1617.8281,576.7813 1618.0313,576.7813 Q1618.3594,576.7813 1618.6172,577.0391 Q1618.875,577.2969 1618.875,577.6406 Q1618.875,577.9844 1618.5313,578.3906 Q1618.0313,578.9688 1617.2344,579.2969 Q1616.1563,579.75 1614.8594,579.75 Q1613.3438,579.75 1612.1406,579.125 Q1611.1563,578.625 1610.4688,577.5547 Q1609.7813,576.4844 1609.7813,575.2031 L1609.7813,574.0469 Q1609.7813,572.7188 1610.3984,571.5703 Q1611.0156,570.4219 1612.1094,569.8047 Q1613.2031,569.1875 1614.4375,569.1875 Q1615.1719,569.1875 1615.8203,569.3516 Q1616.4688,569.5156 1617.0156,569.875 Z "/><text fill="#000000" font-family="sans-serif" font-size="12" lengthAdjust="spacingAndGlyphs" textLength="51" x="1634.75" y="578.9102">StartView</text><line style="stroke: #A80036; stroke-width: 1.5;" x1="1562.5" x2="1725.5" y1="590" y2="590"/><line style="stroke: #A80036; stroke-width: 1.5;" x1="1562.5" x2="1725.5" y1="598" y2="598"/><polygon fill="#4177AF" points="1572.5,606.418,1568.5,612.418,1576.5,612.418" style="stroke: #1963A0; stroke-width: 1.0;"/><text fill="#000000" font-family="sans-serif" font-size="11" lengthAdjust="spacingAndGlyphs" textLength="57" x="1581.5" y="613.4189">StartView()</text><polygon fill="#4177AF" points="1572.5,620.2539,1568.5,626.2539,1576.5,626.2539" style="stroke: #1963A0; stroke-width: 1.0;"/><text fill="#000000" font-family="sans-serif" font-size="11" lengthAdjust="spacingAndGlyphs" textLength="139" x="1581.5" y="627.2549">interact(StartController): void</text><!--class mastermind.views.View--><rect fill="#FEFECE" filter="url(#fuxc3uw44qujp)" height="158.6875" id="mastermind.views.View" style="stroke: #A80036; stroke-width: 1.5;" width="187" x="850.5" y="60"/><ellipse cx="926.75" cy="76" fill="#ADD1B2" rx="11" ry="11" style="stroke: #A80036; stroke-width: 1.0;"/><path d="M929.5156,71.875 Q929.6719,71.6563 929.8594,71.5469 Q930.0469,71.4375 930.2656,71.4375 Q930.6406,71.4375 930.875,71.6953 Q931.1094,71.9531 931.1094,72.5625 L931.1094,74.0156 Q931.1094,74.625 930.875,74.8906 Q930.6406,75.1563 930.2656,75.1563 Q929.9219,75.1563 929.7188,74.9531 Q929.5156,74.7656 929.4063,74.25 Q929.3594,73.8906 929.1719,73.7031 Q928.8438,73.3281 928.2344,73.1094 Q927.625,72.8906 927,72.8906 Q926.2344,72.8906 925.6016,73.2188 Q924.9688,73.5469 924.4766,74.2969 Q923.9844,75.0469 923.9844,76.0781 L923.9844,77.1719 Q923.9844,78.4063 924.875,79.2266 Q925.7656,80.0469 927.3594,80.0469 Q928.2969,80.0469 928.9531,79.7969 Q929.3438,79.6406 929.7656,79.2031 Q930.0313,78.9375 930.1797,78.8594 Q930.3281,78.7813 930.5313,78.7813 Q930.8594,78.7813 931.1172,79.0391 Q931.375,79.2969 931.375,79.6406 Q931.375,79.9844 931.0313,80.3906 Q930.5313,80.9688 929.7344,81.2969 Q928.6563,81.75 927.3594,81.75 Q925.8438,81.75 924.6406,81.125 Q923.6563,80.625 922.9688,79.5547 Q922.2813,78.4844 922.2813,77.2031 L922.2813,76.0469 Q922.2813,74.7188 922.8984,73.5703 Q923.5156,72.4219 924.6094,71.8047 Q925.7031,71.1875 926.9375,71.1875 Q927.6719,71.1875 928.3203,71.3516 Q928.9688,71.5156 929.5156,71.875 Z "/><text fill="#000000" font-family="sans-serif" font-size="12" lengthAdjust="spacingAndGlyphs" textLength="26" x="947.25" y="80.9102">View</text><line style="stroke: #A80036; stroke-width: 1.5;" x1="851.5" x2="1036.5" y1="92" y2="92"/><rect fill="none" height="6" style="stroke: #C82930; stroke-width: 1.0;" width="6" x="858.5" y="101.418"/><text fill="#000000" font-family="sans-serif" font-size="11" lengthAdjust="spacingAndGlyphs" textLength="103" x="870.5" y="107.4189">startView: StartView</text><rect fill="none" height="6" style="stroke: #C82930; stroke-width: 1.0;" width="6" x="858.5" y="115.2539"/><text fill="#000000" font-family="sans-serif" font-size="11" lengthAdjust="spacingAndGlyphs" textLength="98" x="870.5" y="121.2549">playView: PlayView</text><rect fill="none" height="6" style="stroke: #C82930; stroke-width: 1.0;" width="6" x="858.5" y="129.0898"/><text fill="#000000" font-family="sans-serif" font-size="11" lengthAdjust="spacingAndGlyphs" textLength="133" x="870.5" y="135.0908">resumeView: ResumeView</text><line style="stroke: #A80036; stroke-width: 1.5;" x1="851.5" x2="1036.5" y1="141.5078" y2="141.5078"/><ellipse cx="861.5" cy="153.9258" fill="#84BE84" rx="3" ry="3" style="stroke: #038048; stroke-width: 1.0;"/><text fill="#000000" font-family="sans-serif" font-size="11" lengthAdjust="spacingAndGlyphs" textLength="34" x="870.5" y="156.9268">View()</text><ellipse cx="861.5" cy="167.7617" fill="#84BE84" rx="3" ry="3" style="stroke: #038048; stroke-width: 1.0;"/><text fill="#000000" font-family="sans-serif" font-size="11" lengthAdjust="spacingAndGlyphs" textLength="138" x="870.5" y="170.7627">visit(ResumeController): void</text><ellipse cx="861.5" cy="181.5977" fill="#84BE84" rx="3" ry="3" style="stroke: #038048; stroke-width: 1.0;"/><text fill="#000000" font-family="sans-serif" font-size="11" lengthAdjust="spacingAndGlyphs" textLength="119" x="870.5" y="184.5986">visit(PlayController): void</text><ellipse cx="861.5" cy="195.4336" fill="#84BE84" rx="3" ry="3" style="stroke: #038048; stroke-width: 1.0;"/><text fill="#000000" font-family="sans-serif" font-size="11" lengthAdjust="spacingAndGlyphs" textLength="122" x="870.5" y="198.4346">visit(StartController): void</text><ellipse cx="861.5" cy="209.2695" fill="#84BE84" rx="3" ry="3" style="stroke: #038048; stroke-width: 1.0;"/><text fill="#000000" font-family="sans-serif" font-size="11" lengthAdjust="spacingAndGlyphs" textLength="161" x="870.5" y="212.2705">interact(AcceptorController): void</text><!--class mastermind.utils.Command--><rect fill="#FEFECE" filter="url(#fuxc3uw44qujp)" height="48" id="mastermind.utils.Command" style="stroke: #A80036; stroke-width: 1.5;" width="91" x="2069.5" y="115.5"/><ellipse cx="2084.5" cy="131.5" fill="#ADD1B2" rx="11" ry="11" style="stroke: #A80036; stroke-width: 1.0;"/><path d="M2087.2656,127.375 Q2087.4219,127.1563 2087.6094,127.0469 Q2087.7969,126.9375 2088.0156,126.9375 Q2088.3906,126.9375 2088.625,127.1953 Q2088.8594,127.4531 2088.8594,128.0625 L2088.8594,129.5156 Q2088.8594,130.125 2088.625,130.3906 Q2088.3906,130.6563 2088.0156,130.6563 Q2087.6719,130.6563 2087.4688,130.4531 Q2087.2656,130.2656 2087.1563,129.75 Q2087.1094,129.3906 2086.9219,129.2031 Q2086.5938,128.8281 2085.9844,128.6094 Q2085.375,128.3906 2084.75,128.3906 Q2083.9844,128.3906 2083.3516,128.7188 Q2082.7188,129.0469 2082.2266,129.7969 Q2081.7344,130.5469 2081.7344,131.5781 L2081.7344,132.6719 Q2081.7344,133.9063 2082.625,134.7266 Q2083.5156,135.5469 2085.1094,135.5469 Q2086.0469,135.5469 2086.7031,135.2969 Q2087.0938,135.1406 2087.5156,134.7031 Q2087.7813,134.4375 2087.9297,134.3594 Q2088.0781,134.2813 2088.2813,134.2813 Q2088.6094,134.2813 2088.8672,134.5391 Q2089.125,134.7969 2089.125,135.1406 Q2089.125,135.4844 2088.7813,135.8906 Q2088.2813,136.4688 2087.4844,136.7969 Q2086.4063,137.25 2085.1094,137.25 Q2083.5938,137.25 2082.3906,136.625 Q2081.4063,136.125 2080.7188,135.0547 Q2080.0313,133.9844 2080.0313,132.7031 L2080.0313,131.5469 Q2080.0313,130.2188 2080.6484,129.0703 Q2081.2656,127.9219 2082.3594,127.3047 Q2083.4531,126.6875 2084.6875,126.6875 Q2085.4219,126.6875 2086.0703,126.8516 Q2086.7188,127.0156 2087.2656,127.375 Z "/><text fill="#000000" font-family="sans-serif" font-size="12" lengthAdjust="spacingAndGlyphs" textLength="59" x="2098.5" y="136.4102">Command</text><line style="stroke: #A80036; stroke-width: 1.5;" x1="2070.5" x2="2159.5" y1="147.5" y2="147.5"/><line style="stroke: #A80036; stroke-width: 1.5;" x1="2070.5" x2="2159.5" y1="155.5" y2="155.5"/><!--class mastermind.utils.WithConsoleView--><rect fill="#FEFECE" filter="url(#fuxc3uw44qujp)" height="48" id="mastermind.utils.WithConsoleView" style="stroke: #A80036; stroke-width: 1.5;" width="129" x="2195.5" y="115.5"/><ellipse cx="2210.5" cy="131.5" fill="#ADD1B2" rx="11" ry="11" style="stroke: #A80036; stroke-width: 1.0;"/><path d="M2213.2656,127.375 Q2213.4219,127.1563 2213.6094,127.0469 Q2213.7969,126.9375 2214.0156,126.9375 Q2214.3906,126.9375 2214.625,127.1953 Q2214.8594,127.4531 2214.8594,128.0625 L2214.8594,129.5156 Q2214.8594,130.125 2214.625,130.3906 Q2214.3906,130.6563 2214.0156,130.6563 Q2213.6719,130.6563 2213.4688,130.4531 Q2213.2656,130.2656 2213.1563,129.75 Q2213.1094,129.3906 2212.9219,129.2031 Q2212.5938,128.8281 2211.9844,128.6094 Q2211.375,128.3906 2210.75,128.3906 Q2209.9844,128.3906 2209.3516,128.7188 Q2208.7188,129.0469 2208.2266,129.7969 Q2207.7344,130.5469 2207.7344,131.5781 L2207.7344,132.6719 Q2207.7344,133.9063 2208.625,134.7266 Q2209.5156,135.5469 2211.1094,135.5469 Q2212.0469,135.5469 2212.7031,135.2969 Q2213.0938,135.1406 2213.5156,134.7031 Q2213.7813,134.4375 2213.9297,134.3594 Q2214.0781,134.2813 2214.2813,134.2813 Q2214.6094,134.2813 2214.8672,134.5391 Q2215.125,134.7969 2215.125,135.1406 Q2215.125,135.4844 2214.7813,135.8906 Q2214.2813,136.4688 2213.4844,136.7969 Q2212.4063,137.25 2211.1094,137.25 Q2209.5938,137.25 2208.3906,136.625 Q2207.4063,136.125 2206.7188,135.0547 Q2206.0313,133.9844 2206.0313,132.7031 L2206.0313,131.5469 Q2206.0313,130.2188 2206.6484,129.0703 Q2207.2656,127.9219 2208.3594,127.3047 Q2209.4531,126.6875 2210.6875,126.6875 Q2211.4219,126.6875 2212.0703,126.8516 Q2212.7188,127.0156 2213.2656,127.375 Z "/><text fill="#000000" font-family="sans-serif" font-size="12" lengthAdjust="spacingAndGlyphs" textLength="97" x="2224.5" y="136.4102">WithConsoleView</text><line style="stroke: #A80036; stroke-width: 1.5;" x1="2196.5" x2="2323.5" y1="147.5" y2="147.5"/><line style="stroke: #A80036; stroke-width: 1.5;" x1="2196.5" x2="2323.5" y1="155.5" y2="155.5"/><!--class mastermind.utils.Menu--><rect fill="#FEFECE" filter="url(#fuxc3uw44qujp)" height="48" id="mastermind.utils.Menu" style="stroke: #A80036; stroke-width: 1.5;" width="62" x="1972" y="115.5"/><ellipse cx="1987" cy="131.5" fill="#ADD1B2" rx="11" ry="11" style="stroke: #A80036; stroke-width: 1.0;"/><path d="M1989.7656,127.375 Q1989.9219,127.1563 1990.1094,127.0469 Q1990.2969,126.9375 1990.5156,126.9375 Q1990.8906,126.9375 1991.125,127.1953 Q1991.3594,127.4531 1991.3594,128.0625 L1991.3594,129.5156 Q1991.3594,130.125 1991.125,130.3906 Q1990.8906,130.6563 1990.5156,130.6563 Q1990.1719,130.6563 1989.9688,130.4531 Q1989.7656,130.2656 1989.6563,129.75 Q1989.6094,129.3906 1989.4219,129.2031 Q1989.0938,128.8281 1988.4844,128.6094 Q1987.875,128.3906 1987.25,128.3906 Q1986.4844,128.3906 1985.8516,128.7188 Q1985.2188,129.0469 1984.7266,129.7969 Q1984.2344,130.5469 1984.2344,131.5781 L1984.2344,132.6719 Q1984.2344,133.9063 1985.125,134.7266 Q1986.0156,135.5469 1987.6094,135.5469 Q1988.5469,135.5469 1989.2031,135.2969 Q1989.5938,135.1406 1990.0156,134.7031 Q1990.2813,134.4375 1990.4297,134.3594 Q1990.5781,134.2813 1990.7813,134.2813 Q1991.1094,134.2813 1991.3672,134.5391 Q1991.625,134.7969 1991.625,135.1406 Q1991.625,135.4844 1991.2813,135.8906 Q1990.7813,136.4688 1989.9844,136.7969 Q1988.9063,137.25 1987.6094,137.25 Q1986.0938,137.25 1984.8906,136.625 Q1983.9063,136.125 1983.2188,135.0547 Q1982.5313,133.9844 1982.5313,132.7031 L1982.5313,131.5469 Q1982.5313,130.2188 1983.1484,129.0703 Q1983.7656,127.9219 1984.8594,127.3047 Q1985.9531,126.6875 1987.1875,126.6875 Q1987.9219,126.6875 1988.5703,126.8516 Q1989.2188,127.0156 1989.7656,127.375 Z "/><text fill="#000000" font-family="sans-serif" font-size="12" lengthAdjust="spacingAndGlyphs" textLength="30" x="2001" y="136.4102">Menu</text><line style="stroke: #A80036; stroke-width: 1.5;" x1="1973" x2="2033" y1="147.5" y2="147.5"/><line style="stroke: #A80036; stroke-width: 1.5;" x1="1973" x2="2033" y1="155.5" y2="155.5"/><!--class mastermind.controllers.PlayController--><rect fill="#FEFECE" filter="url(#fuxc3uw44qujp)" height="48" id="mastermind.controllers.PlayController" style="stroke: #A80036; stroke-width: 1.5;" width="109" x="538.5" y="749.5"/><ellipse cx="553.5" cy="765.5" fill="#ADD1B2" rx="11" ry="11" style="stroke: #A80036; stroke-width: 1.0;"/><path d="M556.2656,761.375 Q556.4219,761.1563 556.6094,761.0469 Q556.7969,760.9375 557.0156,760.9375 Q557.3906,760.9375 557.625,761.1953 Q557.8594,761.4531 557.8594,762.0625 L557.8594,763.5156 Q557.8594,764.125 557.625,764.3906 Q557.3906,764.6563 557.0156,764.6563 Q556.6719,764.6563 556.4688,764.4531 Q556.2656,764.2656 556.1563,763.75 Q556.1094,763.3906 555.9219,763.2031 Q555.5938,762.8281 554.9844,762.6094 Q554.375,762.3906 553.75,762.3906 Q552.9844,762.3906 552.3516,762.7188 Q551.7188,763.0469 551.2266,763.7969 Q550.7344,764.5469 550.7344,765.5781 L550.7344,766.6719 Q550.7344,767.9063 551.625,768.7266 Q552.5156,769.5469 554.1094,769.5469 Q555.0469,769.5469 555.7031,769.2969 Q556.0938,769.1406 556.5156,768.7031 Q556.7813,768.4375 556.9297,768.3594 Q557.0781,768.2813 557.2813,768.2813 Q557.6094,768.2813 557.8672,768.5391 Q558.125,768.7969 558.125,769.1406 Q558.125,769.4844 557.7813,769.8906 Q557.2813,770.4688 556.4844,770.7969 Q555.4063,771.25 554.1094,771.25 Q552.5938,771.25 551.3906,770.625 Q550.4063,770.125 549.7188,769.0547 Q549.0313,767.9844 549.0313,766.7031 L549.0313,765.5469 Q549.0313,764.2188 549.6484,763.0703 Q550.2656,761.9219 551.3594,761.3047 Q552.4531,760.6875 553.6875,760.6875 Q554.4219,760.6875 555.0703,760.8516 Q555.7188,761.0156 556.2656,761.375 Z "/><text fill="#000000" font-family="sans-serif" font-size="12" lengthAdjust="spacingAndGlyphs" textLength="77" x="567.5" y="770.4102">PlayController</text><line style="stroke: #A80036; stroke-width: 1.5;" x1="539.5" x2="646.5" y1="781.5" y2="781.5"/><line style="stroke: #A80036; stroke-width: 1.5;" x1="539.5" x2="646.5" y1="789.5" y2="789.5"/><!--class mastermind.controllers.ResumeController--><rect fill="#FEFECE" filter="url(#fuxc3uw44qujp)" height="48" id="mastermind.controllers.ResumeController" style="stroke: #A80036; stroke-width: 1.5;" width="134" x="369" y="749.5"/><ellipse cx="384" cy="765.5" fill="#ADD1B2" rx="11" ry="11" style="stroke: #A80036; stroke-width: 1.0;"/><path d="M386.7656,761.375 Q386.9219,761.1563 387.1094,761.0469 Q387.2969,760.9375 387.5156,760.9375 Q387.8906,760.9375 388.125,761.1953 Q388.3594,761.4531 388.3594,762.0625 L388.3594,763.5156 Q388.3594,764.125 388.125,764.3906 Q387.8906,764.6563 387.5156,764.6563 Q387.1719,764.6563 386.9688,764.4531 Q386.7656,764.2656 386.6563,763.75 Q386.6094,763.3906 386.4219,763.2031 Q386.0938,762.8281 385.4844,762.6094 Q384.875,762.3906 384.25,762.3906 Q383.4844,762.3906 382.8516,762.7188 Q382.2188,763.0469 381.7266,763.7969 Q381.2344,764.5469 381.2344,765.5781 L381.2344,766.6719 Q381.2344,767.9063 382.125,768.7266 Q383.0156,769.5469 384.6094,769.5469 Q385.5469,769.5469 386.2031,769.2969 Q386.5938,769.1406 387.0156,768.7031 Q387.2813,768.4375 387.4297,768.3594 Q387.5781,768.2813 387.7813,768.2813 Q388.1094,768.2813 388.3672,768.5391 Q388.625,768.7969 388.625,769.1406 Q388.625,769.4844 388.2813,769.8906 Q387.7813,770.4688 386.9844,770.7969 Q385.9063,771.25 384.6094,771.25 Q383.0938,771.25 381.8906,770.625 Q380.9063,770.125 380.2188,769.0547 Q379.5313,767.9844 379.5313,766.7031 L379.5313,765.5469 Q379.5313,764.2188 380.1484,763.0703 Q380.7656,761.9219 381.8594,761.3047 Q382.9531,760.6875 384.1875,760.6875 Q384.9219,760.6875 385.5703,760.8516 Q386.2188,761.0156 386.7656,761.375 Z "/><text fill="#000000" font-family="sans-serif" font-size="12" lengthAdjust="spacingAndGlyphs" textLength="102" x="398" y="770.4102">ResumeController</text><line style="stroke: #A80036; stroke-width: 1.5;" x1="370" x2="502" y1="781.5" y2="781.5"/><line style="stroke: #A80036; stroke-width: 1.5;" x1="370" x2="502" y1="789.5" y2="789.5"/><!--class mastermind.controllers.StartController--><rect fill="#FEFECE" filter="url(#fuxc3uw44qujp)" height="48" id="mastermind.controllers.StartController" style="stroke: #A80036; stroke-width: 1.5;" width="111" x="682.5" y="749.5"/><ellipse cx="697.5" cy="765.5" fill="#ADD1B2" rx="11" ry="11" style="stroke: #A80036; stroke-width: 1.0;"/><path d="M700.2656,761.375 Q700.4219,761.1563 700.6094,761.0469 Q700.7969,760.9375 701.0156,760.9375 Q701.3906,760.9375 701.625,761.1953 Q701.8594,761.4531 701.8594,762.0625 L701.8594,763.5156 Q701.8594,764.125 701.625,764.3906 Q701.3906,764.6563 701.0156,764.6563 Q700.6719,764.6563 700.4688,764.4531 Q700.2656,764.2656 700.1563,763.75 Q700.1094,763.3906 699.9219,763.2031 Q699.5938,762.8281 698.9844,762.6094 Q698.375,762.3906 697.75,762.3906 Q696.9844,762.3906 696.3516,762.7188 Q695.7188,763.0469 695.2266,763.7969 Q694.7344,764.5469 694.7344,765.5781 L694.7344,766.6719 Q694.7344,767.9063 695.625,768.7266 Q696.5156,769.5469 698.1094,769.5469 Q699.0469,769.5469 699.7031,769.2969 Q700.0938,769.1406 700.5156,768.7031 Q700.7813,768.4375 700.9297,768.3594 Q701.0781,768.2813 701.2813,768.2813 Q701.6094,768.2813 701.8672,768.5391 Q702.125,768.7969 702.125,769.1406 Q702.125,769.4844 701.7813,769.8906 Q701.2813,770.4688 700.4844,770.7969 Q699.4063,771.25 698.1094,771.25 Q696.5938,771.25 695.3906,770.625 Q694.4063,770.125 693.7188,769.0547 Q693.0313,767.9844 693.0313,766.7031 L693.0313,765.5469 Q693.0313,764.2188 693.6484,763.0703 Q694.2656,761.9219 695.3594,761.3047 Q696.4531,760.6875 697.6875,760.6875 Q698.4219,760.6875 699.0703,760.8516 Q699.7188,761.0156 700.2656,761.375 Z "/><text fill="#000000" font-family="sans-serif" font-size="12" lengthAdjust="spacingAndGlyphs" textLength="79" x="711.5" y="770.4102">StartController</text><line style="stroke: #A80036; stroke-width: 1.5;" x1="683.5" x2="792.5" y1="781.5" y2="781.5"/><line style="stroke: #A80036; stroke-width: 1.5;" x1="683.5" x2="792.5" y1="789.5" y2="789.5"/><!--class mastermind.controllers.ControllersVisitor--><rect fill="#FEFECE" filter="url(#fuxc3uw44qujp)" height="48" id="mastermind.controllers.ControllersVisitor" style="stroke: #A80036; stroke-width: 1.5;" width="127" x="38.5" y="749.5"/><ellipse cx="53.5" cy="765.5" fill="#ADD1B2" rx="11" ry="11" style="stroke: #A80036; stroke-width: 1.0;"/><path d="M56.2656,761.375 Q56.4219,761.1563 56.6094,761.0469 Q56.7969,760.9375 57.0156,760.9375 Q57.3906,760.9375 57.625,761.1953 Q57.8594,761.4531 57.8594,762.0625 L57.8594,763.5156 Q57.8594,764.125 57.625,764.3906 Q57.3906,764.6563 57.0156,764.6563 Q56.6719,764.6563 56.4688,764.4531 Q56.2656,764.2656 56.1563,763.75 Q56.1094,763.3906 55.9219,763.2031 Q55.5938,762.8281 54.9844,762.6094 Q54.375,762.3906 53.75,762.3906 Q52.9844,762.3906 52.3516,762.7188 Q51.7188,763.0469 51.2266,763.7969 Q50.7344,764.5469 50.7344,765.5781 L50.7344,766.6719 Q50.7344,767.9063 51.625,768.7266 Q52.5156,769.5469 54.1094,769.5469 Q55.0469,769.5469 55.7031,769.2969 Q56.0938,769.1406 56.5156,768.7031 Q56.7813,768.4375 56.9297,768.3594 Q57.0781,768.2813 57.2813,768.2813 Q57.6094,768.2813 57.8672,768.5391 Q58.125,768.7969 58.125,769.1406 Q58.125,769.4844 57.7813,769.8906 Q57.2813,770.4688 56.4844,770.7969 Q55.4063,771.25 54.1094,771.25 Q52.5938,771.25 51.3906,770.625 Q50.4063,770.125 49.7188,769.0547 Q49.0313,767.9844 49.0313,766.7031 L49.0313,765.5469 Q49.0313,764.2188 49.6484,763.0703 Q50.2656,761.9219 51.3594,761.3047 Q52.4531,760.6875 53.6875,760.6875 Q54.4219,760.6875 55.0703,760.8516 Q55.7188,761.0156 56.2656,761.375 Z "/><text fill="#000000" font-family="sans-serif" font-size="12" lengthAdjust="spacingAndGlyphs" textLength="95" x="67.5" y="770.4102">ControllersVisitor</text><line style="stroke: #A80036; stroke-width: 1.5;" x1="39.5" x2="164.5" y1="781.5" y2="781.5"/><line style="stroke: #A80036; stroke-width: 1.5;" x1="39.5" x2="164.5" y1="789.5" y2="789.5"/><!--class mastermind.controllers.AcceptorController--><rect fill="#FEFECE" filter="url(#fuxc3uw44qujp)" height="48" id="mastermind.controllers.AcceptorController" style="stroke: #A80036; stroke-width: 1.5;" width="133" x="200.5" y="749.5"/><ellipse cx="215.5" cy="765.5" fill="#ADD1B2" rx="11" ry="11" style="stroke: #A80036; stroke-width: 1.0;"/><path d="M218.2656,761.375 Q218.4219,761.1563 218.6094,761.0469 Q218.7969,760.9375 219.0156,760.9375 Q219.3906,760.9375 219.625,761.1953 Q219.8594,761.4531 219.8594,762.0625 L219.8594,763.5156 Q219.8594,764.125 219.625,764.3906 Q219.3906,764.6563 219.0156,764.6563 Q218.6719,764.6563 218.4688,764.4531 Q218.2656,764.2656 218.1563,763.75 Q218.1094,763.3906 217.9219,763.2031 Q217.5938,762.8281 216.9844,762.6094 Q216.375,762.3906 215.75,762.3906 Q214.9844,762.3906 214.3516,762.7188 Q213.7188,763.0469 213.2266,763.7969 Q212.7344,764.5469 212.7344,765.5781 L212.7344,766.6719 Q212.7344,767.9063 213.625,768.7266 Q214.5156,769.5469 216.1094,769.5469 Q217.0469,769.5469 217.7031,769.2969 Q218.0938,769.1406 218.5156,768.7031 Q218.7813,768.4375 218.9297,768.3594 Q219.0781,768.2813 219.2813,768.2813 Q219.6094,768.2813 219.8672,768.5391 Q220.125,768.7969 220.125,769.1406 Q220.125,769.4844 219.7813,769.8906 Q219.2813,770.4688 218.4844,770.7969 Q217.4063,771.25 216.1094,771.25 Q214.5938,771.25 213.3906,770.625 Q212.4063,770.125 211.7188,769.0547 Q211.0313,767.9844 211.0313,766.7031 L211.0313,765.5469 Q211.0313,764.2188 211.6484,763.0703 Q212.2656,761.9219 213.3594,761.3047 Q214.4531,760.6875 215.6875,760.6875 Q216.4219,760.6875 217.0703,760.8516 Q217.7188,761.0156 218.2656,761.375 Z "/><text fill="#000000" font-family="sans-serif" font-size="12" lengthAdjust="spacingAndGlyphs" textLength="101" x="229.5" y="770.4102">AcceptorController</text><line style="stroke: #A80036; stroke-width: 1.5;" x1="201.5" x2="332.5" y1="781.5" y2="781.5"/><line style="stroke: #A80036; stroke-width: 1.5;" x1="201.5" x2="332.5" y1="789.5" y2="789.5"/><!--link mastermind.views.Color to mastermind.views.Color--><path d="M1146.68,990.929 C1166.42,993.324 1181.5,1009.848 1181.5,1040.5 C1181.5,1068.518 1168.9,1084.732 1151.65,1089.14 " fill="none" id="mastermind.views.Color-mastermind.views.Color" style="stroke: #A80036; stroke-width: 1.0; stroke-dasharray: 7.0,7.0;"/><polygon fill="#A80036" points="1146.68,1090.071,1156.2598,1092.3573,1151.5957,1089.1565,1154.7965,1084.4923,1146.68,1090.071" style="stroke: #A80036; stroke-width: 1.0;"/><!--link mastermind.utils.Command to mastermind.views.Command--><path d="M2090.81,180.67 C2080.49,194.71 2067.28,209.363 2052,219 C1953.53,281.121 1905.12,235.808 1797,279 C1734.85,303.828 1727.54,326.459 1667,355 C1610.8,381.498 1545.24,405.62 1493.51,423.181 " fill="none" id="mastermind.utils.Command-mastermind.views.Command" style="stroke: #A80036; stroke-width: 1.0;"/><polygon fill="none" points="2085.31,176.31,2102.28,163.62,2096.92,184.12,2085.31,176.31" style="stroke: #A80036; stroke-width: 1.0;"/><!--link mastermind.views.Command to mastermind.controllers.PlayController--><path d="M1299.39,483.727 C1288.83,486.357 1278.23,488.838 1268,491 C1092.55,528.099 1034.75,482.55 869,551 C855.998,556.37 675.687,691.852 665,701 C650.955,713.022 636.326,727.204 623.951,739.753 " fill="none" id="mastermind.views.Command-mastermind.controllers.PlayController" style="stroke: #A80036; stroke-width: 1.0;"/><polygon fill="#A80036" points="614.565,749.396,623.7087,745.7365,618.0524,745.813,617.9759,740.1566,614.565,749.396" style="stroke: #A80036; stroke-width: 1.0;"/><line style="stroke: #A80036; stroke-width: 1.0;" x1="618.0524" x2="623.6325" y1="745.813" y2="740.0805"/><polygon fill="#A80036" points="1312.22,480.456,1305.4173,478.0636,1300.5925,483.4229,1307.3952,485.8152,1312.22,480.456" style="stroke: #A80036; stroke-width: 1.0;"/><!--link mastermind.views.Command to mastermind.views.GameView--><path d="M1493.62,475.651 C1563.06,493.227 1660.76,520.102 1744,551 C1753.52,554.533 1763.41,558.62 1773.05,562.849 " fill="none" id="mastermind.views.Command-mastermind.views.GameView" style="stroke: #A80036; stroke-width: 1.0; stroke-dasharray: 7.0,7.0;"/><polygon fill="#A80036" points="1777.76,564.935,1771.156,557.6283,1773.1898,562.907,1767.9111,564.9407,1777.76,564.935" style="stroke: #A80036; stroke-width: 1.0;"/><!--link mastermind.views.Command to mastermind.views.Message--><path d="M1458.1,491.177 C1476.97,507.142 1495.87,527.548 1506,551 C1521.86,587.721 1529.96,608.973 1506,641 C1449.38,716.669 1358.62,625.331 1302,701 C1263.39,752.599 1282.04,784.724 1302,846 C1309.99,870.548 1322.41,894.574 1336.63,916.886 " fill="none" id="mastermind.views.Command-mastermind.views.Message" style="stroke: #A80036; stroke-width: 1.0; stroke-dasharray: 7.0,7.0;"/><polygon fill="#A80036" points="1339.5,921.326,1337.9768,911.5956,1336.7871,917.126,1331.2568,915.9362,1339.5,921.326" style="stroke: #A80036; stroke-width: 1.0;"/><!--link mastermind.views.Error to mastermind.views.Error--><path d="M1022.19,741.189 C1042.24,743.909 1057,754.68 1057,773.5 C1057,790.703 1044.67,801.18 1027.24,804.931 " fill="none" id="mastermind.views.Error-mastermind.views.Error" style="stroke: #A80036; stroke-width: 1.0; stroke-dasharray: 7.0,7.0;"/><polygon fill="#A80036" points="1022.19,805.811,1031.7425,808.2088,1027.116,804.9538,1030.371,800.3273,1022.19,805.811" style="stroke: #A80036; stroke-width: 1.0;"/><!--link mastermind.views.Error to mastermind.views.Color--><path d="M973.615,846.213 C985.852,869.542 999.772,896.08 1013.29,921.859 " fill="none" id="mastermind.views.Error-mastermind.views.Color" style="stroke: #A80036; stroke-width: 1.0; stroke-dasharray: 7.0,7.0;"/><polygon fill="#A80036" points="1015.64,926.325,1015.0018,916.4968,1013.3175,921.8971,1007.9172,920.2128,1015.64,926.325" style="stroke: #A80036; stroke-width: 1.0;"/><!--link mastermind.utils.WithConsoleView to mastermind.views.GameView--><path d="M2227.79,178.77 C2213.82,193.24 2196.44,208.686 2178,219 C2086.17,270.356 2026.27,207.589 1949,279 C1864.96,356.672 1845.12,501.93 1840.44,564.76 " fill="none" id="mastermind.utils.WithConsoleView-mastermind.views.GameView" style="stroke: #A80036; stroke-width: 1.0;"/><polygon fill="none" points="2222.85,173.8,2241.5,163.75,2233.19,183.24,2222.85,173.8" style="stroke: #A80036; stroke-width: 1.0;"/><!--link mastermind.views.GameView to mastermind.controllers.PlayController--><path d="M1783.27,627.044 C1770.67,632.623 1757.14,637.72 1744,641 C1511,699.167 884.401,603.355 665,701 C643.635,710.509 625.067,729.382 612.14,745.351 " fill="none" id="mastermind.views.GameView-mastermind.controllers.PlayController" style="stroke: #A80036; stroke-width: 1.0; stroke-dasharray: 7.0,7.0;"/><polygon fill="#A80036" points="608.977,749.341,617.702,744.7722,612.0827,745.4225,611.4324,739.8031,608.977,749.341" style="stroke: #A80036; stroke-width: 1.0;"/><!--link mastermind.views.GameView to mastermind.views.SecretCombinationView--><path d="M1813.21,627.17 C1788.58,655.987 1751.27,699.639 1723.97,731.581 " fill="none" id="mastermind.views.GameView-mastermind.views.SecretCombinationView" style="stroke: #A80036; stroke-width: 1.0; stroke-dasharray: 7.0,7.0;"/><polygon fill="#A80036" points="1720.7,735.417,1729.5886,731.1753,1723.949,731.6165,1723.5078,725.9769,1720.7,735.417" style="stroke: #A80036; stroke-width: 1.0;"/><!--link mastermind.views.GameView to mastermind.views.ProposedCombinationView--><path d="M1776.85,627.03 C1765.99,631.917 1754.74,636.761 1744,641 C1664.78,672.283 1639.43,665.514 1562,701 C1550.2,706.408 1538.1,712.704 1526.35,719.276 " fill="none" id="mastermind.views.GameView-mastermind.views.ProposedCombinationView" style="stroke: #A80036; stroke-width: 1.0; stroke-dasharray: 7.0,7.0;"/><polygon fill="#A80036" points="1521.69,721.907,1531.4939,720.9675,1526.0445,719.4497,1527.5623,714.0003,1521.69,721.907" style="stroke: #A80036; stroke-width: 1.0;"/><!--link mastermind.views.GameView to mastermind.views.ResultView--><path d="M1842.78,627.17 C1846.35,655.636 1851.73,698.577 1855.72,730.407 " fill="none" id="mastermind.views.GameView-mastermind.views.ResultView" style="stroke: #A80036; stroke-width: 1.0; stroke-dasharray: 7.0,7.0;"/><polygon fill="#A80036" points="1856.35,735.417,1859.2028,725.9904,1855.7298,730.4556,1851.2646,726.9826,1856.35,735.417" style="stroke: #A80036; stroke-width: 1.0;"/><!--link mastermind.views.GameView to mastermind.views.Message--><path d="M1775.63,627.036 C1765.12,631.822 1754.29,636.631 1744,641 C1676.01,669.871 1638.02,645.74 1589,701 C1544.86,750.754 1576.76,784.27 1552,846 C1544.66,864.31 1535.89,883.03 1526.57,901.265 " fill="none" id="mastermind.views.GameView-mastermind.views.Message" style="stroke: #A80036; stroke-width: 1.0; stroke-dasharray: 7.0,7.0;"/><polygon fill="#A80036" points="1524.19,905.89,1531.8673,899.7208,1526.4796,901.4451,1524.7554,896.0574,1524.19,905.89" style="stroke: #A80036; stroke-width: 1.0;"/><!--link mastermind.views.Message to mastermind.views.Message--><path d="M1546.59,992.763 C1566.99,998.221 1581.5,1014.134 1581.5,1040.5 C1581.5,1064.6 1569.37,1079.966 1551.71,1086.598 " fill="none" id="mastermind.views.Message-mastermind.views.Message" style="stroke: #A80036; stroke-width: 1.0; stroke-dasharray: 7.0,7.0;"/><polygon fill="#A80036" points="1546.59,1088.237,1556.379,1089.3212,1551.3548,1086.7216,1553.9544,1081.6975,1546.59,1088.237" style="stroke: #A80036; stroke-width: 1.0;"/><!--link mastermind.utils.Menu to mastermind.views.PlayMenu--><path d="M1975.66,179.81 C1963.8,194.15 1948.78,209.227 1932,219 C1826.16,280.659 1780.69,245.025 1663,279 C1514.41,321.896 1345.16,385.821 1251.03,422.763 " fill="none" id="mastermind.utils.Menu-mastermind.views.PlayMenu" style="stroke: #A80036; stroke-width: 1.0;"/><polygon fill="none" points="1970.31,175.28,1988.04,163.68,1981.41,183.81,1970.31,175.28" style="stroke: #A80036; stroke-width: 1.0;"/><!--link mastermind.views.PlayMenu to mastermind.controllers.PlayController--><path d="M1104.75,456.401 C1017.02,462.414 868.7,482.816 763,551 C686.204,600.539 630.322,697.239 606.199,744.773 " fill="none" id="mastermind.views.PlayMenu-mastermind.controllers.PlayController" style="stroke: #A80036; stroke-width: 1.0; stroke-dasharray: 7.0,7.0;"/><polygon fill="#A80036" points="603.827,749.492,611.4432,743.2475,606.0728,745.0247,604.2956,739.6543,603.827,749.492" style="stroke: #A80036; stroke-width: 1.0;"/><!--link mastermind.views.PlayMenu to mastermind.views.ProposeCommand--><path d="M1181.07,497.262 C1181.97,510.021 1182.98,524.187 1183.94,537.685 " fill="none" id="mastermind.views.PlayMenu-mastermind.views.ProposeCommand" style="stroke: #A80036; stroke-width: 1.0;"/><polygon fill="#A80036" points="1184.87,550.882,1188.2233,541.6216,1184.5163,545.8945,1180.2433,542.1875,1184.87,550.882" style="stroke: #A80036; stroke-width: 1.0;"/><line style="stroke: #A80036; stroke-width: 1.0;" x1="1184.5163" x2="1183.95" y1="545.8945" y2="537.915"/><polygon fill="#A80036" points="1180.15,484.248,1176.5843,490.5158,1180.9986,496.218,1184.5643,489.9501,1180.15,484.248" style="stroke: #A80036; stroke-width: 1.0;"/><!--link mastermind.views.PlayMenu to mastermind.views.UndoCommand--><path d="M1237.26,491.138 C1262.92,507.215 1293.37,526.3 1321.13,543.697 " fill="none" id="mastermind.views.PlayMenu-mastermind.views.UndoCommand" style="stroke: #A80036; stroke-width: 1.0;"/><polygon fill="#A80036" points="1332.44,550.78,1326.9437,542.6074,1328.2051,548.1219,1322.6907,549.3833,1332.44,550.78" style="stroke: #A80036; stroke-width: 1.0;"/><line style="stroke: #A80036; stroke-width: 1.0;" x1="1328.2051" x2="1321.42" y1="548.1219" y2="543.8765"/><polygon fill="#A80036" points="1225.99,484.075,1228.9515,490.6499,1236.1597,490.4451,1233.1982,483.8701,1225.99,484.075" style="stroke: #A80036; stroke-width: 1.0;"/><!--link mastermind.views.PlayMenu to mastermind.views.RedoCommand--><path d="M1123.3,491.624 C1100.25,507.476 1073.05,526.186 1048.17,543.301 " fill="none" id="mastermind.views.PlayMenu-mastermind.views.RedoCommand" style="stroke: #A80036; stroke-width: 1.0;"/><polygon fill="#A80036" points="1037.29,550.78,1046.9715,548.9723,1041.4087,547.9452,1042.4358,542.3824,1037.29,550.78" style="stroke: #A80036; stroke-width: 1.0;"/><line style="stroke: #A80036; stroke-width: 1.0;" x1="1041.4087" x2="1048" y1="547.9452" y2="543.4125"/><polygon fill="#A80036" points="1134.27,484.075,1127.0597,484.1814,1124.3847,490.8779,1131.595,490.7716,1134.27,484.075" style="stroke: #A80036; stroke-width: 1.0;"/><!--link mastermind.utils.WithConsoleView to mastermind.views.PlayView--><path d="M2229.87,178.93 C2215.81,194.05 2197.82,209.93 2178,219 C2093.39,257.724 1465.62,297.951 1239.16,311.351 " fill="none" id="mastermind.utils.WithConsoleView-mastermind.views.PlayView" style="stroke: #A80036; stroke-width: 1.0;"/><polygon fill="none" points="2224.61,174.31,2242.99,163.77,2235.19,183.47,2224.61,174.31" style="stroke: #A80036; stroke-width: 1.0;"/><!--link mastermind.views.PlayView to mastermind.controllers.PlayController--><path d="M1076.91,347.174 C952.189,393.495 721.611,485.332 664,551 C614.637,607.267 599.535,698.174 594.959,744.062 " fill="none" id="mastermind.views.PlayView-mastermind.controllers.PlayController" style="stroke: #A80036; stroke-width: 1.0; stroke-dasharray: 7.0,7.0;"/><polygon fill="#A80036" points="594.475,749.162,599.3081,740.5805,594.9478,744.1844,591.3439,739.8241,594.475,749.162" style="stroke: #A80036; stroke-width: 1.0;"/><!--link mastermind.views.PlayView to mastermind.views.PlayMenu--><path d="M1163.57,355.326 C1166.42,374.439 1169.88,397.588 1172.69,416.441 " fill="none" id="mastermind.views.PlayView-mastermind.views.PlayMenu" style="stroke: #A80036; stroke-width: 1.0; stroke-dasharray: 7.0,7.0;"/><polygon fill="#A80036" points="1173.47,421.638,1176.096,412.1457,1172.7311,416.6929,1168.1839,413.3279,1173.47,421.638" style="stroke: #A80036; stroke-width: 1.0;"/><!--link mastermind.views.Command to mastermind.views.ProposeCommand--><path d="M1329.5,502.202 C1305.41,517.998 1278.79,535.459 1255.19,550.934 " fill="none" id="mastermind.views.Command-mastermind.views.ProposeCommand" style="stroke: #A80036; stroke-width: 1.0;"/><polygon fill="none" points="1325.95,496.161,1346.51,491.046,1333.63,507.868,1325.95,496.161" style="stroke: #A80036; stroke-width: 1.0;"/><!--link mastermind.views.ProposeCommand to mastermind.views.ProposedCombinationView--><path d="M1252.02,641.06 C1286.33,664.671 1328.87,693.95 1365.08,718.876 " fill="none" id="mastermind.views.ProposeCommand-mastermind.views.ProposedCombinationView" style="stroke: #A80036; stroke-width: 1.0; stroke-dasharray: 7.0,7.0;"/><polygon fill="#A80036" points="1369.47,721.894,1364.3157,713.5016,1365.3484,719.0634,1359.7866,720.0961,1369.47,721.894" style="stroke: #A80036; stroke-width: 1.0;"/><!--link mastermind.views.ProposeCommand to mastermind.views.Error--><path d="M1124.74,641.06 C1095.01,661.757 1059.04,686.809 1026.51,709.467 " fill="none" id="mastermind.views.ProposeCommand-mastermind.views.Error" style="stroke: #A80036; stroke-width: 1.0; stroke-dasharray: 7.0,7.0;"/><polygon fill="#A80036" points="1022.15,712.504,1031.8215,710.6433,1026.2531,709.6467,1027.2498,704.0783,1022.15,712.504" style="stroke: #A80036; stroke-width: 1.0;"/><!--link mastermind.utils.WithConsoleView to mastermind.views.ProposedCombinationView--><path d="M2234.36,180.79 C2159.45,298.397 1945.42,633.474 1934,641 C1804.06,726.66 1737.04,652.96 1589,701 C1571.01,706.837 1552.44,714.516 1534.82,722.673 " fill="none" id="mastermind.utils.WithConsoleView-mastermind.views.ProposedCombinationView" style="stroke: #A80036; stroke-width: 1.0;"/><polygon fill="none" points="2228.69,176.67,2245.33,163.56,2240.49,184.19,2228.69,176.67" style="stroke: #A80036; stroke-width: 1.0;"/><!--link mastermind.views.ProposedCombinationView to mastermind.views.Message--><path d="M1443,825.281 C1443,847.14 1443,873.867 1443,900.932 " fill="none" id="mastermind.views.ProposedCombinationView-mastermind.views.Message" style="stroke: #A80036; stroke-width: 1.0; stroke-dasharray: 7.0,7.0;"/><polygon fill="#A80036" points="1443,905.989,1447,896.989,1443,900.989,1439,896.989,1443,905.989" style="stroke: #A80036; stroke-width: 1.0;"/><!--link mastermind.views.ProposedCombinationView to mastermind.views.Color--><path d="M1372.48,825.281 C1308.97,871.016 1215.86,938.063 1150.78,984.93 " fill="none" id="mastermind.views.ProposedCombinationView-mastermind.views.Color" style="stroke: #A80036; stroke-width: 1.0; stroke-dasharray: 7.0,7.0;"/><polygon fill="#A80036" points="1146.53,987.987,1156.1736,985.9867,1150.5914,985.0707,1151.5075,979.4885,1146.53,987.987" style="stroke: #A80036; stroke-width: 1.0;"/><!--link mastermind.views.Command to mastermind.views.RedoCommand--><path d="M1293.07,485.292 C1214.91,507.812 1116.96,536.651 1077,551 C1071.19,553.087 1065.23,555.326 1059.25,557.649 " fill="none" id="mastermind.views.Command-mastermind.views.RedoCommand" style="stroke: #A80036; stroke-width: 1.0;"/><polygon fill="none" points="1291.32,478.513,1312.47,479.715,1295.19,491.968,1291.32,478.513" style="stroke: #A80036; stroke-width: 1.0;"/><!--link mastermind.utils.WithConsoleView to mastermind.views.ResultView--><path d="M2261.84,183.95 C2263.51,278.084 2254.72,503.426 2143,641 C2085.28,712.079 1980.37,746.682 1916.06,761.951 " fill="none" id="mastermind.utils.WithConsoleView-mastermind.views.ResultView" style="stroke: #A80036; stroke-width: 1.0;"/><polygon fill="none" points="2254.84,183.9,2261.28,163.71,2268.83,183.51,2254.84,183.9" style="stroke: #A80036; stroke-width: 1.0;"/><!--link mastermind.views.ResultView to mastermind.views.Message--><path d="M1827.24,811.816 C1815.72,823.483 1802.36,835.926 1789,846 C1714.52,902.145 1621.93,953.074 1551.27,988.575 " fill="none" id="mastermind.views.ResultView-mastermind.views.Message" style="stroke: #A80036; stroke-width: 1.0; stroke-dasharray: 7.0,7.0;"/><polygon fill="#A80036" points="1546.65,990.891,1556.4881,990.43,1551.119,988.6486,1552.9003,983.2796,1546.65,990.891" style="stroke: #A80036; stroke-width: 1.0;"/><!--link mastermind.views.ResumeView to mastermind.controllers.ResumeController--><path d="M850.119,319.7 C768.728,325.923 650.836,347.199 575,415 C474.362,504.976 445.947,676.627 438.479,744.18 " fill="none" id="mastermind.views.ResumeView-mastermind.controllers.ResumeController" style="stroke: #A80036; stroke-width: 1.0; stroke-dasharray: 7.0,7.0;"/><polygon fill="#A80036" points="437.937,749.245,442.8734,740.7226,438.4699,744.2735,434.9189,739.87,437.937,749.245" style="stroke: #A80036; stroke-width: 1.0;"/><!--link mastermind.views.ResumeView to mastermind.views.Message--><path d="M915.461,355.031 C874.531,419.406 805.03,553.436 869,641 C920.739,711.822 980.644,657.844 1057,701 C1161.44,760.027 1262.75,850.553 1335.36,923.141 " fill="none" id="mastermind.views.ResumeView-mastermind.views.Message" style="stroke: #A80036; stroke-width: 1.0; stroke-dasharray: 7.0,7.0;"/><polygon fill="#A80036" points="1339.23,927.019,1335.7093,917.8209,1335.7002,923.4778,1330.0433,923.4686,1339.23,927.019" style="stroke: #A80036; stroke-width: 1.0;"/><!--link mastermind.utils.WithConsoleView to mastermind.views.SecretCombinationView--><path d="M2250.22,183.24 C2225.84,279.968 2153.05,516.9 2001,641 C1925.14,702.918 1877.25,658.56 1789,701 C1769.86,710.204 1750.49,723.054 1733.97,735.326 " fill="none" id="mastermind.utils.WithConsoleView-mastermind.views.SecretCombinationView" style="stroke: #A80036; stroke-width: 1.0;"/><polygon fill="none" points="2243.48,181.34,2255,163.55,2257.09,184.64,2243.48,181.34" style="stroke: #A80036; stroke-width: 1.0;"/><!--link mastermind.views.SecretCombinationView to mastermind.views.Message--><path d="M1654.54,811.626 C1627.31,840.95 1587.79,883.531 1550.25,923.969 " fill="none" id="mastermind.views.SecretCombinationView-mastermind.views.Message" style="stroke: #A80036; stroke-width: 1.0; stroke-dasharray: 7.0,7.0;"/><polygon fill="#A80036" points="1546.62,927.875,1555.6708,923.9914,1550.0181,924.2072,1549.8023,918.5544,1546.62,927.875" style="stroke: #A80036; stroke-width: 1.0;"/><!--link mastermind.utils.WithConsoleView to mastermind.views.StartView--><path d="M2228.35,178.97 C2214.37,193.6 2196.84,209.11 2178,219 C2061.08,280.385 1998.93,208.934 1887,279 C1774.96,349.135 1694.84,490.519 1661.37,557.794 " fill="none" id="mastermind.utils.WithConsoleView-mastermind.views.StartView" style="stroke: #A80036; stroke-width: 1.0;"/><polygon fill="none" points="2223.44,173.96,2242.01,163.75,2233.86,183.31,2223.44,173.96" style="stroke: #A80036; stroke-width: 1.0;"/><!--link mastermind.views.StartView to mastermind.controllers.StartController--><path d="M1561.22,626.635 C1543.21,632.167 1524.12,637.349 1506,641 C1212.05,700.234 1114.14,594.078 834,701 C808.188,710.852 783.295,729.754 765.328,745.65 " fill="none" id="mastermind.views.StartView-mastermind.controllers.StartController" style="stroke: #A80036; stroke-width: 1.0; stroke-dasharray: 7.0,7.0;"/><polygon fill="#A80036" points="761.373,749.199,770.7427,746.1644,765.0941,745.8593,765.3992,740.2107,761.373,749.199" style="stroke: #A80036; stroke-width: 1.0;"/><!--link mastermind.views.StartView to mastermind.views.SecretCombinationView--><path d="M1653.54,634.219 C1660.76,662.373 1670.68,701.055 1678.19,730.349 " fill="none" id="mastermind.views.StartView-mastermind.views.SecretCombinationView" style="stroke: #A80036; stroke-width: 1.0; stroke-dasharray: 7.0,7.0;"/><polygon fill="#A80036" points="1679.47,735.335,1681.1099,725.6236,1678.2284,730.4916,1673.3605,727.6101,1679.47,735.335" style="stroke: #A80036; stroke-width: 1.0;"/><!--link mastermind.views.StartView to mastermind.views.Message--><path d="M1561.41,630.951 C1552.21,634.462 1542.93,637.881 1534,641 C1446.39,671.597 1389.4,626.545 1334,701 C1290.54,759.409 1310.25,835.83 1344.15,901.277 " fill="none" id="mastermind.views.StartView-mastermind.views.Message" style="stroke: #A80036; stroke-width: 1.0; stroke-dasharray: 7.0,7.0;"/><polygon fill="#A80036" points="1346.61,905.969,1345.9693,896.141,1344.2864,901.5417,1338.8857,899.8588,1346.61,905.969" style="stroke: #A80036; stroke-width: 1.0;"/><!--link mastermind.views.Command to mastermind.views.UndoCommand--><path d="M1403,511.09 C1403,524.372 1403,538.314 1403,550.934 " fill="none" id="mastermind.views.Command-mastermind.views.UndoCommand" style="stroke: #A80036; stroke-width: 1.0;"/><polygon fill="none" points="1396,511.046,1403,491.046,1410,511.046,1396,511.046" style="stroke: #A80036; stroke-width: 1.0;"/><!--link mastermind.controllers.ControllersVisitor to mastermind.views.View--><path d="M129.174,732.821 C194.57,640.189 370.253,407.805 571,279 C658.353,222.952 771.655,184.99 850.356,163.18 " fill="none" id="mastermind.controllers.ControllersVisitor-mastermind.views.View" style="stroke: #A80036; stroke-width: 1.0;"/><polygon fill="none" points="134.779,737.02,117.591,749.411,123.3,729.006,134.779,737.02" style="stroke: #A80036; stroke-width: 1.0;"/><!--link mastermind.views.View to mastermind.views.PlayView--><path d="M1047.68,225.53 C1066.63,241.069 1085.72,256.723 1102.56,270.538 " fill="none" id="mastermind.views.View-mastermind.views.PlayView" style="stroke: #A80036; stroke-width: 1.0;"/><polygon fill="#A80036" points="1112.74,278.885,1108.3173,270.085,1108.8738,275.7144,1103.2444,276.271,1112.74,278.885" style="stroke: #A80036; stroke-width: 1.0;"/><line style="stroke: #A80036; stroke-width: 1.0;" x1="1108.8738" x2="1102.695" y1="275.7144" y2="270.641"/><polygon fill="#A80036" points="1037.55,217.222,1039.653,224.1196,1046.8289,224.8313,1044.7259,217.9337,1037.55,217.222" style="stroke: #A80036; stroke-width: 1.0;"/><!--link mastermind.views.View to mastermind.views.StartView--><path d="M1050.31,173.17 C1171.94,214.531 1372.18,295.15 1511,415 C1554.67,452.705 1592.43,507.23 1616.44,546.376 " fill="none" id="mastermind.views.View-mastermind.views.StartView" style="stroke: #A80036; stroke-width: 1.0;"/><polygon fill="#A80036" points="1623.29,557.742,1622.0729,547.9686,1620.7103,553.4589,1615.22,552.0962,1623.29,557.742" style="stroke: #A80036; stroke-width: 1.0;"/><line style="stroke: #A80036; stroke-width: 1.0;" x1="1620.7103" x2="1616.58" y1="553.4589" y2="546.608"/><polygon fill="#A80036" points="1037.7,168.93,1042.1133,174.6328,1049.0749,172.7524,1044.6616,167.0496,1037.7,168.93" style="stroke: #A80036; stroke-width: 1.0;"/><!--link mastermind.views.View to mastermind.views.ResumeView--><path d="M942.432,232.227 C942.236,243.69 942.042,255.062 941.862,265.559 " fill="none" id="mastermind.views.View-mastermind.views.ResumeView" style="stroke: #A80036; stroke-width: 1.0;"/><polygon fill="#A80036" points="941.636,278.788,945.7887,269.8574,941.7212,273.7887,937.7899,269.7212,941.636,278.788" style="stroke: #A80036; stroke-width: 1.0;"/><line style="stroke: #A80036; stroke-width: 1.0;" x1="941.7212" x2="941.8585" y1="273.7887" y2="265.7895"/><polygon fill="#A80036" points="942.658,219.01,938.5564,224.941,942.4536,231.0083,946.5552,225.0773,942.658,219.01" style="stroke: #A80036; stroke-width: 1.0;"/><!--link mastermind.views.View to mastermind.controllers.AcceptorController--><path d="M850.282,184.89 C756.292,232.556 611.088,315.085 508,415 C400.089,519.59 313.209,680.012 280.744,744.365 " fill="none" id="mastermind.views.View-mastermind.controllers.AcceptorController" style="stroke: #A80036; stroke-width: 1.0; stroke-dasharray: 7.0,7.0;"/><polygon fill="#A80036" points="278.318,749.196,285.9318,742.9486,280.5621,744.7279,278.7828,739.3581,278.318,749.196" style="stroke: #A80036; stroke-width: 1.0;"/><!--
@startuml

class  mastermind.views.Color{
+ {static} RED: Color
+ {static} BLUE: Color
+ {static} YELLOW: Color
+ {static} GREEN: Color
+ {static} ORANGE: Color
+ {static} PURPLE: Color
- initial: char
- Color(char)
+ {static} valueOf(String): Color
+ {static} getInstance(char): Color
+ {static} getInstance(int): Color
+ getInitial(): char
+ {static} allInitials(): String
}
mastermind.views.Color ..> mastermind.views.Color

class  mastermind.views.Command{
# playController: PlayController
# Command(PlayController, String)
}
mastermind.utils.Command <|-down- mastermind.views.Command
mastermind.views.Command *-down-> mastermind.controllers.PlayController
mastermind.views.Command ..> mastermind.views.GameView
mastermind.views.Command..> mastermind.views.Message

class  mastermind.views.Error{
+ {static} DUPLICATED: Error
+ {static} WRONG_CHARACTERS: Error
+ {static} WRONG_LENGTH: Error
- message: String
- Error(String)
+ {static} valueOf(String): Error
+ getMessage(): String
}
mastermind.views.Error ..> mastermind.views.Error
 mastermind.views.Error ..>  mastermind.views.Color

class  mastermind.views.GameView{
+ GameView(PlayController)
}
mastermind.utils.WithConsoleView <|-down- mastermind.views.GameView
mastermind.views.GameView ..> mastermind.controllers.PlayController
mastermind.views.GameView..> mastermind.views.SecretCombinationView
mastermind.views.GameView..>  mastermind.views.ProposedCombinationView
mastermind.views.GameView..>  mastermind.views.ResultView
mastermind.views.GameView..> mastermind.views.Message

class  mastermind.views.Message{
+ {static} TURN: Message
+ {static} SECRET: Message
+ {static} RESUME: Message
+ {static} RESULT: Message
+ {static} PROPOSED_COMBINATION: Message
+ {static} TITLE: Message
+ {static} WINNER: Message
+ {static} LOOSER: Message
+ {static} OPTION: Message
+ {static} PROPOSE_COMMAND: Message
+ {static} UNDO_COMMAND: Message
+ {static} REDO_COMMAND: Message
- message: String
- Message(String)
+ {static} valueOf(String): Message
+ getMessage(): String
}
mastermind.views.Message ..> mastermind.views.Message

class  mastermind.views.PlayMenu{
+ PlayMenu(PlayController)
}
mastermind.utils.Menu <|-down- mastermind.views.PlayMenu
mastermind.views.PlayMenu ..> mastermind.controllers.PlayController
mastermind.views.PlayMenu *-down-> mastermind.views.ProposeCommand
mastermind.views.PlayMenu *-down-> mastermind.views.UndoCommand
mastermind.views.PlayMenu *-down-> mastermind.views.RedoCommand

class  mastermind.views.PlayView{
~ PlayView()
~ interact(PlayController): void
}
mastermind.utils.WithConsoleView <|-down- mastermind.views.PlayView
mastermind.views.PlayView ..> mastermind.controllers.PlayController
mastermind.views.PlayView ..> mastermind.views.PlayMenu

class  mastermind.views.ProposeCommand{
~ ProposeCommand(PlayController)
# execute(): void
# isActive(): boolean
}
mastermind.views.Command <|-down- mastermind.views.ProposeCommand
mastermind.views.ProposeCommand ..> mastermind.views.ProposedCombinationView
mastermind.views.ProposeCommand ..> mastermind.views.Error

class  mastermind.views.ProposedCombinationView{
- {static} ERROR_CODE: int
~ ProposedCombinationView()
~ write(int[]): void
~ read(): int[]
}
mastermind.utils.WithConsoleView <|-down- mastermind.views.ProposedCombinationView
mastermind.views.ProposedCombinationView..> mastermind.views.Message
 mastermind.views.ProposedCombinationView ..>  mastermind.views.Color

class  mastermind.views.RedoCommand{
~ RedoCommand(PlayController)
# execute(): void
# isActive(): boolean
}
mastermind.views.Command <|-down- mastermind.views.RedoCommand

class  mastermind.views.ResultView{
~ ResultView()
~ writeln(int[]): void
}
mastermind.utils.WithConsoleView <|-down- mastermind.views.ResultView
mastermind.views.ResultView..> mastermind.views.Message

class  mastermind.views.ResumeView{
~ ResumeView()
~ interact(ResumeController): void
}
mastermind.views.ResumeView ..> mastermind.controllers.ResumeController
mastermind.views.ResumeView..> mastermind.views.Message

class  mastermind.views.SecretCombinationView{
~ SecretCombinationView()
~ writeln(int): void
}
mastermind.utils.WithConsoleView <|-down- mastermind.views.SecretCombinationView
mastermind.views.SecretCombinationView..> mastermind.views.Message

class  mastermind.views.StartView{
~ StartView()
~ interact(StartController): void
}
mastermind.utils.WithConsoleView <|-down- mastermind.views.StartView
mastermind.views.StartView ..> mastermind.controllers.StartController
mastermind.views.StartView ..> mastermind.views.SecretCombinationView
mastermind.views.StartView..> mastermind.views.Message

class  mastermind.views.UndoCommand{
~ UndoCommand(PlayController)
# execute(): void
# isActive(): boolean
}
mastermind.views.Command <|-down- mastermind.views.UndoCommand

class  mastermind.views.View{
- startView: StartView
- playView: PlayView
- resumeView: ResumeView
+ View()
+ visit(ResumeController): void
+ visit(PlayController): void
+ visit(StartController): void
+ interact(AcceptorController): void
}
mastermind.controllers.ControllersVisitor <|-down- mastermind.views.View
mastermind.views.View *-down-> mastermind.views.PlayView
mastermind.views.View *-down-> mastermind.views.StartView
mastermind.views.View *-down-> mastermind.views.ResumeView
mastermind.views.View ..> mastermind.controllers.AcceptorController

@enduml

PlantUML version 1.2019.05(Sat Apr 20 18:45:36 CEST 2019)
(GPL source distribution)
Java Runtime: OpenJDK Runtime Environment
JVM: OpenJDK 64-Bit Server VM
Java Version: 1.8.0_222-b10
Operating System: Windows 10
OS Version: 10.0
Default Encoding: windows-1252
Language: es
Country: ES
--></g></svg>