<?xml version="1.0" encoding="UTF-8" standalone="no"?><svg xmlns="http://www.w3.org/2000/svg" xmlns:xlink="http://www.w3.org/1999/xlink" contentScriptType="application/ecmascript" contentStyleType="text/css" height="1575px" preserveAspectRatio="none" style="width:1161px;height:1575px;" version="1.1" viewBox="0 0 1161 1575" width="1161px" zoomAndPan="magnify"><defs><filter height="300%" id="f5e23bmbe3pof" width="300%" x="-1" y="-1"><feGaussianBlur result="blurOut" stdDeviation="2.0"/><feColorMatrix in="blurOut" result="blurOut2" type="matrix" values="0 0 0 0 0 0 0 0 0 0 0 0 0 0 0 0 0 0 .4 0"/><feOffset dx="4.0" dy="4.0" in="blurOut2" result="blurOut3"/><feBlend in="SourceGraphic" in2="blurOut3" mode="normal"/></filter></defs><g><!--cluster mastermind.models--><polygon fill="#FFFFFF" filter="url(#f5e23bmbe3pof)" points="32.615,24,175.615,24,182.615,47.6094,910.615,47.6094,910.615,1563,32.615,1563,32.615,24" style="stroke: #000000; stroke-width: 1.5;"/><line style="stroke: #000000; stroke-width: 1.5;" x1="32.615" x2="182.615" y1="47.6094" y2="47.6094"/><text fill="#000000" font-family="sans-serif" font-size="14" font-weight="bold" lengthAdjust="spacingAndGlyphs" textLength="137" x="36.615" y="40.5332">mastermind.models</text><!--cluster java.util--><polygon fill="#FFFFFF" filter="url(#f5e23bmbe3pof)" points="940.615,1230.5,1001.615,1230.5,1008.615,1254.1094,1139.61,1254.1094,1139.61,1330.5,940.615,1330.5,940.615,1230.5" style="stroke: #000000; stroke-width: 1.5;"/><line style="stroke: #000000; stroke-width: 1.5;" x1="940.615" x2="1008.615" y1="1254.1094" y2="1254.1094"/><text fill="#000000" font-family="sans-serif" font-size="14" font-weight="bold" lengthAdjust="spacingAndGlyphs" textLength="55" x="944.615" y="1247.0332">java.util</text><!--cluster java.lang--><polygon fill="#FFFFFF" filter="url(#f5e23bmbe3pof)" points="934.615,436,1003.615,436,1010.615,459.6094,1034.61,459.6094,1034.61,536,934.615,536,934.615,436" style="stroke: #000000; stroke-width: 1.5;"/><line style="stroke: #000000; stroke-width: 1.5;" x1="934.615" x2="1010.615" y1="459.6094" y2="459.6094"/><text fill="#000000" font-family="sans-serif" font-size="14" font-weight="bold" lengthAdjust="spacingAndGlyphs" textLength="63" x="938.615" y="452.5332">java.lang</text><!--class mastermind.models.Color--><rect fill="#FEFECE" filter="url(#f5e23bmbe3pof)" height="186.3594" id="mastermind.models.Color" style="stroke: #A80036; stroke-width: 1.5;" width="132" x="122.615" y="965"/><ellipse cx="169.365" cy="981" fill="#ADD1B2" rx="11" ry="11" style="stroke: #A80036; stroke-width: 1.0;"/><path d="M172.1306,976.875 Q172.2869,976.6563 172.4744,976.5469 Q172.6619,976.4375 172.8806,976.4375 Q173.2556,976.4375 173.49,976.6953 Q173.7244,976.9531 173.7244,977.5625 L173.7244,979.0156 Q173.7244,979.625 173.49,979.8906 Q173.2556,980.1563 172.8806,980.1563 Q172.5369,980.1563 172.3338,979.9531 Q172.1306,979.7656 172.0213,979.25 Q171.9744,978.8906 171.7869,978.7031 Q171.4588,978.3281 170.8494,978.1094 Q170.24,977.8906 169.615,977.8906 Q168.8494,977.8906 168.2166,978.2188 Q167.5838,978.5469 167.0916,979.2969 Q166.5994,980.0469 166.5994,981.0781 L166.5994,982.1719 Q166.5994,983.4063 167.49,984.2266 Q168.3806,985.0469 169.9744,985.0469 Q170.9119,985.0469 171.5681,984.7969 Q171.9588,984.6406 172.3806,984.2031 Q172.6463,983.9375 172.7947,983.8594 Q172.9431,983.7813 173.1463,983.7813 Q173.4744,983.7813 173.7322,984.0391 Q173.99,984.2969 173.99,984.6406 Q173.99,984.9844 173.6463,985.3906 Q173.1463,985.9688 172.3494,986.2969 Q171.2713,986.75 169.9744,986.75 Q168.4588,986.75 167.2556,986.125 Q166.2713,985.625 165.5838,984.5547 Q164.8963,983.4844 164.8963,982.2031 L164.8963,981.0469 Q164.8963,979.7188 165.5134,978.5703 Q166.1306,977.4219 167.2244,976.8047 Q168.3181,976.1875 169.5525,976.1875 Q170.2869,976.1875 170.9353,976.3516 Q171.5838,976.5156 172.1306,976.875 Z "/><text fill="#000000" font-family="sans-serif" font-size="12" lengthAdjust="spacingAndGlyphs" textLength="30" x="189.865" y="985.9102">Color</text><line style="stroke: #A80036; stroke-width: 1.5;" x1="123.615" x2="253.615" y1="997" y2="997"/><ellipse cx="133.615" cy="1009.418" fill="none" rx="3" ry="3" style="stroke: #038048; stroke-width: 1.0;"/><text fill="#000000" font-family="sans-serif" font-size="11" lengthAdjust="spacingAndGlyphs" text-decoration="underline" textLength="51" x="142.615" y="1012.4189">RED: Color</text><ellipse cx="133.615" cy="1023.2539" fill="none" rx="3" ry="3" style="stroke: #038048; stroke-width: 1.0;"/><text fill="#000000" font-family="sans-serif" font-size="11" lengthAdjust="spacingAndGlyphs" text-decoration="underline" textLength="57" x="142.615" y="1026.2549">BLUE: Color</text><ellipse cx="133.615" cy="1037.0898" fill="none" rx="3" ry="3" style="stroke: #038048; stroke-width: 1.0;"/><text fill="#000000" font-family="sans-serif" font-size="11" lengthAdjust="spacingAndGlyphs" text-decoration="underline" textLength="75" x="142.615" y="1040.0908">YELLOW: Color</text><ellipse cx="133.615" cy="1050.9258" fill="none" rx="3" ry="3" style="stroke: #038048; stroke-width: 1.0;"/><text fill="#000000" font-family="sans-serif" font-size="11" lengthAdjust="spacingAndGlyphs" text-decoration="underline" textLength="65" x="142.615" y="1053.9268">GREEN: Color</text><ellipse cx="133.615" cy="1064.7617" fill="none" rx="3" ry="3" style="stroke: #038048; stroke-width: 1.0;"/><text fill="#000000" font-family="sans-serif" font-size="11" lengthAdjust="spacingAndGlyphs" text-decoration="underline" textLength="75" x="142.615" y="1067.7627">ORANGE: Color</text><ellipse cx="133.615" cy="1078.5977" fill="none" rx="3" ry="3" style="stroke: #038048; stroke-width: 1.0;"/><text fill="#000000" font-family="sans-serif" font-size="11" lengthAdjust="spacingAndGlyphs" text-decoration="underline" textLength="69" x="142.615" y="1081.5986">PURPLE: Color</text><line style="stroke: #A80036; stroke-width: 1.5;" x1="123.615" x2="253.615" y1="1088.0156" y2="1088.0156"/><rect fill="#F24D5C" height="6" style="stroke: #C82930; stroke-width: 1.0;" width="6" x="130.615" y="1097.4336"/><text fill="#000000" font-family="sans-serif" font-size="11" lengthAdjust="spacingAndGlyphs" textLength="33" x="142.615" y="1103.4346">Color()</text><ellipse cx="133.615" cy="1114.2695" fill="#84BE84" rx="3" ry="3" style="stroke: #038048; stroke-width: 1.0;"/><text fill="#000000" font-family="sans-serif" font-size="11" lengthAdjust="spacingAndGlyphs" text-decoration="underline" textLength="105" x="142.615" y="1117.2705">valueOf(String): Color</text><polygon fill="#4177AF" points="133.615,1124.1055,129.615,1130.1055,137.615,1130.1055" style="stroke: #1963A0; stroke-width: 1.0;"/><text fill="#000000" font-family="sans-serif" font-size="11" lengthAdjust="spacingAndGlyphs" text-decoration="underline" textLength="54" x="142.615" y="1131.1064">length(): int</text><polygon fill="#4177AF" points="133.615,1137.9414,129.615,1143.9414,137.615,1143.9414" style="stroke: #1963A0; stroke-width: 1.0;"/><text fill="#000000" font-family="sans-serif" font-size="11" lengthAdjust="spacingAndGlyphs" text-decoration="underline" textLength="106" x="142.615" y="1144.9424">getInstance(int): Color</text><!--class mastermind.models.Combination--><rect fill="#FEFECE" filter="url(#f5e23bmbe3pof)" height="103.3438" id="mastermind.models.Combination" style="stroke: #A80036; stroke-width: 1.5;" width="116" x="130.615" y="725.5"/><ellipse cx="151.465" cy="741.5" fill="#ADD1B2" rx="11" ry="11" style="stroke: #A80036; stroke-width: 1.0;"/><path d="M154.2306,737.375 Q154.3869,737.1563 154.5744,737.0469 Q154.7619,736.9375 154.9806,736.9375 Q155.3556,736.9375 155.59,737.1953 Q155.8244,737.4531 155.8244,738.0625 L155.8244,739.5156 Q155.8244,740.125 155.59,740.3906 Q155.3556,740.6563 154.9806,740.6563 Q154.6369,740.6563 154.4338,740.4531 Q154.2306,740.2656 154.1213,739.75 Q154.0744,739.3906 153.8869,739.2031 Q153.5588,738.8281 152.9494,738.6094 Q152.34,738.3906 151.715,738.3906 Q150.9494,738.3906 150.3166,738.7188 Q149.6838,739.0469 149.1916,739.7969 Q148.6994,740.5469 148.6994,741.5781 L148.6994,742.6719 Q148.6994,743.9063 149.59,744.7266 Q150.4806,745.5469 152.0744,745.5469 Q153.0119,745.5469 153.6681,745.2969 Q154.0588,745.1406 154.4806,744.7031 Q154.7463,744.4375 154.8947,744.3594 Q155.0431,744.2813 155.2463,744.2813 Q155.5744,744.2813 155.8322,744.5391 Q156.09,744.7969 156.09,745.1406 Q156.09,745.4844 155.7463,745.8906 Q155.2463,746.4688 154.4494,746.7969 Q153.3713,747.25 152.0744,747.25 Q150.5588,747.25 149.3556,746.625 Q148.3713,746.125 147.6838,745.0547 Q146.9963,743.9844 146.9963,742.7031 L146.9963,741.5469 Q146.9963,740.2188 147.6134,739.0703 Q148.2306,737.9219 149.3244,737.3047 Q150.4181,736.6875 151.6525,736.6875 Q152.3869,736.6875 153.0353,736.8516 Q153.6838,737.0156 154.2306,737.375 Z "/><text fill="#000000" font-family="sans-serif" font-size="12" lengthAdjust="spacingAndGlyphs" textLength="71" x="166.765" y="746.4102">Combination</text><line style="stroke: #A80036; stroke-width: 1.5;" x1="131.615" x2="245.615" y1="757.5" y2="757.5"/><rect fill="none" height="6" style="stroke: #C82930; stroke-width: 1.0;" width="6" x="138.615" y="766.918"/><text fill="#000000" font-family="sans-serif" font-size="11" lengthAdjust="spacingAndGlyphs" text-decoration="underline" textLength="49" x="150.615" y="772.9189">WIDTH: int</text><polygon fill="none" points="141.615,778.7539,145.615,782.7539,141.615,786.7539,137.615,782.7539" style="stroke: #B38D22; stroke-width: 1.0;"/><text fill="#000000" font-family="sans-serif" font-size="11" lengthAdjust="spacingAndGlyphs" textLength="90" x="150.615" y="786.7549">colors: List&lt;Color&gt;</text><line style="stroke: #A80036; stroke-width: 1.5;" x1="131.615" x2="245.615" y1="793.1719" y2="793.1719"/><polygon fill="#FFFF44" points="141.615,800.5898,145.615,804.5898,141.615,808.5898,137.615,804.5898" style="stroke: #B38D22; stroke-width: 1.0;"/><text fill="#000000" font-family="sans-serif" font-size="11" lengthAdjust="spacingAndGlyphs" textLength="66" x="150.615" y="808.5908">Combination()</text><ellipse cx="141.615" cy="819.4258" fill="#84BE84" rx="3" ry="3" style="stroke: #038048; stroke-width: 1.0;"/><text fill="#000000" font-family="sans-serif" font-size="11" lengthAdjust="spacingAndGlyphs" text-decoration="underline" textLength="67" x="150.615" y="822.4268">getWidth(): int</text><!--class mastermind.models.Error--><rect fill="#FEFECE" filter="url(#f5e23bmbe3pof)" height="117.1797" id="mastermind.models.Error" style="stroke: #A80036; stroke-width: 1.5;" width="172" x="302.615" y="1430"/><ellipse cx="370.865" cy="1446" fill="#ADD1B2" rx="11" ry="11" style="stroke: #A80036; stroke-width: 1.0;"/><path d="M373.6306,1441.875 Q373.7869,1441.6563 373.9744,1441.5469 Q374.1619,1441.4375 374.3806,1441.4375 Q374.7556,1441.4375 374.99,1441.6953 Q375.2244,1441.9531 375.2244,1442.5625 L375.2244,1444.0156 Q375.2244,1444.625 374.99,1444.8906 Q374.7556,1445.1563 374.3806,1445.1563 Q374.0369,1445.1563 373.8338,1444.9531 Q373.6306,1444.7656 373.5213,1444.25 Q373.4744,1443.8906 373.2869,1443.7031 Q372.9588,1443.3281 372.3494,1443.1094 Q371.74,1442.8906 371.115,1442.8906 Q370.3494,1442.8906 369.7166,1443.2188 Q369.0838,1443.5469 368.5916,1444.2969 Q368.0994,1445.0469 368.0994,1446.0781 L368.0994,1447.1719 Q368.0994,1448.4063 368.99,1449.2266 Q369.8806,1450.0469 371.4744,1450.0469 Q372.4119,1450.0469 373.0681,1449.7969 Q373.4588,1449.6406 373.8806,1449.2031 Q374.1463,1448.9375 374.2947,1448.8594 Q374.4431,1448.7813 374.6463,1448.7813 Q374.9744,1448.7813 375.2322,1449.0391 Q375.49,1449.2969 375.49,1449.6406 Q375.49,1449.9844 375.1463,1450.3906 Q374.6463,1450.9688 373.8494,1451.2969 Q372.7713,1451.75 371.4744,1451.75 Q369.9588,1451.75 368.7556,1451.125 Q367.7713,1450.625 367.0838,1449.5547 Q366.3963,1448.4844 366.3963,1447.2031 L366.3963,1446.0469 Q366.3963,1444.7188 367.0134,1443.5703 Q367.6306,1442.4219 368.7244,1441.8047 Q369.8181,1441.1875 371.0525,1441.1875 Q371.7869,1441.1875 372.4353,1441.3516 Q373.0838,1441.5156 373.6306,1441.875 Z "/><text fill="#000000" font-family="sans-serif" font-size="12" lengthAdjust="spacingAndGlyphs" textLength="27" x="391.365" y="1450.9102">Error</text><line style="stroke: #A80036; stroke-width: 1.5;" x1="303.615" x2="473.615" y1="1462" y2="1462"/><ellipse cx="313.615" cy="1474.418" fill="none" rx="3" ry="3" style="stroke: #038048; stroke-width: 1.0;"/><text fill="#000000" font-family="sans-serif" font-size="11" lengthAdjust="spacingAndGlyphs" text-decoration="underline" textLength="92" x="322.615" y="1477.4189">DUPLICATED: Error</text><ellipse cx="313.615" cy="1488.2539" fill="none" rx="3" ry="3" style="stroke: #038048; stroke-width: 1.0;"/><text fill="#000000" font-family="sans-serif" font-size="11" lengthAdjust="spacingAndGlyphs" text-decoration="underline" textLength="146" x="322.615" y="1491.2549">WRONG_CHARACTERS: Error</text><ellipse cx="313.615" cy="1502.0898" fill="none" rx="3" ry="3" style="stroke: #038048; stroke-width: 1.0;"/><text fill="#000000" font-family="sans-serif" font-size="11" lengthAdjust="spacingAndGlyphs" text-decoration="underline" textLength="116" x="322.615" y="1505.0908">WRONG_LENGTH: Error</text><line style="stroke: #A80036; stroke-width: 1.5;" x1="303.615" x2="473.615" y1="1511.5078" y2="1511.5078"/><rect fill="#F24D5C" height="6" style="stroke: #C82930; stroke-width: 1.0;" width="6" x="310.615" y="1520.9258"/><text fill="#000000" font-family="sans-serif" font-size="11" lengthAdjust="spacingAndGlyphs" textLength="32" x="322.615" y="1526.9268">Error()</text><ellipse cx="313.615" cy="1537.7617" fill="#84BE84" rx="3" ry="3" style="stroke: #038048; stroke-width: 1.0;"/><text fill="#000000" font-family="sans-serif" font-size="11" lengthAdjust="spacingAndGlyphs" text-decoration="underline" textLength="104" x="322.615" y="1540.7627">valueOf(String): Error</text><!--class mastermind.models.Game--><rect fill="#FEFECE" filter="url(#f5e23bmbe3pof)" height="255.5391" id="mastermind.models.Game" style="stroke: #A80036; stroke-width: 1.5;" width="275" x="476.115" y="649"/><ellipse cx="592.365" cy="665" fill="#ADD1B2" rx="11" ry="11" style="stroke: #A80036; stroke-width: 1.0;"/><path d="M595.1306,660.875 Q595.2869,660.6563 595.4744,660.5469 Q595.6619,660.4375 595.8806,660.4375 Q596.2556,660.4375 596.49,660.6953 Q596.7244,660.9531 596.7244,661.5625 L596.7244,663.0156 Q596.7244,663.625 596.49,663.8906 Q596.2556,664.1563 595.8806,664.1563 Q595.5369,664.1563 595.3338,663.9531 Q595.1306,663.7656 595.0213,663.25 Q594.9744,662.8906 594.7869,662.7031 Q594.4588,662.3281 593.8494,662.1094 Q593.24,661.8906 592.615,661.8906 Q591.8494,661.8906 591.2166,662.2188 Q590.5838,662.5469 590.0916,663.2969 Q589.5994,664.0469 589.5994,665.0781 L589.5994,666.1719 Q589.5994,667.4063 590.49,668.2266 Q591.3806,669.0469 592.9744,669.0469 Q593.9119,669.0469 594.5681,668.7969 Q594.9588,668.6406 595.3806,668.2031 Q595.6463,667.9375 595.7947,667.8594 Q595.9431,667.7813 596.1463,667.7813 Q596.4744,667.7813 596.7322,668.0391 Q596.99,668.2969 596.99,668.6406 Q596.99,668.9844 596.6463,669.3906 Q596.1463,669.9688 595.3494,670.2969 Q594.2713,670.75 592.9744,670.75 Q591.4588,670.75 590.2556,670.125 Q589.2713,669.625 588.5838,668.5547 Q587.8963,667.4844 587.8963,666.2031 L587.8963,665.0469 Q587.8963,663.7188 588.5134,662.5703 Q589.1306,661.4219 590.2244,660.8047 Q591.3181,660.1875 592.5525,660.1875 Q593.2869,660.1875 593.9353,660.3516 Q594.5838,660.5156 595.1306,660.875 Z "/><text fill="#000000" font-family="sans-serif" font-size="12" lengthAdjust="spacingAndGlyphs" textLength="34" x="612.865" y="669.9102">Game</text><line style="stroke: #A80036; stroke-width: 1.5;" x1="477.115" x2="750.115" y1="681" y2="681"/><rect fill="none" height="6" style="stroke: #C82930; stroke-width: 1.0;" width="6" x="484.115" y="690.418"/><text fill="#000000" font-family="sans-serif" font-size="11" lengthAdjust="spacingAndGlyphs" text-decoration="underline" textLength="75" x="496.115" y="696.4189">MAX_LONG: int</text><rect fill="none" height="6" style="stroke: #C82930; stroke-width: 1.0;" width="6" x="484.115" y="704.2539"/><text fill="#000000" font-family="sans-serif" font-size="11" lengthAdjust="spacingAndGlyphs" textLength="185" x="496.115" y="710.2549">secretCombination: SecretCombination</text><rect fill="none" height="6" style="stroke: #C82930; stroke-width: 1.0;" width="6" x="484.115" y="718.0898"/><text fill="#000000" font-family="sans-serif" font-size="11" lengthAdjust="spacingAndGlyphs" textLength="249" x="496.115" y="724.0908">proposedCombinations: List&lt;ProposedCombination&gt;</text><rect fill="none" height="6" style="stroke: #C82930; stroke-width: 1.0;" width="6" x="484.115" y="731.9258"/><text fill="#000000" font-family="sans-serif" font-size="11" lengthAdjust="spacingAndGlyphs" textLength="98" x="496.115" y="737.9268">results: List&lt;Result&gt;</text><rect fill="none" height="6" style="stroke: #C82930; stroke-width: 1.0;" width="6" x="484.115" y="745.7617"/><text fill="#000000" font-family="sans-serif" font-size="11" lengthAdjust="spacingAndGlyphs" textLength="36" x="496.115" y="751.7627">turn: int</text><line style="stroke: #A80036; stroke-width: 1.5;" x1="477.115" x2="750.115" y1="758.1797" y2="758.1797"/><ellipse cx="487.115" cy="770.5977" fill="#84BE84" rx="3" ry="3" style="stroke: #038048; stroke-width: 1.0;"/><text fill="#000000" font-family="sans-serif" font-size="11" lengthAdjust="spacingAndGlyphs" textLength="36" x="496.115" y="773.5986">Game()</text><ellipse cx="487.115" cy="784.4336" fill="#84BE84" rx="3" ry="3" style="stroke: #038048; stroke-width: 1.0;"/><text fill="#000000" font-family="sans-serif" font-size="11" lengthAdjust="spacingAndGlyphs" textLength="58" x="496.115" y="787.4346">clear(): void</text><ellipse cx="487.115" cy="798.2695" fill="#84BE84" rx="3" ry="3" style="stroke: #038048; stroke-width: 1.0;"/><text fill="#000000" font-family="sans-serif" font-size="11" lengthAdjust="spacingAndGlyphs" textLength="92" x="496.115" y="801.2705">set(Memento): void</text><ellipse cx="487.115" cy="812.1055" fill="#84BE84" rx="3" ry="3" style="stroke: #038048; stroke-width: 1.0;"/><text fill="#000000" font-family="sans-serif" font-size="11" lengthAdjust="spacingAndGlyphs" textLength="236" x="496.115" y="815.1064">proposeCombination(ProposedCombination): void</text><ellipse cx="487.115" cy="825.9414" fill="#84BE84" rx="3" ry="3" style="stroke: #038048; stroke-width: 1.0;"/><text fill="#000000" font-family="sans-serif" font-size="11" lengthAdjust="spacingAndGlyphs" textLength="94" x="496.115" y="828.9424">isWinner(): boolean</text><ellipse cx="487.115" cy="839.7773" fill="#84BE84" rx="3" ry="3" style="stroke: #038048; stroke-width: 1.0;"/><text fill="#000000" font-family="sans-serif" font-size="11" lengthAdjust="spacingAndGlyphs" textLength="94" x="496.115" y="842.7783">isLooser(): boolean</text><ellipse cx="487.115" cy="853.6133" fill="#84BE84" rx="3" ry="3" style="stroke: #038048; stroke-width: 1.0;"/><text fill="#000000" font-family="sans-serif" font-size="11" lengthAdjust="spacingAndGlyphs" textLength="67" x="496.115" y="856.6143">getWidth(): int</text><ellipse cx="487.115" cy="867.4492" fill="#84BE84" rx="3" ry="3" style="stroke: #038048; stroke-width: 1.0;"/><text fill="#000000" font-family="sans-serif" font-size="11" lengthAdjust="spacingAndGlyphs" textLength="62" x="496.115" y="870.4502">getTurn(): int</text><ellipse cx="487.115" cy="881.2852" fill="#84BE84" rx="3" ry="3" style="stroke: #038048; stroke-width: 1.0;"/><text fill="#000000" font-family="sans-serif" font-size="11" lengthAdjust="spacingAndGlyphs" textLength="89" x="496.115" y="884.2861">getCodes(): int[][][]</text><ellipse cx="487.115" cy="895.1211" fill="#84BE84" rx="3" ry="3" style="stroke: #038048; stroke-width: 1.0;"/><text fill="#000000" font-family="sans-serif" font-size="11" lengthAdjust="spacingAndGlyphs" textLength="131" x="496.115" y="898.1221">createMemento(): Memento</text><!--class mastermind.models.SecretCombination--><rect fill="#FEFECE" filter="url(#f5e23bmbe3pof)" height="75.6719" id="mastermind.models.SecretCombination" style="stroke: #A80036; stroke-width: 1.5;" width="219" x="290.115" y="1020"/><ellipse cx="342.365" cy="1036" fill="#ADD1B2" rx="11" ry="11" style="stroke: #A80036; stroke-width: 1.0;"/><path d="M345.1306,1031.875 Q345.2869,1031.6563 345.4744,1031.5469 Q345.6619,1031.4375 345.8806,1031.4375 Q346.2556,1031.4375 346.49,1031.6953 Q346.7244,1031.9531 346.7244,1032.5625 L346.7244,1034.0156 Q346.7244,1034.625 346.49,1034.8906 Q346.2556,1035.1563 345.8806,1035.1563 Q345.5369,1035.1563 345.3338,1034.9531 Q345.1306,1034.7656 345.0213,1034.25 Q344.9744,1033.8906 344.7869,1033.7031 Q344.4588,1033.3281 343.8494,1033.1094 Q343.24,1032.8906 342.615,1032.8906 Q341.8494,1032.8906 341.2166,1033.2188 Q340.5838,1033.5469 340.0916,1034.2969 Q339.5994,1035.0469 339.5994,1036.0781 L339.5994,1037.1719 Q339.5994,1038.4063 340.49,1039.2266 Q341.3806,1040.0469 342.9744,1040.0469 Q343.9119,1040.0469 344.5681,1039.7969 Q344.9588,1039.6406 345.3806,1039.2031 Q345.6463,1038.9375 345.7947,1038.8594 Q345.9431,1038.7813 346.1463,1038.7813 Q346.4744,1038.7813 346.7322,1039.0391 Q346.99,1039.2969 346.99,1039.6406 Q346.99,1039.9844 346.6463,1040.3906 Q346.1463,1040.9688 345.3494,1041.2969 Q344.2713,1041.75 342.9744,1041.75 Q341.4588,1041.75 340.2556,1041.125 Q339.2713,1040.625 338.5838,1039.5547 Q337.8963,1038.4844 337.8963,1037.2031 L337.8963,1036.0469 Q337.8963,1034.7188 338.5134,1033.5703 Q339.1306,1032.4219 340.2244,1031.8047 Q341.3181,1031.1875 342.5525,1031.1875 Q343.2869,1031.1875 343.9353,1031.3516 Q344.5838,1031.5156 345.1306,1031.875 Z "/><text fill="#000000" font-family="sans-serif" font-size="12" lengthAdjust="spacingAndGlyphs" textLength="106" x="362.865" y="1040.9102">SecretCombination</text><line style="stroke: #A80036; stroke-width: 1.5;" x1="291.115" x2="508.115" y1="1052" y2="1052"/><line style="stroke: #A80036; stroke-width: 1.5;" x1="291.115" x2="508.115" y1="1060" y2="1060"/><polygon fill="#4177AF" points="301.115,1068.418,297.115,1074.418,305.115,1074.418" style="stroke: #1963A0; stroke-width: 1.0;"/><text fill="#000000" font-family="sans-serif" font-size="11" lengthAdjust="spacingAndGlyphs" textLength="98" x="310.115" y="1075.4189">SecretCombination()</text><polygon fill="#4177AF" points="301.115,1082.2539,297.115,1088.2539,305.115,1088.2539" style="stroke: #1963A0; stroke-width: 1.0;"/><text fill="#000000" font-family="sans-serif" font-size="11" lengthAdjust="spacingAndGlyphs" textLength="193" x="310.115" y="1089.2549">getResult(ProposedCombination): Result</text><!--class mastermind.models.Result--><rect fill="#FEFECE" filter="url(#f5e23bmbe3pof)" height="158.6875" id="mastermind.models.Result" style="stroke: #A80036; stroke-width: 1.5;" width="120" x="532.615" y="1211"/><ellipse cx="571.015" cy="1227" fill="#ADD1B2" rx="11" ry="11" style="stroke: #A80036; stroke-width: 1.0;"/><path d="M573.7806,1222.875 Q573.9369,1222.6563 574.1244,1222.5469 Q574.3119,1222.4375 574.5306,1222.4375 Q574.9056,1222.4375 575.14,1222.6953 Q575.3744,1222.9531 575.3744,1223.5625 L575.3744,1225.0156 Q575.3744,1225.625 575.14,1225.8906 Q574.9056,1226.1563 574.5306,1226.1563 Q574.1869,1226.1563 573.9838,1225.9531 Q573.7806,1225.7656 573.6713,1225.25 Q573.6244,1224.8906 573.4369,1224.7031 Q573.1088,1224.3281 572.4994,1224.1094 Q571.89,1223.8906 571.265,1223.8906 Q570.4994,1223.8906 569.8666,1224.2188 Q569.2338,1224.5469 568.7416,1225.2969 Q568.2494,1226.0469 568.2494,1227.0781 L568.2494,1228.1719 Q568.2494,1229.4063 569.14,1230.2266 Q570.0306,1231.0469 571.6244,1231.0469 Q572.5619,1231.0469 573.2181,1230.7969 Q573.6088,1230.6406 574.0306,1230.2031 Q574.2963,1229.9375 574.4447,1229.8594 Q574.5931,1229.7813 574.7963,1229.7813 Q575.1244,1229.7813 575.3822,1230.0391 Q575.64,1230.2969 575.64,1230.6406 Q575.64,1230.9844 575.2963,1231.3906 Q574.7963,1231.9688 573.9994,1232.2969 Q572.9213,1232.75 571.6244,1232.75 Q570.1088,1232.75 568.9056,1232.125 Q567.9213,1231.625 567.2338,1230.5547 Q566.5463,1229.4844 566.5463,1228.2031 L566.5463,1227.0469 Q566.5463,1225.7188 567.1634,1224.5703 Q567.7806,1223.4219 568.8744,1222.8047 Q569.9681,1222.1875 571.2025,1222.1875 Q571.9369,1222.1875 572.5853,1222.3516 Q573.2338,1222.5156 573.7806,1222.875 Z "/><text fill="#000000" font-family="sans-serif" font-size="12" lengthAdjust="spacingAndGlyphs" textLength="36" x="590.215" y="1231.9102">Result</text><line style="stroke: #A80036; stroke-width: 1.5;" x1="533.615" x2="651.615" y1="1243" y2="1243"/><rect fill="none" height="6" style="stroke: #C82930; stroke-width: 1.0;" width="6" x="540.615" y="1252.418"/><text fill="#000000" font-family="sans-serif" font-size="11" lengthAdjust="spacingAndGlyphs" textLength="48" x="552.615" y="1258.4189">blacks: int</text><rect fill="none" height="6" style="stroke: #C82930; stroke-width: 1.0;" width="6" x="540.615" y="1266.2539"/><text fill="#000000" font-family="sans-serif" font-size="11" lengthAdjust="spacingAndGlyphs" textLength="50" x="552.615" y="1272.2549">whites: int</text><line style="stroke: #A80036; stroke-width: 1.5;" x1="533.615" x2="651.615" y1="1278.6719" y2="1278.6719"/><polygon fill="#4177AF" points="543.615,1287.0898,539.615,1293.0898,547.615,1293.0898" style="stroke: #1963A0; stroke-width: 1.0;"/><text fill="#000000" font-family="sans-serif" font-size="11" lengthAdjust="spacingAndGlyphs" textLength="66" x="552.615" y="1294.0908">Result(int, int)</text><ellipse cx="543.615" cy="1304.9258" fill="#84BE84" rx="3" ry="3" style="stroke: #038048; stroke-width: 1.0;"/><text fill="#000000" font-family="sans-serif" font-size="11" lengthAdjust="spacingAndGlyphs" textLength="68" x="552.615" y="1307.9268">copy(): Result</text><polygon fill="#4177AF" points="543.615,1314.7617,539.615,1320.7617,547.615,1320.7617" style="stroke: #1963A0; stroke-width: 1.0;"/><text fill="#000000" font-family="sans-serif" font-size="11" lengthAdjust="spacingAndGlyphs" textLength="94" x="552.615" y="1321.7627">isWinner(): boolean</text><polygon fill="#4177AF" points="543.615,1328.5977,539.615,1334.5977,547.615,1334.5977" style="stroke: #1963A0; stroke-width: 1.0;"/><text fill="#000000" font-family="sans-serif" font-size="11" lengthAdjust="spacingAndGlyphs" textLength="77" x="552.615" y="1335.5986">getCodes(): int[]</text><polygon fill="#4177AF" points="543.615,1342.4336,539.615,1348.4336,547.615,1348.4336" style="stroke: #1963A0; stroke-width: 1.0;"/><text fill="#000000" font-family="sans-serif" font-size="11" lengthAdjust="spacingAndGlyphs" textLength="72" x="552.615" y="1349.4346">getBlacks(): int</text><polygon fill="#4177AF" points="543.615,1356.2695,539.615,1362.2695,547.615,1362.2695" style="stroke: #1963A0; stroke-width: 1.0;"/><text fill="#000000" font-family="sans-serif" font-size="11" lengthAdjust="spacingAndGlyphs" textLength="73" x="552.615" y="1363.2705">getWhites(): int</text><!--class mastermind.models.ProposedCombination--><rect fill="#FEFECE" filter="url(#f5e23bmbe3pof)" height="158.6875" id="mastermind.models.ProposedCombination" style="stroke: #A80036; stroke-width: 1.5;" width="217" x="280.115" y="1211"/><ellipse cx="322.115" cy="1227" fill="#ADD1B2" rx="11" ry="11" style="stroke: #A80036; stroke-width: 1.0;"/><path d="M324.8806,1222.875 Q325.0369,1222.6563 325.2244,1222.5469 Q325.4119,1222.4375 325.6306,1222.4375 Q326.0056,1222.4375 326.24,1222.6953 Q326.4744,1222.9531 326.4744,1223.5625 L326.4744,1225.0156 Q326.4744,1225.625 326.24,1225.8906 Q326.0056,1226.1563 325.6306,1226.1563 Q325.2869,1226.1563 325.0838,1225.9531 Q324.8806,1225.7656 324.7713,1225.25 Q324.7244,1224.8906 324.5369,1224.7031 Q324.2088,1224.3281 323.5994,1224.1094 Q322.99,1223.8906 322.365,1223.8906 Q321.5994,1223.8906 320.9666,1224.2188 Q320.3338,1224.5469 319.8416,1225.2969 Q319.3494,1226.0469 319.3494,1227.0781 L319.3494,1228.1719 Q319.3494,1229.4063 320.24,1230.2266 Q321.1306,1231.0469 322.7244,1231.0469 Q323.6619,1231.0469 324.3181,1230.7969 Q324.7088,1230.6406 325.1306,1230.2031 Q325.3963,1229.9375 325.5447,1229.8594 Q325.6931,1229.7813 325.8963,1229.7813 Q326.2244,1229.7813 326.4822,1230.0391 Q326.74,1230.2969 326.74,1230.6406 Q326.74,1230.9844 326.3963,1231.3906 Q325.8963,1231.9688 325.0994,1232.2969 Q324.0213,1232.75 322.7244,1232.75 Q321.2088,1232.75 320.0056,1232.125 Q319.0213,1231.625 318.3338,1230.5547 Q317.6463,1229.4844 317.6463,1228.2031 L317.6463,1227.0469 Q317.6463,1225.7188 318.2634,1224.5703 Q318.8806,1223.4219 319.9744,1222.8047 Q321.0681,1222.1875 322.3025,1222.1875 Q323.0369,1222.1875 323.6853,1222.3516 Q324.3338,1222.5156 324.8806,1222.875 Z "/><text fill="#000000" font-family="sans-serif" font-size="12" lengthAdjust="spacingAndGlyphs" textLength="125" x="342.115" y="1231.9102">ProposedCombination</text><line style="stroke: #A80036; stroke-width: 1.5;" x1="281.115" x2="496.115" y1="1243" y2="1243"/><line style="stroke: #A80036; stroke-width: 1.5;" x1="281.115" x2="496.115" y1="1251" y2="1251"/><ellipse cx="291.115" cy="1263.418" fill="#84BE84" rx="3" ry="3" style="stroke: #038048; stroke-width: 1.0;"/><text fill="#000000" font-family="sans-serif" font-size="11" lengthAdjust="spacingAndGlyphs" textLength="112" x="300.115" y="1266.4189">ProposedCombination()</text><polygon fill="#4177AF" points="291.115,1273.2539,287.115,1279.2539,295.115,1279.2539" style="stroke: #1963A0; stroke-width: 1.0;"/><text fill="#000000" font-family="sans-serif" font-size="11" lengthAdjust="spacingAndGlyphs" textLength="135" x="300.115" y="1280.2549">contains(Color, int): boolean</text><polygon fill="#4177AF" points="291.115,1287.0898,287.115,1293.0898,295.115,1293.0898" style="stroke: #1963A0; stroke-width: 1.0;"/><text fill="#000000" font-family="sans-serif" font-size="11" lengthAdjust="spacingAndGlyphs" textLength="118" x="300.115" y="1294.0908">contains(Color): boolean</text><ellipse cx="291.115" cy="1304.9258" fill="#84BE84" rx="3" ry="3" style="stroke: #038048; stroke-width: 1.0;"/><text fill="#000000" font-family="sans-serif" font-size="11" lengthAdjust="spacingAndGlyphs" text-decoration="underline" textLength="191" x="300.115" y="1307.9268">getInstance(int[]): ProposedCombination</text><ellipse cx="291.115" cy="1318.7617" fill="#84BE84" rx="3" ry="3" style="stroke: #038048; stroke-width: 1.0;"/><text fill="#000000" font-family="sans-serif" font-size="11" lengthAdjust="spacingAndGlyphs" textLength="142" x="300.115" y="1321.7627">copy(): ProposedCombination</text><ellipse cx="291.115" cy="1332.5977" fill="#84BE84" rx="3" ry="3" style="stroke: #038048; stroke-width: 1.0;"/><text fill="#000000" font-family="sans-serif" font-size="11" lengthAdjust="spacingAndGlyphs" text-decoration="underline" textLength="87" x="300.115" y="1335.5986">isValid(int[]): Error</text><polygon fill="#4177AF" points="291.115,1342.4336,287.115,1348.4336,295.115,1348.4336" style="stroke: #1963A0; stroke-width: 1.0;"/><text fill="#000000" font-family="sans-serif" font-size="11" lengthAdjust="spacingAndGlyphs" textLength="77" x="300.115" y="1349.4346">getCodes(): int[]</text><polygon fill="#4177AF" points="291.115,1356.2695,287.115,1362.2695,295.115,1362.2695" style="stroke: #1963A0; stroke-width: 1.0;"/><text fill="#000000" font-family="sans-serif" font-size="11" lengthAdjust="spacingAndGlyphs" textLength="97" x="300.115" y="1363.2705">setCodes(int[]): void</text><!--class mastermind.models.Memento--><rect fill="#FEFECE" filter="url(#f5e23bmbe3pof)" height="172.5234" id="mastermind.models.Memento" style="stroke: #A80036; stroke-width: 1.5;" width="275" x="619.115" y="971.5"/><ellipse cx="726.865" cy="987.5" fill="#ADD1B2" rx="11" ry="11" style="stroke: #A80036; stroke-width: 1.0;"/><path d="M729.6306,983.375 Q729.7869,983.1563 729.9744,983.0469 Q730.1619,982.9375 730.3806,982.9375 Q730.7556,982.9375 730.99,983.1953 Q731.2244,983.4531 731.2244,984.0625 L731.2244,985.5156 Q731.2244,986.125 730.99,986.3906 Q730.7556,986.6563 730.3806,986.6563 Q730.0369,986.6563 729.8338,986.4531 Q729.6306,986.2656 729.5213,985.75 Q729.4744,985.3906 729.2869,985.2031 Q728.9588,984.8281 728.3494,984.6094 Q727.74,984.3906 727.115,984.3906 Q726.3494,984.3906 725.7166,984.7188 Q725.0838,985.0469 724.5916,985.7969 Q724.0994,986.5469 724.0994,987.5781 L724.0994,988.6719 Q724.0994,989.9063 724.99,990.7266 Q725.8806,991.5469 727.4744,991.5469 Q728.4119,991.5469 729.0681,991.2969 Q729.4588,991.1406 729.8806,990.7031 Q730.1463,990.4375 730.2947,990.3594 Q730.4431,990.2813 730.6463,990.2813 Q730.9744,990.2813 731.2322,990.5391 Q731.49,990.7969 731.49,991.1406 Q731.49,991.4844 731.1463,991.8906 Q730.6463,992.4688 729.8494,992.7969 Q728.7713,993.25 727.4744,993.25 Q725.9588,993.25 724.7556,992.625 Q723.7713,992.125 723.0838,991.0547 Q722.3963,989.9844 722.3963,988.7031 L722.3963,987.5469 Q722.3963,986.2188 723.0134,985.0703 Q723.6306,983.9219 724.7244,983.3047 Q725.8181,982.6875 727.0525,982.6875 Q727.7869,982.6875 728.4353,982.8516 Q729.0838,983.0156 729.6306,983.375 Z "/><text fill="#000000" font-family="sans-serif" font-size="12" lengthAdjust="spacingAndGlyphs" textLength="51" x="747.365" y="992.4102">Memento</text><line style="stroke: #A80036; stroke-width: 1.5;" x1="620.115" x2="893.115" y1="1003.5" y2="1003.5"/><rect fill="none" height="6" style="stroke: #C82930; stroke-width: 1.0;" width="6" x="627.115" y="1012.918"/><text fill="#000000" font-family="sans-serif" font-size="11" lengthAdjust="spacingAndGlyphs" textLength="249" x="639.115" y="1018.9189">proposedCombinations: List&lt;ProposedCombination&gt;</text><rect fill="none" height="6" style="stroke: #C82930; stroke-width: 1.0;" width="6" x="627.115" y="1026.7539"/><text fill="#000000" font-family="sans-serif" font-size="11" lengthAdjust="spacingAndGlyphs" textLength="98" x="639.115" y="1032.7549">results: List&lt;Result&gt;</text><rect fill="none" height="6" style="stroke: #C82930; stroke-width: 1.0;" width="6" x="627.115" y="1040.5898"/><text fill="#000000" font-family="sans-serif" font-size="11" lengthAdjust="spacingAndGlyphs" textLength="36" x="639.115" y="1046.5908">turn: int</text><line style="stroke: #A80036; stroke-width: 1.5;" x1="620.115" x2="893.115" y1="1053.0078" y2="1053.0078"/><polygon fill="#4177AF" points="630.115,1061.4258,626.115,1067.4258,634.115,1067.4258" style="stroke: #1963A0; stroke-width: 1.0;"/><text fill="#000000" font-family="sans-serif" font-size="11" lengthAdjust="spacingAndGlyphs" textLength="62" x="639.115" y="1068.4268">Memento(int)</text><polygon fill="#4177AF" points="630.115,1075.2617,626.115,1081.2617,634.115,1081.2617" style="stroke: #1963A0; stroke-width: 1.0;"/><text fill="#000000" font-family="sans-serif" font-size="11" lengthAdjust="spacingAndGlyphs" textLength="189" x="639.115" y="1082.2627">set(ProposedCombination, Result): void</text><polygon fill="#4177AF" points="630.115,1089.0977,626.115,1095.0977,634.115,1095.0977" style="stroke: #1963A0; stroke-width: 1.0;"/><text fill="#000000" font-family="sans-serif" font-size="11" lengthAdjust="spacingAndGlyphs" textLength="61" x="639.115" y="1096.0986">getSize(): int</text><polygon fill="#4177AF" points="630.115,1102.9336,626.115,1108.9336,634.115,1108.9336" style="stroke: #1963A0; stroke-width: 1.0;"/><text fill="#000000" font-family="sans-serif" font-size="11" lengthAdjust="spacingAndGlyphs" textLength="100" x="639.115" y="1109.9346">getResult(int): Result</text><polygon fill="#4177AF" points="630.115,1116.7695,626.115,1122.7695,634.115,1122.7695" style="stroke: #1963A0; stroke-width: 1.0;"/><text fill="#000000" font-family="sans-serif" font-size="11" lengthAdjust="spacingAndGlyphs" textLength="248" x="639.115" y="1123.7705">getProposedCombination(int): ProposedCombination</text><polygon fill="#4177AF" points="630.115,1130.6055,626.115,1136.6055,634.115,1136.6055" style="stroke: #1963A0; stroke-width: 1.0;"/><text fill="#000000" font-family="sans-serif" font-size="11" lengthAdjust="spacingAndGlyphs" textLength="62" x="639.115" y="1137.6064">getTurn(): int</text><!--class mastermind.models.Registry--><rect fill="#FEFECE" filter="url(#f5e23bmbe3pof)" height="186.3594" id="mastermind.models.Registry" style="stroke: #A80036; stroke-width: 1.5;" width="192" x="670.615" y="403"/><ellipse cx="739.865" cy="419" fill="#ADD1B2" rx="11" ry="11" style="stroke: #A80036; stroke-width: 1.0;"/><path d="M742.6306,414.875 Q742.7869,414.6563 742.9744,414.5469 Q743.1619,414.4375 743.3806,414.4375 Q743.7556,414.4375 743.99,414.6953 Q744.2244,414.9531 744.2244,415.5625 L744.2244,417.0156 Q744.2244,417.625 743.99,417.8906 Q743.7556,418.1563 743.3806,418.1563 Q743.0369,418.1563 742.8338,417.9531 Q742.6306,417.7656 742.5213,417.25 Q742.4744,416.8906 742.2869,416.7031 Q741.9588,416.3281 741.3494,416.1094 Q740.74,415.8906 740.115,415.8906 Q739.3494,415.8906 738.7166,416.2188 Q738.0838,416.5469 737.5916,417.2969 Q737.0994,418.0469 737.0994,419.0781 L737.0994,420.1719 Q737.0994,421.4063 737.99,422.2266 Q738.8806,423.0469 740.4744,423.0469 Q741.4119,423.0469 742.0681,422.7969 Q742.4588,422.6406 742.8806,422.2031 Q743.1463,421.9375 743.2947,421.8594 Q743.4431,421.7813 743.6463,421.7813 Q743.9744,421.7813 744.2322,422.0391 Q744.49,422.2969 744.49,422.6406 Q744.49,422.9844 744.1463,423.3906 Q743.6463,423.9688 742.8494,424.2969 Q741.7713,424.75 740.4744,424.75 Q738.9588,424.75 737.7556,424.125 Q736.7713,423.625 736.0838,422.5547 Q735.3963,421.4844 735.3963,420.2031 L735.3963,419.0469 Q735.3963,417.7188 736.0134,416.5703 Q736.6306,415.4219 737.7244,414.8047 Q738.8181,414.1875 740.0525,414.1875 Q740.7869,414.1875 741.4353,414.3516 Q742.0838,414.5156 742.6306,414.875 Z "/><text fill="#000000" font-family="sans-serif" font-size="12" lengthAdjust="spacingAndGlyphs" textLength="45" x="760.365" y="423.9102">Registry</text><line style="stroke: #A80036; stroke-width: 1.5;" x1="671.615" x2="861.615" y1="435" y2="435"/><rect fill="none" height="6" style="stroke: #C82930; stroke-width: 1.0;" width="6" x="678.615" y="444.418"/><text fill="#000000" font-family="sans-serif" font-size="11" lengthAdjust="spacingAndGlyphs" textLength="166" x="690.615" y="450.4189">mementoList: ArrayList&lt;Memento&gt;</text><rect fill="none" height="6" style="stroke: #C82930; stroke-width: 1.0;" width="6" x="678.615" y="458.2539"/><text fill="#000000" font-family="sans-serif" font-size="11" lengthAdjust="spacingAndGlyphs" textLength="60" x="690.615" y="464.2549">game: Game</text><rect fill="none" height="6" style="stroke: #C82930; stroke-width: 1.0;" width="6" x="678.615" y="472.0898"/><text fill="#000000" font-family="sans-serif" font-size="11" lengthAdjust="spacingAndGlyphs" textLength="78" x="690.615" y="478.0908">firstPrevious: int</text><line style="stroke: #A80036; stroke-width: 1.5;" x1="671.615" x2="861.615" y1="484.5078" y2="484.5078"/><polygon fill="#4177AF" points="681.615,492.9258,677.615,498.9258,685.615,498.9258" style="stroke: #1963A0; stroke-width: 1.0;"/><text fill="#000000" font-family="sans-serif" font-size="11" lengthAdjust="spacingAndGlyphs" textLength="76" x="690.615" y="499.9268">Registry(Game)</text><ellipse cx="681.615" cy="510.7617" fill="#84BE84" rx="3" ry="3" style="stroke: #038048; stroke-width: 1.0;"/><text fill="#000000" font-family="sans-serif" font-size="11" lengthAdjust="spacingAndGlyphs" textLength="59" x="690.615" y="513.7627">reset(): void</text><polygon fill="#4177AF" points="681.615,520.5977,677.615,526.5977,685.615,526.5977" style="stroke: #1963A0; stroke-width: 1.0;"/><text fill="#000000" font-family="sans-serif" font-size="11" lengthAdjust="spacingAndGlyphs" textLength="86" x="690.615" y="527.5986">undo(Game): void</text><polygon fill="#4177AF" points="681.615,534.4336,677.615,540.4336,685.615,540.4336" style="stroke: #1963A0; stroke-width: 1.0;"/><text fill="#000000" font-family="sans-serif" font-size="11" lengthAdjust="spacingAndGlyphs" textLength="84" x="690.615" y="541.4346">redo(Game): void</text><polygon fill="#4177AF" points="681.615,548.2695,677.615,554.2695,685.615,554.2695" style="stroke: #1963A0; stroke-width: 1.0;"/><text fill="#000000" font-family="sans-serif" font-size="11" lengthAdjust="spacingAndGlyphs" textLength="71" x="690.615" y="555.2705">registry(): void</text><polygon fill="#4177AF" points="681.615,562.1055,677.615,568.1055,685.615,568.1055" style="stroke: #1963A0; stroke-width: 1.0;"/><text fill="#000000" font-family="sans-serif" font-size="11" lengthAdjust="spacingAndGlyphs" textLength="94" x="690.615" y="569.1064">redoable(): boolean</text><polygon fill="#4177AF" points="681.615,575.9414,677.615,581.9414,685.615,581.9414" style="stroke: #1963A0; stroke-width: 1.0;"/><text fill="#000000" font-family="sans-serif" font-size="11" lengthAdjust="spacingAndGlyphs" textLength="96" x="690.615" y="582.9424">undoable(): boolean</text><!--class mastermind.models.Session--><rect fill="#FEFECE" filter="url(#f5e23bmbe3pof)" height="283.2109" id="mastermind.models.Session" style="stroke: #A80036; stroke-width: 1.5;" width="262" x="482.615" y="60"/><ellipse cx="586.365" cy="76" fill="#ADD1B2" rx="11" ry="11" style="stroke: #A80036; stroke-width: 1.0;"/><path d="M589.1306,71.875 Q589.2869,71.6563 589.4744,71.5469 Q589.6619,71.4375 589.8806,71.4375 Q590.2556,71.4375 590.49,71.6953 Q590.7244,71.9531 590.7244,72.5625 L590.7244,74.0156 Q590.7244,74.625 590.49,74.8906 Q590.2556,75.1563 589.8806,75.1563 Q589.5369,75.1563 589.3338,74.9531 Q589.1306,74.7656 589.0213,74.25 Q588.9744,73.8906 588.7869,73.7031 Q588.4588,73.3281 587.8494,73.1094 Q587.24,72.8906 586.615,72.8906 Q585.8494,72.8906 585.2166,73.2188 Q584.5838,73.5469 584.0916,74.2969 Q583.5994,75.0469 583.5994,76.0781 L583.5994,77.1719 Q583.5994,78.4063 584.49,79.2266 Q585.3806,80.0469 586.9744,80.0469 Q587.9119,80.0469 588.5681,79.7969 Q588.9588,79.6406 589.3806,79.2031 Q589.6463,78.9375 589.7947,78.8594 Q589.9431,78.7813 590.1463,78.7813 Q590.4744,78.7813 590.7322,79.0391 Q590.99,79.2969 590.99,79.6406 Q590.99,79.9844 590.6463,80.3906 Q590.1463,80.9688 589.3494,81.2969 Q588.2713,81.75 586.9744,81.75 Q585.4588,81.75 584.2556,81.125 Q583.2713,80.625 582.5838,79.5547 Q581.8963,78.4844 581.8963,77.2031 L581.8963,76.0469 Q581.8963,74.7188 582.5134,73.5703 Q583.1306,72.4219 584.2244,71.8047 Q585.3181,71.1875 586.5525,71.1875 Q587.2869,71.1875 587.9353,71.3516 Q588.5838,71.5156 589.1306,71.875 Z "/><text fill="#000000" font-family="sans-serif" font-size="12" lengthAdjust="spacingAndGlyphs" textLength="46" x="606.865" y="80.9102">Session</text><line style="stroke: #A80036; stroke-width: 1.5;" x1="483.615" x2="743.615" y1="92" y2="92"/><rect fill="none" height="6" style="stroke: #C82930; stroke-width: 1.0;" width="6" x="490.615" y="101.418"/><text fill="#000000" font-family="sans-serif" font-size="11" lengthAdjust="spacingAndGlyphs" textLength="55" x="502.615" y="107.4189">state: State</text><rect fill="none" height="6" style="stroke: #C82930; stroke-width: 1.0;" width="6" x="490.615" y="115.2539"/><text fill="#000000" font-family="sans-serif" font-size="11" lengthAdjust="spacingAndGlyphs" textLength="60" x="502.615" y="121.2549">game: Game</text><rect fill="none" height="6" style="stroke: #C82930; stroke-width: 1.0;" width="6" x="490.615" y="129.0898"/><text fill="#000000" font-family="sans-serif" font-size="11" lengthAdjust="spacingAndGlyphs" textLength="83" x="502.615" y="135.0908">registry: Registry</text><line style="stroke: #A80036; stroke-width: 1.5;" x1="483.615" x2="743.615" y1="141.5078" y2="141.5078"/><ellipse cx="493.615" cy="153.9258" fill="#84BE84" rx="3" ry="3" style="stroke: #038048; stroke-width: 1.0;"/><text fill="#000000" font-family="sans-serif" font-size="11" lengthAdjust="spacingAndGlyphs" textLength="47" x="502.615" y="156.9268">Session()</text><ellipse cx="493.615" cy="167.7617" fill="#84BE84" rx="3" ry="3" style="stroke: #038048; stroke-width: 1.0;"/><text fill="#000000" font-family="sans-serif" font-size="11" lengthAdjust="spacingAndGlyphs" textLength="55" x="502.615" y="170.7627">next(): void</text><ellipse cx="493.615" cy="181.5977" fill="#84BE84" rx="3" ry="3" style="stroke: #038048; stroke-width: 1.0;"/><text fill="#000000" font-family="sans-serif" font-size="11" lengthAdjust="spacingAndGlyphs" textLength="70" x="502.615" y="184.5986">resume(): void</text><ellipse cx="493.615" cy="195.4336" fill="#84BE84" rx="3" ry="3" style="stroke: #038048; stroke-width: 1.0;"/><text fill="#000000" font-family="sans-serif" font-size="11" lengthAdjust="spacingAndGlyphs" textLength="236" x="502.615" y="198.4346">proposeCombination(ProposedCombination): void</text><ellipse cx="493.615" cy="209.2695" fill="#84BE84" rx="3" ry="3" style="stroke: #038048; stroke-width: 1.0;"/><text fill="#000000" font-family="sans-serif" font-size="11" lengthAdjust="spacingAndGlyphs" textLength="94" x="502.615" y="212.2705">isWinner(): boolean</text><ellipse cx="493.615" cy="223.1055" fill="#84BE84" rx="3" ry="3" style="stroke: #038048; stroke-width: 1.0;"/><text fill="#000000" font-family="sans-serif" font-size="11" lengthAdjust="spacingAndGlyphs" textLength="58" x="502.615" y="226.1064">undo(): void</text><ellipse cx="493.615" cy="236.9414" fill="#84BE84" rx="3" ry="3" style="stroke: #038048; stroke-width: 1.0;"/><text fill="#000000" font-family="sans-serif" font-size="11" lengthAdjust="spacingAndGlyphs" textLength="94" x="502.615" y="239.9424">isLooser(): boolean</text><ellipse cx="493.615" cy="250.7773" fill="#84BE84" rx="3" ry="3" style="stroke: #038048; stroke-width: 1.0;"/><text fill="#000000" font-family="sans-serif" font-size="11" lengthAdjust="spacingAndGlyphs" textLength="113" x="502.615" y="253.7783">getValueState(): Object</text><ellipse cx="493.615" cy="264.6133" fill="#84BE84" rx="3" ry="3" style="stroke: #038048; stroke-width: 1.0;"/><text fill="#000000" font-family="sans-serif" font-size="11" lengthAdjust="spacingAndGlyphs" textLength="67" x="502.615" y="267.6143">getWidth(): int</text><ellipse cx="493.615" cy="278.4492" fill="#84BE84" rx="3" ry="3" style="stroke: #038048; stroke-width: 1.0;"/><text fill="#000000" font-family="sans-serif" font-size="11" lengthAdjust="spacingAndGlyphs" textLength="56" x="502.615" y="281.4502">redo(): void</text><ellipse cx="493.615" cy="292.2852" fill="#84BE84" rx="3" ry="3" style="stroke: #038048; stroke-width: 1.0;"/><text fill="#000000" font-family="sans-serif" font-size="11" lengthAdjust="spacingAndGlyphs" textLength="62" x="502.615" y="295.2861">getTurn(): int</text><ellipse cx="493.615" cy="306.1211" fill="#84BE84" rx="3" ry="3" style="stroke: #038048; stroke-width: 1.0;"/><text fill="#000000" font-family="sans-serif" font-size="11" lengthAdjust="spacingAndGlyphs" textLength="89" x="502.615" y="309.1221">getCodes(): int[][][]</text><ellipse cx="493.615" cy="319.957" fill="#84BE84" rx="3" ry="3" style="stroke: #038048; stroke-width: 1.0;"/><text fill="#000000" font-family="sans-serif" font-size="11" lengthAdjust="spacingAndGlyphs" textLength="94" x="502.615" y="322.958">redoable(): boolean</text><ellipse cx="493.615" cy="333.793" fill="#84BE84" rx="3" ry="3" style="stroke: #038048; stroke-width: 1.0;"/><text fill="#000000" font-family="sans-serif" font-size="11" lengthAdjust="spacingAndGlyphs" textLength="96" x="502.615" y="336.7939">undoable(): boolean</text><!--class mastermind.models.State--><rect fill="#FEFECE" filter="url(#f5e23bmbe3pof)" height="117.1797" id="mastermind.models.State" style="stroke: #A80036; stroke-width: 1.5;" width="161" x="349.115" y="437.5"/><ellipse cx="411.365" cy="453.5" fill="#ADD1B2" rx="11" ry="11" style="stroke: #A80036; stroke-width: 1.0;"/><path d="M414.1306,449.375 Q414.2869,449.1563 414.4744,449.0469 Q414.6619,448.9375 414.8806,448.9375 Q415.2556,448.9375 415.49,449.1953 Q415.7244,449.4531 415.7244,450.0625 L415.7244,451.5156 Q415.7244,452.125 415.49,452.3906 Q415.2556,452.6563 414.8806,452.6563 Q414.5369,452.6563 414.3338,452.4531 Q414.1306,452.2656 414.0213,451.75 Q413.9744,451.3906 413.7869,451.2031 Q413.4588,450.8281 412.8494,450.6094 Q412.24,450.3906 411.615,450.3906 Q410.8494,450.3906 410.2166,450.7188 Q409.5838,451.0469 409.0916,451.7969 Q408.5994,452.5469 408.5994,453.5781 L408.5994,454.6719 Q408.5994,455.9063 409.49,456.7266 Q410.3806,457.5469 411.9744,457.5469 Q412.9119,457.5469 413.5681,457.2969 Q413.9588,457.1406 414.3806,456.7031 Q414.6463,456.4375 414.7947,456.3594 Q414.9431,456.2813 415.1463,456.2813 Q415.4744,456.2813 415.7322,456.5391 Q415.99,456.7969 415.99,457.1406 Q415.99,457.4844 415.6463,457.8906 Q415.1463,458.4688 414.3494,458.7969 Q413.2713,459.25 411.9744,459.25 Q410.4588,459.25 409.2556,458.625 Q408.2713,458.125 407.5838,457.0547 Q406.8963,455.9844 406.8963,454.7031 L406.8963,453.5469 Q406.8963,452.2188 407.5134,451.0703 Q408.1306,449.9219 409.2244,449.3047 Q410.3181,448.6875 411.5525,448.6875 Q412.2869,448.6875 412.9353,448.8516 Q413.5838,449.0156 414.1306,449.375 Z "/><text fill="#000000" font-family="sans-serif" font-size="12" lengthAdjust="spacingAndGlyphs" textLength="28" x="431.865" y="458.4102">State</text><line style="stroke: #A80036; stroke-width: 1.5;" x1="350.115" x2="509.115" y1="469.5" y2="469.5"/><rect fill="none" height="6" style="stroke: #C82930; stroke-width: 1.0;" width="6" x="357.115" y="478.918"/><text fill="#000000" font-family="sans-serif" font-size="11" lengthAdjust="spacingAndGlyphs" textLength="111" x="369.115" y="484.9189">stateValue: StateValue</text><line style="stroke: #A80036; stroke-width: 1.5;" x1="350.115" x2="509.115" y1="491.3359" y2="491.3359"/><ellipse cx="360.115" cy="503.7539" fill="#84BE84" rx="3" ry="3" style="stroke: #038048; stroke-width: 1.0;"/><text fill="#000000" font-family="sans-serif" font-size="11" lengthAdjust="spacingAndGlyphs" textLength="33" x="369.115" y="506.7549">State()</text><ellipse cx="360.115" cy="517.5898" fill="#84BE84" rx="3" ry="3" style="stroke: #038048; stroke-width: 1.0;"/><text fill="#000000" font-family="sans-serif" font-size="11" lengthAdjust="spacingAndGlyphs" textLength="55" x="369.115" y="520.5908">next(): void</text><ellipse cx="360.115" cy="531.4258" fill="#84BE84" rx="3" ry="3" style="stroke: #038048; stroke-width: 1.0;"/><text fill="#000000" font-family="sans-serif" font-size="11" lengthAdjust="spacingAndGlyphs" textLength="59" x="369.115" y="534.4268">reset(): void</text><ellipse cx="360.115" cy="545.2617" fill="#84BE84" rx="3" ry="3" style="stroke: #038048; stroke-width: 1.0;"/><text fill="#000000" font-family="sans-serif" font-size="11" lengthAdjust="spacingAndGlyphs" textLength="135" x="369.115" y="548.2627">getValueState(): StateValue</text><!--class mastermind.models.StateValue--><rect fill="#FEFECE" filter="url(#f5e23bmbe3pof)" height="131.0156" id="mastermind.models.StateValue" style="stroke: #A80036; stroke-width: 1.5;" width="159" x="282.115" y="711.5"/><ellipse cx="327.865" cy="727.5" fill="#ADD1B2" rx="11" ry="11" style="stroke: #A80036; stroke-width: 1.0;"/><path d="M330.6306,723.375 Q330.7869,723.1563 330.9744,723.0469 Q331.1619,722.9375 331.3806,722.9375 Q331.7556,722.9375 331.99,723.1953 Q332.2244,723.4531 332.2244,724.0625 L332.2244,725.5156 Q332.2244,726.125 331.99,726.3906 Q331.7556,726.6563 331.3806,726.6563 Q331.0369,726.6563 330.8338,726.4531 Q330.6306,726.2656 330.5213,725.75 Q330.4744,725.3906 330.2869,725.2031 Q329.9588,724.8281 329.3494,724.6094 Q328.74,724.3906 328.115,724.3906 Q327.3494,724.3906 326.7166,724.7188 Q326.0838,725.0469 325.5916,725.7969 Q325.0994,726.5469 325.0994,727.5781 L325.0994,728.6719 Q325.0994,729.9063 325.99,730.7266 Q326.8806,731.5469 328.4744,731.5469 Q329.4119,731.5469 330.0681,731.2969 Q330.4588,731.1406 330.8806,730.7031 Q331.1463,730.4375 331.2947,730.3594 Q331.4431,730.2813 331.6463,730.2813 Q331.9744,730.2813 332.2322,730.5391 Q332.49,730.7969 332.49,731.1406 Q332.49,731.4844 332.1463,731.8906 Q331.6463,732.4688 330.8494,732.7969 Q329.7713,733.25 328.4744,733.25 Q326.9588,733.25 325.7556,732.625 Q324.7713,732.125 324.0838,731.0547 Q323.3963,729.9844 323.3963,728.7031 L323.3963,727.5469 Q323.3963,726.2188 324.0134,725.0703 Q324.6306,723.9219 325.7244,723.3047 Q326.8181,722.6875 328.0525,722.6875 Q328.7869,722.6875 329.4353,722.8516 Q330.0838,723.0156 330.6306,723.375 Z "/><text fill="#000000" font-family="sans-serif" font-size="12" lengthAdjust="spacingAndGlyphs" textLength="59" x="348.365" y="732.4102">StateValue</text><line style="stroke: #A80036; stroke-width: 1.5;" x1="283.115" x2="440.115" y1="743.5" y2="743.5"/><ellipse cx="293.115" cy="755.918" fill="none" rx="3" ry="3" style="stroke: #038048; stroke-width: 1.0;"/><text fill="#000000" font-family="sans-serif" font-size="11" lengthAdjust="spacingAndGlyphs" text-decoration="underline" textLength="92" x="302.115" y="758.9189">INITIAL: StateValue</text><ellipse cx="293.115" cy="769.7539" fill="none" rx="3" ry="3" style="stroke: #038048; stroke-width: 1.0;"/><text fill="#000000" font-family="sans-serif" font-size="11" lengthAdjust="spacingAndGlyphs" text-decoration="underline" textLength="104" x="302.115" y="772.7549">IN_GAME: StateValue</text><ellipse cx="293.115" cy="783.5898" fill="none" rx="3" ry="3" style="stroke: #038048; stroke-width: 1.0;"/><text fill="#000000" font-family="sans-serif" font-size="11" lengthAdjust="spacingAndGlyphs" text-decoration="underline" textLength="88" x="302.115" y="786.5908">FINAL: StateValue</text><ellipse cx="293.115" cy="797.4258" fill="none" rx="3" ry="3" style="stroke: #038048; stroke-width: 1.0;"/><text fill="#000000" font-family="sans-serif" font-size="11" lengthAdjust="spacingAndGlyphs" text-decoration="underline" textLength="80" x="302.115" y="800.4268">EXIT: StateValue</text><line style="stroke: #A80036; stroke-width: 1.5;" x1="283.115" x2="440.115" y1="806.8438" y2="806.8438"/><rect fill="#F24D5C" height="6" style="stroke: #C82930; stroke-width: 1.0;" width="6" x="290.115" y="816.2617"/><text fill="#000000" font-family="sans-serif" font-size="11" lengthAdjust="spacingAndGlyphs" textLength="61" x="302.115" y="822.2627">StateValue()</text><ellipse cx="293.115" cy="833.0977" fill="#84BE84" rx="3" ry="3" style="stroke: #038048; stroke-width: 1.0;"/><text fill="#000000" font-family="sans-serif" font-size="11" lengthAdjust="spacingAndGlyphs" text-decoration="underline" textLength="133" x="302.115" y="836.0986">valueOf(String): StateValue</text><!--class java.util.List--><rect fill="#FEFECE" filter="url(#f5e23bmbe3pof)" height="48" id="java.util.List" style="stroke: #A80036; stroke-width: 1.5;" width="52" x="956.615" y="1266.5"/><ellipse cx="971.615" cy="1282.5" fill="#ADD1B2" rx="11" ry="11" style="stroke: #A80036; stroke-width: 1.0;"/><path d="M974.3806,1278.375 Q974.5369,1278.1563 974.7244,1278.0469 Q974.9119,1277.9375 975.1306,1277.9375 Q975.5056,1277.9375 975.74,1278.1953 Q975.9744,1278.4531 975.9744,1279.0625 L975.9744,1280.5156 Q975.9744,1281.125 975.74,1281.3906 Q975.5056,1281.6563 975.1306,1281.6563 Q974.7869,1281.6563 974.5838,1281.4531 Q974.3806,1281.2656 974.2713,1280.75 Q974.2244,1280.3906 974.0369,1280.2031 Q973.7088,1279.8281 973.0994,1279.6094 Q972.49,1279.3906 971.865,1279.3906 Q971.0994,1279.3906 970.4666,1279.7188 Q969.8338,1280.0469 969.3416,1280.7969 Q968.8494,1281.5469 968.8494,1282.5781 L968.8494,1283.6719 Q968.8494,1284.9063 969.74,1285.7266 Q970.6306,1286.5469 972.2244,1286.5469 Q973.1619,1286.5469 973.8181,1286.2969 Q974.2088,1286.1406 974.6306,1285.7031 Q974.8963,1285.4375 975.0447,1285.3594 Q975.1931,1285.2813 975.3963,1285.2813 Q975.7244,1285.2813 975.9822,1285.5391 Q976.24,1285.7969 976.24,1286.1406 Q976.24,1286.4844 975.8963,1286.8906 Q975.3963,1287.4688 974.5994,1287.7969 Q973.5213,1288.25 972.2244,1288.25 Q970.7088,1288.25 969.5056,1287.625 Q968.5213,1287.125 967.8338,1286.0547 Q967.1463,1284.9844 967.1463,1283.7031 L967.1463,1282.5469 Q967.1463,1281.2188 967.7634,1280.0703 Q968.3806,1278.9219 969.4744,1278.3047 Q970.5681,1277.6875 971.8025,1277.6875 Q972.5369,1277.6875 973.1853,1277.8516 Q973.8338,1278.0156 974.3806,1278.375 Z "/><text fill="#000000" font-family="sans-serif" font-size="12" lengthAdjust="spacingAndGlyphs" textLength="20" x="985.615" y="1287.4102">List</text><line style="stroke: #A80036; stroke-width: 1.5;" x1="957.615" x2="1007.615" y1="1298.5" y2="1298.5"/><line style="stroke: #A80036; stroke-width: 1.5;" x1="957.615" x2="1007.615" y1="1306.5" y2="1306.5"/><!--class java.util.ArrayList--><rect fill="#FEFECE" filter="url(#f5e23bmbe3pof)" height="48" id="java.util.ArrayList" style="stroke: #A80036; stroke-width: 1.5;" width="79" x="1044.11" y="1266.5"/><ellipse cx="1059.11" cy="1282.5" fill="#ADD1B2" rx="11" ry="11" style="stroke: #A80036; stroke-width: 1.0;"/><path d="M1061.8756,1278.375 Q1062.0319,1278.1563 1062.2194,1278.0469 Q1062.4069,1277.9375 1062.6256,1277.9375 Q1063.0006,1277.9375 1063.235,1278.1953 Q1063.4694,1278.4531 1063.4694,1279.0625 L1063.4694,1280.5156 Q1063.4694,1281.125 1063.235,1281.3906 Q1063.0006,1281.6563 1062.6256,1281.6563 Q1062.2819,1281.6563 1062.0788,1281.4531 Q1061.8756,1281.2656 1061.7663,1280.75 Q1061.7194,1280.3906 1061.5319,1280.2031 Q1061.2038,1279.8281 1060.5944,1279.6094 Q1059.985,1279.3906 1059.36,1279.3906 Q1058.5944,1279.3906 1057.9616,1279.7188 Q1057.3288,1280.0469 1056.8366,1280.7969 Q1056.3444,1281.5469 1056.3444,1282.5781 L1056.3444,1283.6719 Q1056.3444,1284.9063 1057.235,1285.7266 Q1058.1256,1286.5469 1059.7194,1286.5469 Q1060.6569,1286.5469 1061.3131,1286.2969 Q1061.7038,1286.1406 1062.1256,1285.7031 Q1062.3913,1285.4375 1062.5397,1285.3594 Q1062.6881,1285.2813 1062.8913,1285.2813 Q1063.2194,1285.2813 1063.4772,1285.5391 Q1063.735,1285.7969 1063.735,1286.1406 Q1063.735,1286.4844 1063.3913,1286.8906 Q1062.8913,1287.4688 1062.0944,1287.7969 Q1061.0163,1288.25 1059.7194,1288.25 Q1058.2038,1288.25 1057.0006,1287.625 Q1056.0163,1287.125 1055.3288,1286.0547 Q1054.6413,1284.9844 1054.6413,1283.7031 L1054.6413,1282.5469 Q1054.6413,1281.2188 1055.2584,1280.0703 Q1055.8756,1278.9219 1056.9694,1278.3047 Q1058.0631,1277.6875 1059.2975,1277.6875 Q1060.0319,1277.6875 1060.6803,1277.8516 Q1061.3288,1278.0156 1061.8756,1278.375 Z "/><text fill="#000000" font-family="sans-serif" font-size="12" lengthAdjust="spacingAndGlyphs" textLength="47" x="1073.11" y="1287.4102">ArrayList</text><line style="stroke: #A80036; stroke-width: 1.5;" x1="1045.11" x2="1122.11" y1="1298.5" y2="1298.5"/><line style="stroke: #A80036; stroke-width: 1.5;" x1="1045.11" x2="1122.11" y1="1306.5" y2="1306.5"/><!--class java.lang.Object--><rect fill="#FEFECE" filter="url(#f5e23bmbe3pof)" height="48" id="java.lang.Object" style="stroke: #A80036; stroke-width: 1.5;" width="67" x="951.115" y="472"/><ellipse cx="966.115" cy="488" fill="#ADD1B2" rx="11" ry="11" style="stroke: #A80036; stroke-width: 1.0;"/><path d="M968.8806,483.875 Q969.0369,483.6563 969.2244,483.5469 Q969.4119,483.4375 969.6306,483.4375 Q970.0056,483.4375 970.24,483.6953 Q970.4744,483.9531 970.4744,484.5625 L970.4744,486.0156 Q970.4744,486.625 970.24,486.8906 Q970.0056,487.1563 969.6306,487.1563 Q969.2869,487.1563 969.0838,486.9531 Q968.8806,486.7656 968.7713,486.25 Q968.7244,485.8906 968.5369,485.7031 Q968.2088,485.3281 967.5994,485.1094 Q966.99,484.8906 966.365,484.8906 Q965.5994,484.8906 964.9666,485.2188 Q964.3338,485.5469 963.8416,486.2969 Q963.3494,487.0469 963.3494,488.0781 L963.3494,489.1719 Q963.3494,490.4063 964.24,491.2266 Q965.1306,492.0469 966.7244,492.0469 Q967.6619,492.0469 968.3181,491.7969 Q968.7088,491.6406 969.1306,491.2031 Q969.3963,490.9375 969.5447,490.8594 Q969.6931,490.7813 969.8963,490.7813 Q970.2244,490.7813 970.4822,491.0391 Q970.74,491.2969 970.74,491.6406 Q970.74,491.9844 970.3963,492.3906 Q969.8963,492.9688 969.0994,493.2969 Q968.0213,493.75 966.7244,493.75 Q965.2088,493.75 964.0056,493.125 Q963.0213,492.625 962.3338,491.5547 Q961.6463,490.4844 961.6463,489.2031 L961.6463,488.0469 Q961.6463,486.7188 962.2634,485.5703 Q962.8806,484.4219 963.9744,483.8047 Q965.0681,483.1875 966.3025,483.1875 Q967.0369,483.1875 967.6853,483.3516 Q968.3338,483.5156 968.8806,483.875 Z "/><text fill="#000000" font-family="sans-serif" font-size="12" lengthAdjust="spacingAndGlyphs" textLength="35" x="980.115" y="492.9102">Object</text><line style="stroke: #A80036; stroke-width: 1.5;" x1="952.115" x2="1017.115" y1="504" y2="504"/><line style="stroke: #A80036; stroke-width: 1.5;" x1="952.115" x2="1017.115" y1="512" y2="512"/><!--link mastermind.models.Combination to java.util.List--><path d="M211.546,840.724 C223.596,864.803 240.9,890.065 264.615,905 C386.8,981.945 803.433,869.362 911.615,965 C954.425,1002.846 973.502,1176.543 979.936,1253.093 " fill="none" id="mastermind.models.Combination-java.util.List" style="stroke: #A80036; stroke-width: 1.0;"/><polygon fill="#A80036" points="980.993,1266.201,984.2571,1256.9087,980.5913,1261.2172,976.2829,1257.5514,980.993,1266.201" style="stroke: #A80036; stroke-width: 1.0;"/><line style="stroke: #A80036; stroke-width: 1.0;" x1="980.5913" x2="979.948" y1="1261.2172" y2="1253.2435"/><polygon fill="#A80036" points="205.883,828.676,204.8155,835.8076,210.9879,839.536,212.0555,832.4044,205.883,828.676" style="stroke: #A80036; stroke-width: 1.0;"/><!--link mastermind.models.Combination to mastermind.models.Color--><path d="M188.615,841.959 C188.615,874.373 188.615,914.578 188.615,951.421 " fill="none" id="mastermind.models.Combination-mastermind.models.Color" style="stroke: #A80036; stroke-width: 1.0;"/><polygon fill="#A80036" points="188.615,964.823,192.615,955.823,188.615,959.823,184.615,955.823,188.615,964.823" style="stroke: #A80036; stroke-width: 1.0;"/><line style="stroke: #A80036; stroke-width: 1.0;" x1="188.615" x2="188.615" y1="959.823" y2="951.823"/><polygon fill="#A80036" points="188.615,828.525,184.615,834.525,188.615,840.525,192.615,834.525,188.615,828.525" style="stroke: #A80036; stroke-width: 1.0;"/><!--link mastermind.models.Game to java.util.List--><path d="M764.023,816.473 C840.55,844.388 927.035,890.657 973.615,965 C1030.35,1055.545 1007.99,1189.953 992.566,1253.596 " fill="none" id="mastermind.models.Game-java.util.List" style="stroke: #A80036; stroke-width: 1.0;"/><polygon fill="#A80036" points="989.318,1266.417,995.406,1258.6751,990.5461,1261.5702,987.651,1256.7102,989.318,1266.417" style="stroke: #A80036; stroke-width: 1.0;"/><line style="stroke: #A80036; stroke-width: 1.0;" x1="990.5461" x2="992.5105" y1="1261.5702" y2="1253.8155"/><polygon fill="#A80036" points="751.343,811.98,755.6628,817.754,762.6541,815.9873,758.3343,810.2133,751.343,811.98" style="stroke: #A80036; stroke-width: 1.0;"/><!--link mastermind.models.Game to mastermind.models.SecretCombination--><path d="M507.721,916.059 C481.977,949.622 456.148,983.296 436.195,1009.309 " fill="none" id="mastermind.models.Game-mastermind.models.SecretCombination" style="stroke: #A80036; stroke-width: 1.0;"/><polygon fill="#A80036" points="428.021,1019.966,436.6725,1015.2595,431.0642,1015.9987,430.3249,1010.3904,428.021,1019.966" style="stroke: #A80036; stroke-width: 1.0;"/><line style="stroke: #A80036; stroke-width: 1.0;" x1="431.0642" x2="435.9335" y1="1015.9987" y2="1009.6505"/><polygon fill="#A80036" points="516.009,905.253,509.1834,907.5792,508.7054,914.7744,515.531,912.4482,516.009,905.253" style="stroke: #A80036; stroke-width: 1.0;"/><!--link mastermind.models.Game to mastermind.models.Result--><path d="M604.053,918.387 C603.147,934.108 602.309,949.894 601.615,965 C598.01,1043.479 595.662,1132.706 594.272,1197.706 " fill="none" id="mastermind.models.Game-mastermind.models.Result" style="stroke: #A80036; stroke-width: 1.0;"/><polygon fill="#A80036" points="593.998,1210.784,598.186,1201.8699,594.1029,1205.7851,590.1878,1201.702,593.998,1210.784" style="stroke: #A80036; stroke-width: 1.0;"/><line style="stroke: #A80036; stroke-width: 1.0;" x1="594.1029" x2="594.27" y1="1205.7851" y2="1197.7875"/><polygon fill="#A80036" points="604.828,905.213,600.4822,910.9674,604.1225,917.1922,608.4683,911.4378,604.828,905.213" style="stroke: #A80036; stroke-width: 1.0;"/><!--link mastermind.models.Game to mastermind.models.ProposedCombination--><path d="M591.651,905.2 C574.546,995.954 549.876,1109.059 526.615,1151 C515.595,1170.87 500.903,1189.818 485.213,1206.968 " fill="none" id="mastermind.models.Game-mastermind.models.ProposedCombination" style="stroke: #A80036; stroke-width: 1.0;"/><polygon fill="#A80036" points="481.637,1210.827,490.6877,1206.9431,485.035,1207.1591,484.819,1201.5063,481.637,1210.827" style="stroke: #A80036; stroke-width: 1.0;"/><!--link mastermind.models.Game to mastermind.models.Memento--><path d="M678.838,905.253 C689.431,925.922 700.21,946.951 710.234,966.509 " fill="none" id="mastermind.models.Game-mastermind.models.Memento" style="stroke: #A80036; stroke-width: 1.0; stroke-dasharray: 7.0,7.0;"/><polygon fill="#A80036" points="712.766,971.448,712.2195,961.6143,710.4849,966.9987,705.1006,965.2641,712.766,971.448" style="stroke: #A80036; stroke-width: 1.0;"/><!--link mastermind.models.Memento to java.util.List--><path d="M854.396,1154.063 C873.221,1172.772 892.66,1192.375 910.615,1211 C924.764,1225.677 940.079,1242.271 952.932,1256.409 " fill="none" id="mastermind.models.Memento-java.util.List" style="stroke: #A80036; stroke-width: 1.0;"/><polygon fill="#A80036" points="961.804,1266.207,958.7285,1256.8506,958.4481,1262.5005,952.7982,1262.2201,961.804,1266.207" style="stroke: #A80036; stroke-width: 1.0;"/><line style="stroke: #A80036; stroke-width: 1.0;" x1="958.4481" x2="953.078" y1="1262.5005" y2="1256.57"/><polygon fill="#A80036" points="844.917,1144.667,846.362,1151.7318,853.4391,1153.1153,851.9942,1146.0504,844.917,1144.667" style="stroke: #A80036; stroke-width: 1.0;"/><!--link mastermind.models.Memento to mastermind.models.Result--><path d="M695.78,1144.502 C681.313,1164.836 665.901,1186.497 651.522,1206.707 " fill="none" id="mastermind.models.Memento-mastermind.models.Result" style="stroke: #A80036; stroke-width: 1.0;"/><polygon fill="#A80036" points="648.47,1210.997,656.9466,1205.9823,651.3685,1206.9228,650.4279,1201.3447,648.47,1210.997" style="stroke: #A80036; stroke-width: 1.0;"/><!--link mastermind.models.Memento to mastermind.models.ProposedCombination--><path d="M620.108,1144.502 C581.19,1168.879 539.228,1195.162 501.86,1218.568 " fill="none" id="mastermind.models.Memento-mastermind.models.ProposedCombination" style="stroke: #A80036; stroke-width: 1.0;"/><polygon fill="#A80036" points="497.326,1221.408,507.0766,1220.02,501.5633,1218.7536,502.8296,1213.2403,497.326,1221.408" style="stroke: #A80036; stroke-width: 1.0;"/><!--link mastermind.models.Combination to mastermind.models.ProposedCombination--><path d="M144.833,846.186 C100.2606,925.109 45.4648,1056.345 104.615,1151 C142.915,1212.29 217.014,1247.178 279.92,1266.606 " fill="none" id="mastermind.models.Combination-mastermind.models.ProposedCombination" style="stroke: #A80036; stroke-width: 1.0;"/><polygon fill="none" points="138.885,842.49,155.004,828.737,150.98,849.541,138.885,842.49" style="stroke: #A80036; stroke-width: 1.0;"/><!--link mastermind.models.ProposedCombination to mastermind.models.Error--><path d="M388.615,1370.091 C388.615,1388.14 388.615,1407.104 388.615,1424.399 " fill="none" id="mastermind.models.ProposedCombination-mastermind.models.Error" style="stroke: #A80036; stroke-width: 1.0; stroke-dasharray: 7.0,7.0;"/><polygon fill="#A80036" points="388.615,1429.71,392.615,1420.71,388.615,1424.71,384.615,1420.71,388.615,1429.71" style="stroke: #A80036; stroke-width: 1.0;"/><!--link mastermind.models.Registry to mastermind.models.Memento--><path d="M769.695,602.576 C771.48,684.977 772.662,802.313 768.615,905 C767.935,922.263 766.821,940.602 765.54,958.348 " fill="none" id="mastermind.models.Registry-mastermind.models.Memento" style="stroke: #A80036; stroke-width: 1.0;"/><polygon fill="#A80036" points="764.556,971.456,769.2183,962.7806,764.9302,966.47,761.2408,962.1819,764.556,971.456" style="stroke: #A80036; stroke-width: 1.0;"/><line style="stroke: #A80036; stroke-width: 1.0;" x1="764.9302" x2="765.529" y1="966.47" y2="958.4925"/><polygon fill="#A80036" points="769.398,589.403,765.5342,595.4916,769.6684,601.4,773.5322,595.3114,769.398,589.403" style="stroke: #A80036; stroke-width: 1.0;"/><!--link mastermind.models.Registry to java.util.ArrayList--><path d="M833.879,600.342 C890.983,692.509 971.022,832.905 1018.61,965 C1055.02,1066.049 1072.92,1192.554 1079.92,1253.456 " fill="none" id="mastermind.models.Registry-java.util.ArrayList" style="stroke: #A80036; stroke-width: 1.0;"/><polygon fill="#A80036" points="1081.37,1266.45,1084.3511,1257.0631,1080.8175,1261.4806,1076.4001,1257.9471,1081.37,1266.45" style="stroke: #A80036; stroke-width: 1.0;"/><line style="stroke: #A80036; stroke-width: 1.0;" x1="1080.8175" x2="1079.93" y1="1261.4806" y2="1253.5295"/><polygon fill="#A80036" points="826.858,589.066,826.6342,596.2736,833.2014,599.2523,833.4251,592.0447,826.858,589.066" style="stroke: #A80036; stroke-width: 1.0;"/><!--link mastermind.models.Registry to mastermind.models.Game--><path d="M716.093,589.128 C706.424,606.76 696.126,625.538 685.929,644.134 " fill="none" id="mastermind.models.Registry-mastermind.models.Game" style="stroke: #A80036; stroke-width: 1.0;"/><polygon fill="#A80036" points="683.338,648.857,691.1727,642.889,685.7422,644.4729,684.1582,639.0424,683.338,648.857" style="stroke: #A80036; stroke-width: 1.0;"/><!--link mastermind.models.Combination to mastermind.models.SecretCombination--><path d="M226.103,845.952 C237.727,865.498 251.062,886.518 264.615,905 C295.088,946.554 334.712,990.149 363.138,1019.942 " fill="none" id="mastermind.models.Combination-mastermind.models.SecretCombination" style="stroke: #A80036; stroke-width: 1.0;"/><polygon fill="none" points="219.973,849.335,215.953,828.531,232.07,842.287,219.973,849.335" style="stroke: #A80036; stroke-width: 1.0;"/><!--link mastermind.models.SecretCombination to mastermind.models.Result--><path d="M430.624,1096.034 C457.046,1127.59 495.871,1173.958 528.887,1213.39 " fill="none" id="mastermind.models.SecretCombination-mastermind.models.Result" style="stroke: #A80036; stroke-width: 1.0; stroke-dasharray: 7.0,7.0;"/><polygon fill="#A80036" points="532.472,1217.672,529.76,1208.2039,529.2617,1213.8388,523.6268,1213.3404,532.472,1217.672" style="stroke: #A80036; stroke-width: 1.0;"/><!--link mastermind.models.SecretCombination to mastermind.models.ProposedCombination--><path d="M397.848,1096.034 C396.441,1125.507 394.418,1167.903 392.624,1205.499 " fill="none" id="mastermind.models.SecretCombination-mastermind.models.ProposedCombination" style="stroke: #A80036; stroke-width: 1.0; stroke-dasharray: 7.0,7.0;"/><polygon fill="#A80036" points="392.383,1210.533,396.8079,1201.7341,392.6216,1205.5387,388.817,1201.3524,392.383,1210.533" style="stroke: #A80036; stroke-width: 1.0;"/><!--link mastermind.models.Session to mastermind.models.Registry--><path d="M693.395,355.02 C699.769,367.21 706.114,379.34 712.25,391.07 " fill="none" id="mastermind.models.Session-mastermind.models.Registry" style="stroke: #A80036; stroke-width: 1.0;"/><polygon fill="#A80036" points="718.311,402.65,717.6917,392.8206,715.997,398.2177,710.6,396.523,718.311,402.65" style="stroke: #A80036; stroke-width: 1.0;"/><line style="stroke: #A80036; stroke-width: 1.0;" x1="715.997" x2="712.285" y1="398.2177" y2="391.135"/><polygon fill="#A80036" points="687.202,343.18,686.4403,350.3508,692.7665,353.8119,693.5282,346.6411,687.202,343.18" style="stroke: #A80036; stroke-width: 1.0;"/><!--link mastermind.models.Session to mastermind.models.State--><path d="M517.981,354.53 C502.132,379.72 486.427,404.69 472.751,426.43 " fill="none" id="mastermind.models.Session-mastermind.models.State" style="stroke: #A80036; stroke-width: 1.0;"/><polygon fill="#A80036" points="465.794,437.49,473.9742,432.0051,468.4581,433.2588,467.2044,427.7426,465.794,437.49" style="stroke: #A80036; stroke-width: 1.0;"/><line style="stroke: #A80036; stroke-width: 1.0;" x1="468.4581" x2="472.7165" y1="433.2588" y2="426.485"/><polygon fill="#A80036" points="525.118,343.18,518.536,346.1258,518.7237,353.3344,525.3057,350.3887,525.118,343.18" style="stroke: #A80036; stroke-width: 1.0;"/><!--link mastermind.models.Session to mastermind.models.Game--><path d="M613.615,356.19 C613.615,443.05 613.615,550.85 613.615,635.465 " fill="none" id="mastermind.models.Session-mastermind.models.Game" style="stroke: #A80036; stroke-width: 1.0;"/><polygon fill="#A80036" points="613.615,648.572,617.615,639.572,613.615,643.572,609.615,639.572,613.615,648.572" style="stroke: #A80036; stroke-width: 1.0;"/><line style="stroke: #A80036; stroke-width: 1.0;" x1="613.615" x2="613.615" y1="643.572" y2="635.572"/><polygon fill="#A80036" points="613.615,343.16,609.615,349.16,613.615,355.16,617.615,349.16,613.615,343.16" style="stroke: #A80036; stroke-width: 1.0;"/><!--link mastermind.models.Session to java.lang.Object--><path d="M744.824,279.03 C798.89,313.54 860.475,356.88 910.615,403 C931.795,422.48 951.998,448.26 965.927,467.57 " fill="none" id="mastermind.models.Session-java.lang.Object" style="stroke: #A80036; stroke-width: 1.0; stroke-dasharray: 7.0,7.0;"/><polygon fill="#A80036" points="968.978,471.84,966.9874,462.1944,966.0657,467.7757,960.4845,466.854,968.978,471.84" style="stroke: #A80036; stroke-width: 1.0;"/><!--link mastermind.models.Session to mastermind.models.ProposedCombination--><path d="M482.599,275.44 C361.434,351.12 188.934,481.8 112.615,649 C19.6607,852.642 -50.9577,963.686 71.615,1151 C116.415,1219.462 203.303,1254.281 274.799,1271.876 " fill="none" id="mastermind.models.Session-mastermind.models.ProposedCombination" style="stroke: #A80036; stroke-width: 1.0; stroke-dasharray: 7.0,7.0;"/><polygon fill="#A80036" points="279.919,1273.113,272.1102,1267.1111,275.0589,1271.9387,270.2313,1274.8873,279.919,1273.113" style="stroke: #A80036; stroke-width: 1.0;"/><!--link mastermind.models.State to mastermind.models.StateValue--><path d="M415.525,554.81 C404.791,598.853 389.967,659.671 378.581,706.389 " fill="none" id="mastermind.models.State-mastermind.models.StateValue" style="stroke: #A80036; stroke-width: 1.0;"/><polygon fill="#A80036" points="377.35,711.439,383.3676,703.6423,378.5341,706.5812,375.5951,701.7477,377.35,711.439" style="stroke: #A80036; stroke-width: 1.0;"/><!--
@startuml

class  mastermind.models.Color{
+ {static} RED: Color
+ {static} BLUE: Color
+ {static} YELLOW: Color
+ {static} GREEN: Color
+ {static} ORANGE: Color
+ {static} PURPLE: Color
- Color()
+ {static} valueOf(String): Color
~ {static} length(): int
~ {static} getInstance(int): Color
}

class  mastermind.models.Combination{
- {static} WIDTH: int
# colors: List<Color>
# Combination()
+ {static} getWidth(): int
}
mastermind.models.Combination *-down-> java.util.List
mastermind.models.Combination *-down-> mastermind.models.Color

class  mastermind.models.Error{
+ {static} DUPLICATED: Error
+ {static} WRONG_CHARACTERS: Error
+ {static} WRONG_LENGTH: Error
- Error()
+ {static} valueOf(String): Error
}

class  mastermind.models.Game{
- {static} MAX_LONG: int
- secretCombination: SecretCombination
- proposedCombinations: List<ProposedCombination>
- results: List<Result>
- turn: int
+ Game()
+ clear(): void
+ set(Memento): void
+ proposeCombination(ProposedCombination): void
+ isWinner(): boolean
+ isLooser(): boolean
+ getWidth(): int
+ getTurn(): int
+ getCodes(): int[][][]
+ createMemento(): Memento
}
mastermind.models.Game *-down-> java.util.List
mastermind.models.Game *-down-> mastermind.models.SecretCombination
mastermind.models.Game *-down-> mastermind.models.Result
mastermind.models.Game - -> mastermind.models.ProposedCombination
mastermind.models.Game ..> mastermind.models.Memento

class  mastermind.models.Memento{
- proposedCombinations: List<ProposedCombination>
- results: List<Result>
- turn: int
~ Memento(int)
~ set(ProposedCombination, Result): void
~ getSize(): int
~ getResult(int): Result
~ getProposedCombination(int): ProposedCombination
~ getTurn(): int
}
mastermind.models.Memento *-down-> java.util.List
mastermind.models.Memento - -> mastermind.models.Result
mastermind.models.Memento - -> mastermind.models.ProposedCombination

class  mastermind.models.ProposedCombination{
+ ProposedCombination()
~ contains(Color, int): boolean
~ contains(Color): boolean
+ {static} getInstance(int[]): ProposedCombination
+ copy(): ProposedCombination
+ {static} isValid(int[]): Error
~ getCodes(): int[]
~ setCodes(int[]): void
}
mastermind.models.Combination <|-down- mastermind.models.ProposedCombination
mastermind.models.ProposedCombination ..> mastermind.models.Error

class  mastermind.models.Registry{
- mementoList: ArrayList<Memento>
- game: Game
- firstPrevious: int
~ Registry(Game)
+ reset(): void
~ undo(Game): void
~ redo(Game): void
~ registry(): void
~ redoable(): boolean
~ undoable(): boolean
}
mastermind.models.Registry *-down-> mastermind.models.Memento
mastermind.models.Registry *-down-> java.util.ArrayList
mastermind.models.Registry - -> mastermind.models.Game

class  mastermind.models.Result{
- blacks: int
- whites: int
~ Result(int, int)
+ copy(): Result
~ isWinner(): boolean
~ getCodes(): int[]
~ getBlacks(): int
~ getWhites(): int
}

class  mastermind.models.SecretCombination{
~ SecretCombination()
~ getResult(ProposedCombination): Result
}
mastermind.models.Combination <|-down- mastermind.models.SecretCombination
mastermind.models.SecretCombination ..> mastermind.models.Result
mastermind.models.SecretCombination ..> mastermind.models.ProposedCombination

class  mastermind.models.Session{
- state: State
- game: Game
- registry: Registry
+ Session()
+ next(): void
+ resume(): void
+ proposeCombination(ProposedCombination): void
+ isWinner(): boolean
+ undo(): void
+ isLooser(): boolean
+ getValueState(): Object
+ getWidth(): int
+ redo(): void
+ getTurn(): int
+ getCodes(): int[][][]
+ redoable(): boolean
+ undoable(): boolean
}
mastermind.models.Session *-down-> mastermind.models.Registry
mastermind.models.Session *-down-> mastermind.models.State
mastermind.models.Session *-down-> mastermind.models.Game
mastermind.models.Session ..> java.lang.Object
mastermind.models.Session ..> mastermind.models.ProposedCombination

class  mastermind.models.State{
- stateValue: StateValue
+ State()
+ next(): void
+ reset(): void
+ getValueState(): StateValue
}
mastermind.models.State - -> mastermind.models.StateValue

class  mastermind.models.StateValue{
+ {static} INITIAL: StateValue
+ {static} IN_GAME: StateValue
+ {static} FINAL: StateValue
+ {static} EXIT: StateValue
- StateValue()
+ {static} valueOf(String): StateValue
}

@enduml

PlantUML version 1.2019.05(Sat Apr 20 18:45:36 CEST 2019)
(GPL source distribution)
Java Runtime: OpenJDK Runtime Environment
JVM: OpenJDK 64-Bit Server VM
Java Version: 1.8.0_222-b10
Operating System: Windows 10
OS Version: 10.0
Default Encoding: windows-1252
Language: es
Country: ES
--></g></svg>