<?xml version="1.0" encoding="UTF-8" standalone="no"?><svg xmlns="http://www.w3.org/2000/svg" xmlns:xlink="http://www.w3.org/1999/xlink" contentScriptType="application/ecmascript" contentStyleType="text/css" height="329px" preserveAspectRatio="none" style="width:390px;height:329px;" version="1.1" viewBox="0 0 390 329" width="390px" zoomAndPan="magnify"><defs><filter height="300%" id="f1i2kpt7dd0l2b" width="300%" x="-1" y="-1"><feGaussianBlur result="blurOut" stdDeviation="2.0"/><feColorMatrix in="blurOut" result="blurOut2" type="matrix" values="0 0 0 0 0 0 0 0 0 0 0 0 0 0 0 0 0 0 .4 0"/><feOffset dx="4.0" dy="4.0" in="blurOut2" result="blurOut3"/><feBlend in="SourceGraphic" in2="blurOut3" mode="normal"/></filter></defs><g><!--cluster mastermind--><polygon fill="#FFFFFF" filter="url(#f1i2kpt7dd0l2b)" points="138,24,226,24,233,47.6094,286,47.6094,286,193,138,193,138,24" style="stroke: #000000; stroke-width: 1.5;"/><line style="stroke: #000000; stroke-width: 1.5;" x1="138" x2="233" y1="47.6094" y2="47.6094"/><text fill="#000000" font-family="sans-serif" font-size="14" font-weight="bold" lengthAdjust="spacingAndGlyphs" textLength="82" x="142" y="40.5332">mastermind</text><!--cluster mastermind.controllers--><polygon fill="#FFFFFF" filter="url(#f1i2kpt7dd0l2b)" points="22,217,191,217,198,240.6094,201,240.6094,201,317,22,317,22,217" style="stroke: #000000; stroke-width: 1.5;"/><line style="stroke: #000000; stroke-width: 1.5;" x1="22" x2="198" y1="240.6094" y2="240.6094"/><text fill="#000000" font-family="sans-serif" font-size="14" font-weight="bold" lengthAdjust="spacingAndGlyphs" textLength="163" x="26" y="233.5332">mastermind.controllers</text><!--cluster mastermind.views--><polygon fill="#FFFFFF" filter="url(#f1i2kpt7dd0l2b)" points="225,217,358,217,365,240.6094,368,240.6094,368,317,225,317,225,217" style="stroke: #000000; stroke-width: 1.5;"/><line style="stroke: #000000; stroke-width: 1.5;" x1="225" x2="365" y1="240.6094" y2="240.6094"/><text fill="#000000" font-family="sans-serif" font-size="14" font-weight="bold" lengthAdjust="spacingAndGlyphs" textLength="127" x="229" y="233.5332">mastermind.views</text><!--class mastermind.Mastermind--><rect fill="#FEFECE" filter="url(#f1i2kpt7dd0l2b)" height="117.1797" id="mastermind.Mastermind" style="stroke: #A80036; stroke-width: 1.5;" width="116" x="154" y="60"/><ellipse cx="177.55" cy="76" fill="#ADD1B2" rx="11" ry="11" style="stroke: #A80036; stroke-width: 1.0;"/><path d="M180.3156,71.875 Q180.4719,71.6563 180.6594,71.5469 Q180.8469,71.4375 181.0656,71.4375 Q181.4406,71.4375 181.675,71.6953 Q181.9094,71.9531 181.9094,72.5625 L181.9094,74.0156 Q181.9094,74.625 181.675,74.8906 Q181.4406,75.1563 181.0656,75.1563 Q180.7219,75.1563 180.5188,74.9531 Q180.3156,74.7656 180.2063,74.25 Q180.1594,73.8906 179.9719,73.7031 Q179.6438,73.3281 179.0344,73.1094 Q178.425,72.8906 177.8,72.8906 Q177.0344,72.8906 176.4016,73.2188 Q175.7688,73.5469 175.2766,74.2969 Q174.7844,75.0469 174.7844,76.0781 L174.7844,77.1719 Q174.7844,78.4063 175.675,79.2266 Q176.5656,80.0469 178.1594,80.0469 Q179.0969,80.0469 179.7531,79.7969 Q180.1438,79.6406 180.5656,79.2031 Q180.8313,78.9375 180.9797,78.8594 Q181.1281,78.7813 181.3313,78.7813 Q181.6594,78.7813 181.9172,79.0391 Q182.175,79.2969 182.175,79.6406 Q182.175,79.9844 181.8313,80.3906 Q181.3313,80.9688 180.5344,81.2969 Q179.4563,81.75 178.1594,81.75 Q176.6438,81.75 175.4406,81.125 Q174.4563,80.625 173.7688,79.5547 Q173.0813,78.4844 173.0813,77.2031 L173.0813,76.0469 Q173.0813,74.7188 173.6984,73.5703 Q174.3156,72.4219 175.4094,71.8047 Q176.5031,71.1875 177.7375,71.1875 Q178.4719,71.1875 179.1203,71.3516 Q179.7688,71.5156 180.3156,71.875 Z "/><text fill="#000000" font-family="sans-serif" font-size="12" lengthAdjust="spacingAndGlyphs" textLength="65" x="193.45" y="80.9102">Mastermind</text><line style="stroke: #A80036; stroke-width: 1.5;" x1="155" x2="269" y1="92" y2="92"/><rect fill="none" height="6" style="stroke: #C82930; stroke-width: 1.0;" width="6" x="162" y="101.418"/><text fill="#000000" font-family="sans-serif" font-size="11" lengthAdjust="spacingAndGlyphs" textLength="54" x="174" y="107.4189">logic: Logic</text><rect fill="none" height="6" style="stroke: #C82930; stroke-width: 1.0;" width="6" x="162" y="115.2539"/><text fill="#000000" font-family="sans-serif" font-size="11" lengthAdjust="spacingAndGlyphs" textLength="56" x="174" y="121.2549">view: View</text><line style="stroke: #A80036; stroke-width: 1.5;" x1="155" x2="269" y1="127.6719" y2="127.6719"/><polygon fill="#FFFF44" points="165,135.0898,169,139.0898,165,143.0898,161,139.0898" style="stroke: #B38D22; stroke-width: 1.0;"/><text fill="#000000" font-family="sans-serif" font-size="11" lengthAdjust="spacingAndGlyphs" textLength="63" x="174" y="143.0908">Mastermind()</text><ellipse cx="165" cy="153.9258" fill="#84BE84" rx="3" ry="3" style="stroke: #038048; stroke-width: 1.0;"/><text fill="#000000" font-family="sans-serif" font-size="11" lengthAdjust="spacingAndGlyphs" text-decoration="underline" textLength="90" x="174" y="156.9268">main(String[]): void</text><polygon fill="#FFFF44" points="165,162.7617,169,166.7617,165,170.7617,161,166.7617" style="stroke: #B38D22; stroke-width: 1.0;"/><text fill="#000000" font-family="sans-serif" font-size="11" lengthAdjust="spacingAndGlyphs" textLength="54" x="174" y="170.7627">play(): void</text><!--class mastermind.controllers.Logic--><rect fill="#FEFECE" filter="url(#f1i2kpt7dd0l2b)" height="48" id="mastermind.controllers.Logic" style="stroke: #A80036; stroke-width: 1.5;" width="62" x="123" y="253"/><ellipse cx="138" cy="269" fill="#ADD1B2" rx="11" ry="11" style="stroke: #A80036; stroke-width: 1.0;"/><path d="M140.7656,264.875 Q140.9219,264.6563 141.1094,264.5469 Q141.2969,264.4375 141.5156,264.4375 Q141.8906,264.4375 142.125,264.6953 Q142.3594,264.9531 142.3594,265.5625 L142.3594,267.0156 Q142.3594,267.625 142.125,267.8906 Q141.8906,268.1563 141.5156,268.1563 Q141.1719,268.1563 140.9688,267.9531 Q140.7656,267.7656 140.6563,267.25 Q140.6094,266.8906 140.4219,266.7031 Q140.0938,266.3281 139.4844,266.1094 Q138.875,265.8906 138.25,265.8906 Q137.4844,265.8906 136.8516,266.2188 Q136.2188,266.5469 135.7266,267.2969 Q135.2344,268.0469 135.2344,269.0781 L135.2344,270.1719 Q135.2344,271.4063 136.125,272.2266 Q137.0156,273.0469 138.6094,273.0469 Q139.5469,273.0469 140.2031,272.7969 Q140.5938,272.6406 141.0156,272.2031 Q141.2813,271.9375 141.4297,271.8594 Q141.5781,271.7813 141.7813,271.7813 Q142.1094,271.7813 142.3672,272.0391 Q142.625,272.2969 142.625,272.6406 Q142.625,272.9844 142.2813,273.3906 Q141.7813,273.9688 140.9844,274.2969 Q139.9063,274.75 138.6094,274.75 Q137.0938,274.75 135.8906,274.125 Q134.9063,273.625 134.2188,272.5547 Q133.5313,271.4844 133.5313,270.2031 L133.5313,269.0469 Q133.5313,267.7188 134.1484,266.5703 Q134.7656,265.4219 135.8594,264.8047 Q136.9531,264.1875 138.1875,264.1875 Q138.9219,264.1875 139.5703,264.3516 Q140.2188,264.5156 140.7656,264.875 Z "/><text fill="#000000" font-family="sans-serif" font-size="12" lengthAdjust="spacingAndGlyphs" textLength="30" x="152" y="273.9102">Logic</text><line style="stroke: #A80036; stroke-width: 1.5;" x1="124" x2="184" y1="285" y2="285"/><line style="stroke: #A80036; stroke-width: 1.5;" x1="124" x2="184" y1="293" y2="293"/><!--class mastermind.views.View--><rect fill="#FEFECE" filter="url(#f1i2kpt7dd0l2b)" height="48" id="mastermind.views.View" style="stroke: #A80036; stroke-width: 1.5;" width="58" x="241" y="253"/><ellipse cx="256" cy="269" fill="#ADD1B2" rx="11" ry="11" style="stroke: #A80036; stroke-width: 1.0;"/><path d="M258.7656,264.875 Q258.9219,264.6563 259.1094,264.5469 Q259.2969,264.4375 259.5156,264.4375 Q259.8906,264.4375 260.125,264.6953 Q260.3594,264.9531 260.3594,265.5625 L260.3594,267.0156 Q260.3594,267.625 260.125,267.8906 Q259.8906,268.1563 259.5156,268.1563 Q259.1719,268.1563 258.9688,267.9531 Q258.7656,267.7656 258.6563,267.25 Q258.6094,266.8906 258.4219,266.7031 Q258.0938,266.3281 257.4844,266.1094 Q256.875,265.8906 256.25,265.8906 Q255.4844,265.8906 254.8516,266.2188 Q254.2188,266.5469 253.7266,267.2969 Q253.2344,268.0469 253.2344,269.0781 L253.2344,270.1719 Q253.2344,271.4063 254.125,272.2266 Q255.0156,273.0469 256.6094,273.0469 Q257.5469,273.0469 258.2031,272.7969 Q258.5938,272.6406 259.0156,272.2031 Q259.2813,271.9375 259.4297,271.8594 Q259.5781,271.7813 259.7813,271.7813 Q260.1094,271.7813 260.3672,272.0391 Q260.625,272.2969 260.625,272.6406 Q260.625,272.9844 260.2813,273.3906 Q259.7813,273.9688 258.9844,274.2969 Q257.9063,274.75 256.6094,274.75 Q255.0938,274.75 253.8906,274.125 Q252.9063,273.625 252.2188,272.5547 Q251.5313,271.4844 251.5313,270.2031 L251.5313,269.0469 Q251.5313,267.7188 252.1484,266.5703 Q252.7656,265.4219 253.8594,264.8047 Q254.9531,264.1875 256.1875,264.1875 Q256.9219,264.1875 257.5703,264.3516 Q258.2188,264.5156 258.7656,264.875 Z "/><text fill="#000000" font-family="sans-serif" font-size="12" lengthAdjust="spacingAndGlyphs" textLength="26" x="270" y="273.9102">View</text><line style="stroke: #A80036; stroke-width: 1.5;" x1="242" x2="298" y1="285" y2="285"/><line style="stroke: #A80036; stroke-width: 1.5;" x1="242" x2="298" y1="293" y2="293"/><!--link mastermind.Mastermind to mastermind.controllers.Logic--><path d="M185.959,189.765 C179.471,207.274 172.782,225.321 167.212,240.3517 " fill="none" id="mastermind.Mastermind-mastermind.controllers.Logic" style="stroke: #A80036; stroke-width: 1.0;"/><polygon fill="#A80036" points="162.637,252.6945,169.5153,245.6455,164.3746,248.0061,162.0139,242.8654,162.637,252.6945" style="stroke: #A80036; stroke-width: 1.0;"/><line style="stroke: #A80036; stroke-width: 1.0;" x1="164.3746" x2="167.1545" y1="248.0061" y2="240.5047"/><polygon fill="#A80036" points="190.568,177.33,184.7322,181.566,186.3979,188.5821,192.2337,184.3461,190.568,177.33" style="stroke: #A80036; stroke-width: 1.0;"/><!--link mastermind.Mastermind to mastermind.views.View--><path d="M238.041,189.765 C244.529,207.274 251.218,225.321 256.788,240.3517 " fill="none" id="mastermind.Mastermind-mastermind.views.View" style="stroke: #A80036; stroke-width: 1.0;"/><polygon fill="#A80036" points="261.363,252.6945,261.9861,242.8654,259.6254,248.0061,254.4847,245.6455,261.363,252.6945" style="stroke: #A80036; stroke-width: 1.0;"/><line style="stroke: #A80036; stroke-width: 1.0;" x1="259.6254" x2="256.8455" y1="248.0061" y2="240.5047"/><polygon fill="#A80036" points="233.432,177.33,231.7663,184.3461,237.6021,188.5821,239.2678,181.566,233.432,177.33" style="stroke: #A80036; stroke-width: 1.0;"/><!--
@startuml

class  mastermind.Mastermind{
- logic: Logic
- view: View
# Mastermind()
+ {static} main(String[]): void
# play(): void
}
mastermind.Mastermind *-down-> mastermind.controllers.Logic
mastermind.Mastermind *-down-> mastermind.views.View

@enduml

PlantUML version 1.2019.05(Sat Apr 20 18:45:36 CEST 2019)
(GPL source distribution)
Java Runtime: OpenJDK Runtime Environment
JVM: OpenJDK 64-Bit Server VM
Java Version: 1.8.0_222-b10
Operating System: Windows 10
OS Version: 10.0
Default Encoding: windows-1252
Language: es
Country: ES
--></g></svg>