<?xml version="1.0" encoding="UTF-8" standalone="no"?><svg xmlns="http://www.w3.org/2000/svg" xmlns:xlink="http://www.w3.org/1999/xlink" contentScriptType="application/ecmascript" contentStyleType="text/css" height="628px" preserveAspectRatio="none" style="width:1039px;height:628px;" version="1.1" viewBox="0 0 1039 628" width="1039px" zoomAndPan="magnify"><defs><filter height="300%" id="fil9jtc6hxjen" width="300%" x="-1" y="-1"><feGaussianBlur result="blurOut" stdDeviation="2.0"/><feColorMatrix in="blurOut" result="blurOut2" type="matrix" values="0 0 0 0 0 0 0 0 0 0 0 0 0 0 0 0 0 0 .4 0"/><feOffset dx="4.0" dy="4.0" in="blurOut2" result="blurOut3"/><feBlend in="SourceGraphic" in2="blurOut3" mode="normal"/></filter></defs><g><!--cluster mastermind.utils--><polygon fill="#FFFFFF" filter="url(#fil9jtc6hxjen)" points="22,24,144,24,151,47.6094,705,47.6094,705,616,22,616,22,24" style="stroke: #000000; stroke-width: 1.5;"/><line style="stroke: #000000; stroke-width: 1.5;" x1="22" x2="151" y1="47.6094" y2="47.6094"/><text fill="#000000" font-family="sans-serif" font-size="14" font-weight="bold" lengthAdjust="spacingAndGlyphs" textLength="116" x="26" y="40.5332">mastermind.utils</text><!--cluster java.io--><polygon fill="#FFFFFF" filter="url(#fil9jtc6hxjen)" points="729,481.5,781,481.5,788,505.1094,881,505.1094,881,581.5,729,581.5,729,481.5" style="stroke: #000000; stroke-width: 1.5;"/><line style="stroke: #000000; stroke-width: 1.5;" x1="729" x2="788" y1="505.1094" y2="505.1094"/><text fill="#000000" font-family="sans-serif" font-size="14" font-weight="bold" lengthAdjust="spacingAndGlyphs" textLength="46" x="733" y="498.0332">java.io</text><!--cluster java.util--><polygon fill="#FFFFFF" filter="url(#fil9jtc6hxjen)" points="905,481.5,966,481.5,973,505.1094,1017,505.1094,1017,581.5,905,581.5,905,481.5" style="stroke: #000000; stroke-width: 1.5;"/><line style="stroke: #000000; stroke-width: 1.5;" x1="905" x2="973" y1="505.1094" y2="505.1094"/><text fill="#000000" font-family="sans-serif" font-size="14" font-weight="bold" lengthAdjust="spacingAndGlyphs" textLength="55" x="909" y="498.0332">java.util</text><!--class mastermind.utils.ClosedInterval--><rect fill="#FEFECE" filter="url(#fil9jtc6hxjen)" height="103.3438" id="mastermind.utils.ClosedInterval" style="stroke: #A80036; stroke-width: 1.5;" width="130" x="486" y="60"/><ellipse cx="509.55" cy="76" fill="#ADD1B2" rx="11" ry="11" style="stroke: #A80036; stroke-width: 1.0;"/><path d="M512.3156,71.875 Q512.4719,71.6563 512.6594,71.5469 Q512.8469,71.4375 513.0656,71.4375 Q513.4406,71.4375 513.675,71.6953 Q513.9094,71.9531 513.9094,72.5625 L513.9094,74.0156 Q513.9094,74.625 513.675,74.8906 Q513.4406,75.1563 513.0656,75.1563 Q512.7219,75.1563 512.5188,74.9531 Q512.3156,74.7656 512.2063,74.25 Q512.1594,73.8906 511.9719,73.7031 Q511.6438,73.3281 511.0344,73.1094 Q510.425,72.8906 509.8,72.8906 Q509.0344,72.8906 508.4016,73.2188 Q507.7688,73.5469 507.2766,74.2969 Q506.7844,75.0469 506.7844,76.0781 L506.7844,77.1719 Q506.7844,78.4063 507.675,79.2266 Q508.5656,80.0469 510.1594,80.0469 Q511.0969,80.0469 511.7531,79.7969 Q512.1438,79.6406 512.5656,79.2031 Q512.8313,78.9375 512.9797,78.8594 Q513.1281,78.7813 513.3313,78.7813 Q513.6594,78.7813 513.9172,79.0391 Q514.175,79.2969 514.175,79.6406 Q514.175,79.9844 513.8313,80.3906 Q513.3313,80.9688 512.5344,81.2969 Q511.4563,81.75 510.1594,81.75 Q508.6438,81.75 507.4406,81.125 Q506.4563,80.625 505.7688,79.5547 Q505.0813,78.4844 505.0813,77.2031 L505.0813,76.0469 Q505.0813,74.7188 505.6984,73.5703 Q506.3156,72.4219 507.4094,71.8047 Q508.5031,71.1875 509.7375,71.1875 Q510.4719,71.1875 511.1203,71.3516 Q511.7688,71.5156 512.3156,71.875 Z "/><text fill="#000000" font-family="sans-serif" font-size="12" lengthAdjust="spacingAndGlyphs" textLength="79" x="525.45" y="80.9102">ClosedInterval</text><line style="stroke: #A80036; stroke-width: 1.5;" x1="487" x2="615" y1="92" y2="92"/><rect fill="none" height="6" style="stroke: #C82930; stroke-width: 1.0;" width="6" x="494" y="101.418"/><text fill="#000000" font-family="sans-serif" font-size="11" lengthAdjust="spacingAndGlyphs" textLength="33" x="506" y="107.4189">min: int</text><rect fill="none" height="6" style="stroke: #C82930; stroke-width: 1.0;" width="6" x="494" y="115.2539"/><text fill="#000000" font-family="sans-serif" font-size="11" lengthAdjust="spacingAndGlyphs" textLength="37" x="506" y="121.2549">max: int</text><line style="stroke: #A80036; stroke-width: 1.5;" x1="487" x2="615" y1="127.6719" y2="127.6719"/><ellipse cx="497" cy="140.0898" fill="#84BE84" rx="3" ry="3" style="stroke: #038048; stroke-width: 1.0;"/><text fill="#000000" font-family="sans-serif" font-size="11" lengthAdjust="spacingAndGlyphs" textLength="104" x="506" y="143.0908">ClosedInterval(int, int)</text><ellipse cx="497" cy="153.9258" fill="#84BE84" rx="3" ry="3" style="stroke: #038048; stroke-width: 1.0;"/><text fill="#000000" font-family="sans-serif" font-size="11" lengthAdjust="spacingAndGlyphs" textLength="103" x="506" y="156.9268">includes(int): boolean</text><!--class mastermind.utils.Command--><rect fill="#FEFECE" filter="url(#fil9jtc6hxjen)" height="117.1797" id="mastermind.utils.Command" style="stroke: #A80036; stroke-width: 1.5;" width="119" x="187.5" y="483"/><ellipse cx="215.1" cy="499" fill="#ADD1B2" rx="11" ry="11" style="stroke: #A80036; stroke-width: 1.0;"/><path d="M217.8656,494.875 Q218.0219,494.6563 218.2094,494.5469 Q218.3969,494.4375 218.6156,494.4375 Q218.9906,494.4375 219.225,494.6953 Q219.4594,494.9531 219.4594,495.5625 L219.4594,497.0156 Q219.4594,497.625 219.225,497.8906 Q218.9906,498.1563 218.6156,498.1563 Q218.2719,498.1563 218.0688,497.9531 Q217.8656,497.7656 217.7563,497.25 Q217.7094,496.8906 217.5219,496.7031 Q217.1938,496.3281 216.5844,496.1094 Q215.975,495.8906 215.35,495.8906 Q214.5844,495.8906 213.9516,496.2188 Q213.3188,496.5469 212.8266,497.2969 Q212.3344,498.0469 212.3344,499.0781 L212.3344,500.1719 Q212.3344,501.4063 213.225,502.2266 Q214.1156,503.0469 215.7094,503.0469 Q216.6469,503.0469 217.3031,502.7969 Q217.6938,502.6406 218.1156,502.2031 Q218.3813,501.9375 218.5297,501.8594 Q218.6781,501.7813 218.8813,501.7813 Q219.2094,501.7813 219.4672,502.0391 Q219.725,502.2969 219.725,502.6406 Q219.725,502.9844 219.3813,503.3906 Q218.8813,503.9688 218.0844,504.2969 Q217.0063,504.75 215.7094,504.75 Q214.1938,504.75 212.9906,504.125 Q212.0063,503.625 211.3188,502.5547 Q210.6313,501.4844 210.6313,500.2031 L210.6313,499.0469 Q210.6313,497.7188 211.2484,496.5703 Q211.8656,495.4219 212.9594,494.8047 Q214.0531,494.1875 215.2875,494.1875 Q216.0219,494.1875 216.6703,494.3516 Q217.3188,494.5156 217.8656,494.875 Z "/><text fill="#000000" font-family="sans-serif" font-size="12" lengthAdjust="spacingAndGlyphs" textLength="59" x="231.9" y="503.9102">Command</text><line style="stroke: #A80036; stroke-width: 1.5;" x1="188.5" x2="305.5" y1="515" y2="515"/><polygon fill="none" points="198.5,522.418,202.5,526.418,198.5,530.418,194.5,526.418" style="stroke: #B38D22; stroke-width: 1.0;"/><text fill="#000000" font-family="sans-serif" font-size="11" lengthAdjust="spacingAndGlyphs" textLength="50" x="207.5" y="530.4189">title: String</text><line style="stroke: #A80036; stroke-width: 1.5;" x1="188.5" x2="305.5" y1="536.8359" y2="536.8359"/><polygon fill="#FFFF44" points="198.5,544.2539,202.5,548.2539,198.5,552.2539,194.5,548.2539" style="stroke: #B38D22; stroke-width: 1.0;"/><text fill="#000000" font-family="sans-serif" font-size="11" lengthAdjust="spacingAndGlyphs" textLength="83" x="207.5" y="552.2549">Command(String)</text><polygon fill="#FFFF44" points="198.5,558.0898,202.5,562.0898,198.5,566.0898,194.5,562.0898" style="stroke: #B38D22; stroke-width: 1.0;"/><text fill="#000000" font-family="sans-serif" font-size="11" font-style="italic" lengthAdjust="spacingAndGlyphs" textLength="73" x="207.5" y="566.0908">execute(): void</text><polygon fill="#FFFF44" points="198.5,571.9258,202.5,575.9258,198.5,579.9258,194.5,575.9258" style="stroke: #B38D22; stroke-width: 1.0;"/><text fill="#000000" font-family="sans-serif" font-size="11" font-style="italic" lengthAdjust="spacingAndGlyphs" textLength="93" x="207.5" y="579.9268">isActive(): boolean</text><polygon fill="#4177AF" points="198.5,586.7617,194.5,592.7617,202.5,592.7617" style="stroke: #1963A0; stroke-width: 1.0;"/><text fill="#000000" font-family="sans-serif" font-size="11" lengthAdjust="spacingAndGlyphs" textLength="76" x="207.5" y="593.7627">getTitle(): String</text><!--class mastermind.utils.WithConsoleView--><rect fill="#FEFECE" filter="url(#fil9jtc6hxjen)" height="75.6719" id="mastermind.utils.WithConsoleView" style="stroke: #A80036; stroke-width: 1.5;" width="129" x="176.5" y="73.5"/><ellipse cx="191.5" cy="89.5" fill="#ADD1B2" rx="11" ry="11" style="stroke: #A80036; stroke-width: 1.0;"/><path d="M194.2656,85.375 Q194.4219,85.1563 194.6094,85.0469 Q194.7969,84.9375 195.0156,84.9375 Q195.3906,84.9375 195.625,85.1953 Q195.8594,85.4531 195.8594,86.0625 L195.8594,87.5156 Q195.8594,88.125 195.625,88.3906 Q195.3906,88.6563 195.0156,88.6563 Q194.6719,88.6563 194.4688,88.4531 Q194.2656,88.2656 194.1563,87.75 Q194.1094,87.3906 193.9219,87.2031 Q193.5938,86.8281 192.9844,86.6094 Q192.375,86.3906 191.75,86.3906 Q190.9844,86.3906 190.3516,86.7188 Q189.7188,87.0469 189.2266,87.7969 Q188.7344,88.5469 188.7344,89.5781 L188.7344,90.6719 Q188.7344,91.9063 189.625,92.7266 Q190.5156,93.5469 192.1094,93.5469 Q193.0469,93.5469 193.7031,93.2969 Q194.0938,93.1406 194.5156,92.7031 Q194.7813,92.4375 194.9297,92.3594 Q195.0781,92.2813 195.2813,92.2813 Q195.6094,92.2813 195.8672,92.5391 Q196.125,92.7969 196.125,93.1406 Q196.125,93.4844 195.7813,93.8906 Q195.2813,94.4688 194.4844,94.7969 Q193.4063,95.25 192.1094,95.25 Q190.5938,95.25 189.3906,94.625 Q188.4063,94.125 187.7188,93.0547 Q187.0313,91.9844 187.0313,90.7031 L187.0313,89.5469 Q187.0313,88.2188 187.6484,87.0703 Q188.2656,85.9219 189.3594,85.3047 Q190.4531,84.6875 191.6875,84.6875 Q192.4219,84.6875 193.0703,84.8516 Q193.7188,85.0156 194.2656,85.375 Z "/><text fill="#000000" font-family="sans-serif" font-size="12" lengthAdjust="spacingAndGlyphs" textLength="97" x="205.5" y="94.4102">WithConsoleView</text><line style="stroke: #A80036; stroke-width: 1.5;" x1="177.5" x2="304.5" y1="105.5" y2="105.5"/><polygon fill="none" points="187.5,112.918,191.5,116.918,187.5,120.918,183.5,116.918" style="stroke: #B38D22; stroke-width: 1.0;"/><text fill="#000000" font-family="sans-serif" font-size="11" lengthAdjust="spacingAndGlyphs" textLength="83" x="196.5" y="120.9189">console: Console</text><line style="stroke: #A80036; stroke-width: 1.5;" x1="177.5" x2="304.5" y1="127.3359" y2="127.3359"/><polygon fill="#FFFF44" points="187.5,134.7539,191.5,138.7539,187.5,142.7539,183.5,138.7539" style="stroke: #B38D22; stroke-width: 1.0;"/><text fill="#000000" font-family="sans-serif" font-size="11" lengthAdjust="spacingAndGlyphs" textLength="94" x="196.5" y="142.7549">WithConsoleView()</text><!--class mastermind.utils.Console--><rect fill="#FEFECE" filter="url(#fil9jtc6hxjen)" height="200.1953" id="mastermind.utils.Console" style="stroke: #A80036; stroke-width: 1.5;" width="187" x="75.5" y="223"/><ellipse cx="141.25" cy="239" fill="#ADD1B2" rx="11" ry="11" style="stroke: #A80036; stroke-width: 1.0;"/><path d="M144.0156,234.875 Q144.1719,234.6563 144.3594,234.5469 Q144.5469,234.4375 144.7656,234.4375 Q145.1406,234.4375 145.375,234.6953 Q145.6094,234.9531 145.6094,235.5625 L145.6094,237.0156 Q145.6094,237.625 145.375,237.8906 Q145.1406,238.1563 144.7656,238.1563 Q144.4219,238.1563 144.2188,237.9531 Q144.0156,237.7656 143.9063,237.25 Q143.8594,236.8906 143.6719,236.7031 Q143.3438,236.3281 142.7344,236.1094 Q142.125,235.8906 141.5,235.8906 Q140.7344,235.8906 140.1016,236.2188 Q139.4688,236.5469 138.9766,237.2969 Q138.4844,238.0469 138.4844,239.0781 L138.4844,240.1719 Q138.4844,241.4063 139.375,242.2266 Q140.2656,243.0469 141.8594,243.0469 Q142.7969,243.0469 143.4531,242.7969 Q143.8438,242.6406 144.2656,242.2031 Q144.5313,241.9375 144.6797,241.8594 Q144.8281,241.7813 145.0313,241.7813 Q145.3594,241.7813 145.6172,242.0391 Q145.875,242.2969 145.875,242.6406 Q145.875,242.9844 145.5313,243.3906 Q145.0313,243.9688 144.2344,244.2969 Q143.1563,244.75 141.8594,244.75 Q140.3438,244.75 139.1406,244.125 Q138.1563,243.625 137.4688,242.5547 Q136.7813,241.4844 136.7813,240.2031 L136.7813,239.0469 Q136.7813,237.7188 137.3984,236.5703 Q138.0156,235.4219 139.1094,234.8047 Q140.2031,234.1875 141.4375,234.1875 Q142.1719,234.1875 142.8203,234.3516 Q143.4688,234.5156 144.0156,234.875 Z "/><text fill="#000000" font-family="sans-serif" font-size="12" lengthAdjust="spacingAndGlyphs" textLength="47" x="161.75" y="243.9102">Console</text><line style="stroke: #A80036; stroke-width: 1.5;" x1="76.5" x2="261.5" y1="255" y2="255"/><rect fill="none" height="6" style="stroke: #C82930; stroke-width: 1.0;" width="6" x="83.5" y="264.418"/><text fill="#000000" font-family="sans-serif" font-size="11" lengthAdjust="spacingAndGlyphs" textLength="161" x="95.5" y="270.4189">bufferedReader: BufferedReader</text><line style="stroke: #A80036; stroke-width: 1.5;" x1="76.5" x2="261.5" y1="276.8359" y2="276.8359"/><ellipse cx="86.5" cy="289.2539" fill="#84BE84" rx="3" ry="3" style="stroke: #038048; stroke-width: 1.0;"/><text fill="#000000" font-family="sans-serif" font-size="11" lengthAdjust="spacingAndGlyphs" textLength="47" x="95.5" y="292.2549">Console()</text><ellipse cx="86.5" cy="303.0898" fill="#84BE84" rx="3" ry="3" style="stroke: #038048; stroke-width: 1.0;"/><text fill="#000000" font-family="sans-serif" font-size="11" lengthAdjust="spacingAndGlyphs" textLength="81" x="95.5" y="306.0908">write(char): void</text><ellipse cx="86.5" cy="316.9258" fill="#84BE84" rx="3" ry="3" style="stroke: #038048; stroke-width: 1.0;"/><text fill="#000000" font-family="sans-serif" font-size="11" lengthAdjust="spacingAndGlyphs" textLength="87" x="95.5" y="319.9268">write(String): void</text><ellipse cx="86.5" cy="330.7617" fill="#84BE84" rx="3" ry="3" style="stroke: #038048; stroke-width: 1.0;"/><text fill="#000000" font-family="sans-serif" font-size="11" lengthAdjust="spacingAndGlyphs" textLength="86" x="95.5" y="333.7627">readInt(String): int</text><ellipse cx="86.5" cy="344.5977" fill="#84BE84" rx="3" ry="3" style="stroke: #038048; stroke-width: 1.0;"/><text fill="#000000" font-family="sans-serif" font-size="11" lengthAdjust="spacingAndGlyphs" textLength="109" x="95.5" y="347.5986">readChar(String): char</text><ellipse cx="86.5" cy="358.4336" fill="#84BE84" rx="3" ry="3" style="stroke: #038048; stroke-width: 1.0;"/><text fill="#000000" font-family="sans-serif" font-size="11" lengthAdjust="spacingAndGlyphs" textLength="78" x="95.5" y="361.4346">writeln(int): void</text><ellipse cx="86.5" cy="372.2695" fill="#84BE84" rx="3" ry="3" style="stroke: #038048; stroke-width: 1.0;"/><text fill="#000000" font-family="sans-serif" font-size="11" lengthAdjust="spacingAndGlyphs" textLength="95" x="95.5" y="375.2705">writeln(String): void</text><ellipse cx="86.5" cy="386.1055" fill="#84BE84" rx="3" ry="3" style="stroke: #038048; stroke-width: 1.0;"/><text fill="#000000" font-family="sans-serif" font-size="11" lengthAdjust="spacingAndGlyphs" textLength="67" x="95.5" y="389.1064">writeln(): void</text><rect fill="#F24D5C" height="6" style="stroke: #C82930; stroke-width: 1.0;" width="6" x="83.5" y="396.9414"/><text fill="#000000" font-family="sans-serif" font-size="11" lengthAdjust="spacingAndGlyphs" textLength="111" x="95.5" y="402.9424">writeError(String): void</text><ellipse cx="86.5" cy="413.7773" fill="#84BE84" rx="3" ry="3" style="stroke: #038048; stroke-width: 1.0;"/><text fill="#000000" font-family="sans-serif" font-size="11" lengthAdjust="spacingAndGlyphs" textLength="120" x="95.5" y="416.7783">readString(String): String</text><!--class mastermind.utils.Menu--><rect fill="#FEFECE" filter="url(#fil9jtc6hxjen)" height="103.3438" id="mastermind.utils.Menu" style="stroke: #A80036; stroke-width: 1.5;" width="199" x="297.5" y="271.5"/><ellipse cx="377.75" cy="287.5" fill="#ADD1B2" rx="11" ry="11" style="stroke: #A80036; stroke-width: 1.0;"/><path d="M380.5156,283.375 Q380.6719,283.1563 380.8594,283.0469 Q381.0469,282.9375 381.2656,282.9375 Q381.6406,282.9375 381.875,283.1953 Q382.1094,283.4531 382.1094,284.0625 L382.1094,285.5156 Q382.1094,286.125 381.875,286.3906 Q381.6406,286.6563 381.2656,286.6563 Q380.9219,286.6563 380.7188,286.4531 Q380.5156,286.2656 380.4063,285.75 Q380.3594,285.3906 380.1719,285.2031 Q379.8438,284.8281 379.2344,284.6094 Q378.625,284.3906 378,284.3906 Q377.2344,284.3906 376.6016,284.7188 Q375.9688,285.0469 375.4766,285.7969 Q374.9844,286.5469 374.9844,287.5781 L374.9844,288.6719 Q374.9844,289.9063 375.875,290.7266 Q376.7656,291.5469 378.3594,291.5469 Q379.2969,291.5469 379.9531,291.2969 Q380.3438,291.1406 380.7656,290.7031 Q381.0313,290.4375 381.1797,290.3594 Q381.3281,290.2813 381.5313,290.2813 Q381.8594,290.2813 382.1172,290.5391 Q382.375,290.7969 382.375,291.1406 Q382.375,291.4844 382.0313,291.8906 Q381.5313,292.4688 380.7344,292.7969 Q379.6563,293.25 378.3594,293.25 Q376.8438,293.25 375.6406,292.625 Q374.6563,292.125 373.9688,291.0547 Q373.2813,289.9844 373.2813,288.7031 L373.2813,287.5469 Q373.2813,286.2188 373.8984,285.0703 Q374.5156,283.9219 375.6094,283.3047 Q376.7031,282.6875 377.9375,282.6875 Q378.6719,282.6875 379.3203,282.8516 Q379.9688,283.0156 380.5156,283.375 Z "/><text fill="#000000" font-family="sans-serif" font-size="12" lengthAdjust="spacingAndGlyphs" textLength="30" x="398.25" y="292.4102">Menu</text><line style="stroke: #A80036; stroke-width: 1.5;" x1="298.5" x2="495.5" y1="303.5" y2="303.5"/><rect fill="none" height="6" style="stroke: #C82930; stroke-width: 1.0;" width="6" x="305.5" y="312.918"/><text fill="#000000" font-family="sans-serif" font-size="11" lengthAdjust="spacingAndGlyphs" textLength="173" x="317.5" y="318.9189">commandList: ArrayList&lt;Command&gt;</text><line style="stroke: #A80036; stroke-width: 1.5;" x1="298.5" x2="495.5" y1="325.3359" y2="325.3359"/><ellipse cx="308.5" cy="337.7539" fill="#84BE84" rx="3" ry="3" style="stroke: #038048; stroke-width: 1.0;"/><text fill="#000000" font-family="sans-serif" font-size="11" lengthAdjust="spacingAndGlyphs" textLength="34" x="317.5" y="340.7549">Menu()</text><ellipse cx="308.5" cy="351.5898" fill="#84BE84" rx="3" ry="3" style="stroke: #038048; stroke-width: 1.0;"/><text fill="#000000" font-family="sans-serif" font-size="11" lengthAdjust="spacingAndGlyphs" textLength="73" x="317.5" y="354.5908">execute(): void</text><polygon fill="#FFFF44" points="308.5,360.4258,312.5,364.4258,308.5,368.4258,304.5,364.4258" style="stroke: #B38D22; stroke-width: 1.0;"/><text fill="#000000" font-family="sans-serif" font-size="11" lengthAdjust="spacingAndGlyphs" textLength="146" x="317.5" y="368.4268">addCommand(Command): void</text><!--class mastermind.utils.YesNoDialog--><rect fill="#FEFECE" filter="url(#fil9jtc6hxjen)" height="158.6875" id="mastermind.utils.YesNoDialog" style="stroke: #A80036; stroke-width: 1.5;" width="157" x="531.5" y="243.5"/><ellipse cx="569.9" cy="259.5" fill="#ADD1B2" rx="11" ry="11" style="stroke: #A80036; stroke-width: 1.0;"/><path d="M572.6656,255.375 Q572.8219,255.1563 573.0094,255.0469 Q573.1969,254.9375 573.4156,254.9375 Q573.7906,254.9375 574.025,255.1953 Q574.2594,255.4531 574.2594,256.0625 L574.2594,257.5156 Q574.2594,258.125 574.025,258.3906 Q573.7906,258.6563 573.4156,258.6563 Q573.0719,258.6563 572.8688,258.4531 Q572.6656,258.2656 572.5563,257.75 Q572.5094,257.3906 572.3219,257.2031 Q571.9938,256.8281 571.3844,256.6094 Q570.775,256.3906 570.15,256.3906 Q569.3844,256.3906 568.7516,256.7188 Q568.1188,257.0469 567.6266,257.7969 Q567.1344,258.5469 567.1344,259.5781 L567.1344,260.6719 Q567.1344,261.9063 568.025,262.7266 Q568.9156,263.5469 570.5094,263.5469 Q571.4469,263.5469 572.1031,263.2969 Q572.4938,263.1406 572.9156,262.7031 Q573.1813,262.4375 573.3297,262.3594 Q573.4781,262.2813 573.6813,262.2813 Q574.0094,262.2813 574.2672,262.5391 Q574.525,262.7969 574.525,263.1406 Q574.525,263.4844 574.1813,263.8906 Q573.6813,264.4688 572.8844,264.7969 Q571.8063,265.25 570.5094,265.25 Q568.9938,265.25 567.7906,264.625 Q566.8063,264.125 566.1188,263.0547 Q565.4313,261.9844 565.4313,260.7031 L565.4313,259.5469 Q565.4313,258.2188 566.0484,257.0703 Q566.6656,255.9219 567.7594,255.3047 Q568.8531,254.6875 570.0875,254.6875 Q570.8219,254.6875 571.4703,254.8516 Q572.1188,255.0156 572.6656,255.375 Z "/><text fill="#000000" font-family="sans-serif" font-size="12" lengthAdjust="spacingAndGlyphs" textLength="73" x="589.1" y="264.4102">YesNoDialog</text><line style="stroke: #A80036; stroke-width: 1.5;" x1="532.5" x2="687.5" y1="275.5" y2="275.5"/><rect fill="none" height="6" style="stroke: #C82930; stroke-width: 1.0;" width="6" x="539.5" y="284.918"/><text fill="#000000" font-family="sans-serif" font-size="11" lengthAdjust="spacingAndGlyphs" text-decoration="underline" textLength="89" x="551.5" y="290.9189">AFIRMATIVE: char</text><rect fill="none" height="6" style="stroke: #C82930; stroke-width: 1.0;" width="6" x="539.5" y="298.7539"/><text fill="#000000" font-family="sans-serif" font-size="11" lengthAdjust="spacingAndGlyphs" text-decoration="underline" textLength="79" x="551.5" y="304.7549">NEGATIVE: char</text><rect fill="none" height="6" style="stroke: #C82930; stroke-width: 1.0;" width="6" x="539.5" y="312.5898"/><text fill="#000000" font-family="sans-serif" font-size="11" lengthAdjust="spacingAndGlyphs" text-decoration="underline" textLength="85" x="551.5" y="318.5908">QUESTION: String</text><rect fill="none" height="6" style="stroke: #C82930; stroke-width: 1.0;" width="6" x="539.5" y="326.4258"/><text fill="#000000" font-family="sans-serif" font-size="11" lengthAdjust="spacingAndGlyphs" text-decoration="underline" textLength="84" x="551.5" y="332.4268">MESSAGE: String</text><line style="stroke: #A80036; stroke-width: 1.5;" x1="532.5" x2="687.5" y1="338.8438" y2="338.8438"/><ellipse cx="542.5" cy="351.2617" fill="#84BE84" rx="3" ry="3" style="stroke: #038048; stroke-width: 1.0;"/><text fill="#000000" font-family="sans-serif" font-size="11" lengthAdjust="spacingAndGlyphs" textLength="70" x="551.5" y="354.2627">YesNoDialog()</text><ellipse cx="542.5" cy="365.0977" fill="#84BE84" rx="3" ry="3" style="stroke: #038048; stroke-width: 1.0;"/><text fill="#000000" font-family="sans-serif" font-size="11" lengthAdjust="spacingAndGlyphs" textLength="102" x="551.5" y="368.0986">read(String): boolean</text><rect fill="#F24D5C" height="6" style="stroke: #C82930; stroke-width: 1.0;" width="6" x="539.5" y="375.9336"/><text fill="#000000" font-family="sans-serif" font-size="11" lengthAdjust="spacingAndGlyphs" text-decoration="underline" textLength="124" x="551.5" y="381.9346">isNegative(char): boolean</text><rect fill="#F24D5C" height="6" style="stroke: #C82930; stroke-width: 1.0;" width="6" x="539.5" y="389.7695"/><text fill="#000000" font-family="sans-serif" font-size="11" lengthAdjust="spacingAndGlyphs" text-decoration="underline" textLength="131" x="551.5" y="395.7705">isAfirmative(char): boolean</text><!--class java.io.BufferedReader--><rect fill="#FEFECE" filter="url(#fil9jtc6hxjen)" height="48" id="java.io.BufferedReader" style="stroke: #A80036; stroke-width: 1.5;" width="119" x="745.5" y="517.5"/><ellipse cx="760.5" cy="533.5" fill="#ADD1B2" rx="11" ry="11" style="stroke: #A80036; stroke-width: 1.0;"/><path d="M763.2656,529.375 Q763.4219,529.1563 763.6094,529.0469 Q763.7969,528.9375 764.0156,528.9375 Q764.3906,528.9375 764.625,529.1953 Q764.8594,529.4531 764.8594,530.0625 L764.8594,531.5156 Q764.8594,532.125 764.625,532.3906 Q764.3906,532.6563 764.0156,532.6563 Q763.6719,532.6563 763.4688,532.4531 Q763.2656,532.2656 763.1563,531.75 Q763.1094,531.3906 762.9219,531.2031 Q762.5938,530.8281 761.9844,530.6094 Q761.375,530.3906 760.75,530.3906 Q759.9844,530.3906 759.3516,530.7188 Q758.7188,531.0469 758.2266,531.7969 Q757.7344,532.5469 757.7344,533.5781 L757.7344,534.6719 Q757.7344,535.9063 758.625,536.7266 Q759.5156,537.5469 761.1094,537.5469 Q762.0469,537.5469 762.7031,537.2969 Q763.0938,537.1406 763.5156,536.7031 Q763.7813,536.4375 763.9297,536.3594 Q764.0781,536.2813 764.2813,536.2813 Q764.6094,536.2813 764.8672,536.5391 Q765.125,536.7969 765.125,537.1406 Q765.125,537.4844 764.7813,537.8906 Q764.2813,538.4688 763.4844,538.7969 Q762.4063,539.25 761.1094,539.25 Q759.5938,539.25 758.3906,538.625 Q757.4063,538.125 756.7188,537.0547 Q756.0313,535.9844 756.0313,534.7031 L756.0313,533.5469 Q756.0313,532.2188 756.6484,531.0703 Q757.2656,529.9219 758.3594,529.3047 Q759.4531,528.6875 760.6875,528.6875 Q761.4219,528.6875 762.0703,528.8516 Q762.7188,529.0156 763.2656,529.375 Z "/><text fill="#000000" font-family="sans-serif" font-size="12" lengthAdjust="spacingAndGlyphs" textLength="87" x="774.5" y="538.4102">BufferedReader</text><line style="stroke: #A80036; stroke-width: 1.5;" x1="746.5" x2="863.5" y1="549.5" y2="549.5"/><line style="stroke: #A80036; stroke-width: 1.5;" x1="746.5" x2="863.5" y1="557.5" y2="557.5"/><!--class java.util.ArrayList--><rect fill="#FEFECE" filter="url(#fil9jtc6hxjen)" height="48" id="java.util.ArrayList" style="stroke: #A80036; stroke-width: 1.5;" width="79" x="921.5" y="517.5"/><ellipse cx="936.5" cy="533.5" fill="#ADD1B2" rx="11" ry="11" style="stroke: #A80036; stroke-width: 1.0;"/><path d="M939.2656,529.375 Q939.4219,529.1563 939.6094,529.0469 Q939.7969,528.9375 940.0156,528.9375 Q940.3906,528.9375 940.625,529.1953 Q940.8594,529.4531 940.8594,530.0625 L940.8594,531.5156 Q940.8594,532.125 940.625,532.3906 Q940.3906,532.6563 940.0156,532.6563 Q939.6719,532.6563 939.4688,532.4531 Q939.2656,532.2656 939.1563,531.75 Q939.1094,531.3906 938.9219,531.2031 Q938.5938,530.8281 937.9844,530.6094 Q937.375,530.3906 936.75,530.3906 Q935.9844,530.3906 935.3516,530.7188 Q934.7188,531.0469 934.2266,531.7969 Q933.7344,532.5469 933.7344,533.5781 L933.7344,534.6719 Q933.7344,535.9063 934.625,536.7266 Q935.5156,537.5469 937.1094,537.5469 Q938.0469,537.5469 938.7031,537.2969 Q939.0938,537.1406 939.5156,536.7031 Q939.7813,536.4375 939.9297,536.3594 Q940.0781,536.2813 940.2813,536.2813 Q940.6094,536.2813 940.8672,536.5391 Q941.125,536.7969 941.125,537.1406 Q941.125,537.4844 940.7813,537.8906 Q940.2813,538.4688 939.4844,538.7969 Q938.4063,539.25 937.1094,539.25 Q935.5938,539.25 934.3906,538.625 Q933.4063,538.125 932.7188,537.0547 Q932.0313,535.9844 932.0313,534.7031 L932.0313,533.5469 Q932.0313,532.2188 932.6484,531.0703 Q933.2656,529.9219 934.3594,529.3047 Q935.4531,528.6875 936.6875,528.6875 Q937.4219,528.6875 938.0703,528.8516 Q938.7188,529.0156 939.2656,529.375 Z "/><text fill="#000000" font-family="sans-serif" font-size="12" lengthAdjust="spacingAndGlyphs" textLength="47" x="950.5" y="538.4102">ArrayList</text><line style="stroke: #A80036; stroke-width: 1.5;" x1="922.5" x2="999.5" y1="549.5" y2="549.5"/><line style="stroke: #A80036; stroke-width: 1.5;" x1="922.5" x2="999.5" y1="557.5" y2="557.5"/><!--link mastermind.utils.WithConsoleView to mastermind.utils.Command--><path d="M157.872,140.819 C120.309,158.258 79.5828,184.755 58,223 C14.3132,300.413 14.8169,345.305 58,423 C85.4043,472.306 143.024,503.59 187.481,521.371 " fill="none" id="mastermind.utils.WithConsoleView-mastermind.utils.Command" style="stroke: #A80036; stroke-width: 1.0;"/><polygon fill="none" points="155.111,134.386,176.245,132.858,160.676,147.233,155.111,134.386" style="stroke: #A80036; stroke-width: 1.0;"/><!--link mastermind.utils.Console to java.io.BufferedReader--><path d="M274.237,420.256 C276.147,421.214 278.069,422.13 280,423 C453.429,501.135 526.596,407.509 705,473.5 C727.399,481.785 749.728,496.025 767.586,509.252 " fill="none" id="mastermind.utils.Console-java.io.BufferedReader" style="stroke: #A80036; stroke-width: 1.0;"/><polygon fill="#A80036" points="778.087,517.295,773.3736,508.6472,774.1173,514.255,768.5096,514.9987,778.087,517.295" style="stroke: #A80036; stroke-width: 1.0;"/><line style="stroke: #A80036; stroke-width: 1.0;" x1="774.1173" x2="767.7665" y1="514.255" y2="509.3905"/><polygon fill="#A80036" points="262.654,413.875,265.9793,420.2736,273.1647,419.6651,269.8394,413.2665,262.654,413.875" style="stroke: #A80036; stroke-width: 1.0;"/><!--link mastermind.utils.WithConsoleView to mastermind.utils.Menu--><path d="M280.861,166.031 C305.017,198.472 335.647,239.607 359.386,271.486 " fill="none" id="mastermind.utils.WithConsoleView-mastermind.utils.Menu" style="stroke: #A80036; stroke-width: 1.0;"/><polygon fill="none" points="275.22,170.176,268.89,149.954,286.449,161.815,275.22,170.176" style="stroke: #A80036; stroke-width: 1.0;"/><!--link mastermind.utils.Menu to java.util.ArrayList--><path d="M454.284,383.527 C472.018,398.72 492.568,413.442 514,423 C664.372,490.062 730.459,406.819 881,473.5 C899.394,481.647 916.883,495.333 930.792,508.22 " fill="none" id="mastermind.utils.Menu-java.util.ArrayList" style="stroke: #A80036; stroke-width: 1.0;"/><polygon fill="#A80036" points="940.248,517.371,936.5622,508.2378,936.655,513.8939,930.9989,513.9867,940.248,517.371" style="stroke: #A80036; stroke-width: 1.0;"/><line style="stroke: #A80036; stroke-width: 1.0;" x1="936.655" x2="930.906" y1="513.8939" y2="508.3305"/><polygon fill="#A80036" points="444.183,374.562,446.0155,381.5364,453.1582,382.5272,451.3257,375.5529,444.183,374.562" style="stroke: #A80036; stroke-width: 1.0;"/><!--link mastermind.utils.Menu to mastermind.utils.Command--><path d="M361.832,374.76 C340.368,405.739 312.773,445.568 290.013,478.418 " fill="none" id="mastermind.utils.Menu-mastermind.utils.Command" style="stroke: #A80036; stroke-width: 1.0;"/><polygon fill="#A80036" points="286.978,482.799,295.3911,477.6785,289.8252,478.6889,288.8149,473.123,286.978,482.799" style="stroke: #A80036; stroke-width: 1.0;"/><!--link mastermind.utils.WithConsoleView to mastermind.utils.Console--><path d="M223.877,162.323 C218.841,176.977 213.117,193.632 207.313,210.52 " fill="none" id="mastermind.utils.WithConsoleView-mastermind.utils.Console" style="stroke: #A80036; stroke-width: 1.0;"/><polygon fill="#A80036" points="203.081,222.834,209.7892,215.6229,204.7062,218.1055,202.2237,213.0225,203.081,222.834" style="stroke: #A80036; stroke-width: 1.0;"/><line style="stroke: #A80036; stroke-width: 1.0;" x1="204.7062" x2="207.306" y1="218.1055" y2="210.54"/><polygon fill="#A80036" points="228.128,149.954,222.3954,154.3286,224.2286,161.3028,229.9612,156.9282,228.128,149.954" style="stroke: #A80036; stroke-width: 1.0;"/><!--link mastermind.utils.WithConsoleView to mastermind.utils.YesNoDialog--><path d="M324.805,136.352 C381.22,154.75 455.672,183.718 514,223 C522.936,229.018 531.697,235.979 540.068,243.367 " fill="none" id="mastermind.utils.WithConsoleView-mastermind.utils.YesNoDialog" style="stroke: #A80036; stroke-width: 1.0;"/><polygon fill="none" points="322.61,143,305.659,130.286,326.839,129.654,322.61,143" style="stroke: #A80036; stroke-width: 1.0;"/><!--
@startuml

class  mastermind.utils.ClosedInterval{
- min: int
- max: int
+ ClosedInterval(int, int)
+ includes(int): boolean
}

class  mastermind.utils.Command{
# title: String
# Command(String)
# {abstract} execute(): void
# {abstract} isActive(): boolean
~ getTitle(): String
}
mastermind.utils.WithConsoleView <|-down- mastermind.utils.Command

class  mastermind.utils.Console{
- bufferedReader: BufferedReader
+ Console()
+ write(char): void
+ write(String): void
+ readInt(String): int
+ readChar(String): char
+ writeln(int): void
+ writeln(String): void
+ writeln(): void
- writeError(String): void
+ readString(String): String
}
mastermind.utils.Console *-down-> java.io.BufferedReader

class  mastermind.utils.Menu{
- commandList: ArrayList<Command>
+ Menu()
+ execute(): void
# addCommand(Command): void
}
mastermind.utils.WithConsoleView <|-down- mastermind.utils.Menu
mastermind.utils.Menu *-down-> java.util.ArrayList
mastermind.utils.Menu - -> mastermind.utils.Command

class  mastermind.utils.WithConsoleView{
# console: Console
# WithConsoleView()
}
mastermind.utils.WithConsoleView *-down-> mastermind.utils.Console

class  mastermind.utils.YesNoDialog{
- {static} AFIRMATIVE: char
- {static} NEGATIVE: char
- {static} QUESTION: String
- {static} MESSAGE: String
+ YesNoDialog()
+ read(String): boolean
- {static} isNegative(char): boolean
- {static} isAfirmative(char): boolean
}
mastermind.utils.WithConsoleView <|-down- mastermind.utils.YesNoDialog

@enduml

PlantUML version 1.2019.05(Sat Apr 20 18:45:36 CEST 2019)
(GPL source distribution)
Java Runtime: OpenJDK Runtime Environment
JVM: OpenJDK 64-Bit Server VM
Java Version: 1.8.0_222-b10
Operating System: Windows 10
OS Version: 10.0
Default Encoding: windows-1252
Language: es
Country: ES
--></g></svg>