<?xml version="1.0" encoding="UTF-8" standalone="no"?><svg xmlns="http://www.w3.org/2000/svg" xmlns:xlink="http://www.w3.org/1999/xlink" contentScriptType="application/ecmascript" contentStyleType="text/css" height="984px" preserveAspectRatio="none" style="width:1121px;height:984px;" version="1.1" viewBox="0 0 1121 984" width="1121px" zoomAndPan="magnify"><defs><filter height="300%" id="f14ams1v9qjrf8" width="300%" x="-1" y="-1"><feGaussianBlur result="blurOut" stdDeviation="2.0"/><feColorMatrix in="blurOut" result="blurOut2" type="matrix" values="0 0 0 0 0 0 0 0 0 0 0 0 0 0 0 0 0 0 .4 0"/><feOffset dx="4.0" dy="4.0" in="blurOut2" result="blurOut3"/><feBlend in="SourceGraphic" in2="blurOut3" mode="normal"/></filter></defs><g><!--cluster mastermind.controllers--><polygon fill="#FFFFFF" filter="url(#f14ams1v9qjrf8)" points="22,24,191,24,198,47.6094,795,47.6094,795,972,22,972,22,24" style="stroke: #000000; stroke-width: 1.5;"/><line style="stroke: #000000; stroke-width: 1.5;" x1="22" x2="198" y1="47.6094" y2="47.6094"/><text fill="#000000" font-family="sans-serif" font-size="14" font-weight="bold" lengthAdjust="spacingAndGlyphs" textLength="163" x="26" y="40.5332">mastermind.controllers</text><!--cluster mastermind.models--><polygon fill="#FFFFFF" filter="url(#f14ams1v9qjrf8)" points="819,823.5,962,823.5,969,847.1094,1056,847.1094,1056,923.5,819,923.5,819,823.5" style="stroke: #000000; stroke-width: 1.5;"/><line style="stroke: #000000; stroke-width: 1.5;" x1="819" x2="969" y1="847.1094" y2="847.1094"/><text fill="#000000" font-family="sans-serif" font-size="14" font-weight="bold" lengthAdjust="spacingAndGlyphs" textLength="137" x="823" y="840.0332">mastermind.models</text><!--cluster java.util--><polygon fill="#FFFFFF" filter="url(#f14ams1v9qjrf8)" points="1011,201,1072,201,1079,224.6094,1099,224.6094,1099,301,1011,301,1011,201" style="stroke: #000000; stroke-width: 1.5;"/><line style="stroke: #000000; stroke-width: 1.5;" x1="1011" x2="1079" y1="224.6094" y2="224.6094"/><text fill="#000000" font-family="sans-serif" font-size="14" font-weight="bold" lengthAdjust="spacingAndGlyphs" textLength="55" x="1015" y="217.5332">java.util</text><!--class mastermind.controllers.AcceptorController--><rect fill="#FEFECE" filter="url(#f14ams1v9qjrf8)" height="75.6719" id="mastermind.controllers.AcceptorController" style="stroke: #A80036; stroke-width: 1.5;" width="180" x="353" y="223"/><ellipse cx="389.15" cy="239" fill="#ADD1B2" rx="11" ry="11" style="stroke: #A80036; stroke-width: 1.0;"/><path d="M391.9156,234.875 Q392.0719,234.6563 392.2594,234.5469 Q392.4469,234.4375 392.6656,234.4375 Q393.0406,234.4375 393.275,234.6953 Q393.5094,234.9531 393.5094,235.5625 L393.5094,237.0156 Q393.5094,237.625 393.275,237.8906 Q393.0406,238.1563 392.6656,238.1563 Q392.3219,238.1563 392.1188,237.9531 Q391.9156,237.7656 391.8063,237.25 Q391.7594,236.8906 391.5719,236.7031 Q391.2438,236.3281 390.6344,236.1094 Q390.025,235.8906 389.4,235.8906 Q388.6344,235.8906 388.0016,236.2188 Q387.3688,236.5469 386.8766,237.2969 Q386.3844,238.0469 386.3844,239.0781 L386.3844,240.1719 Q386.3844,241.4063 387.275,242.2266 Q388.1656,243.0469 389.7594,243.0469 Q390.6969,243.0469 391.3531,242.7969 Q391.7438,242.6406 392.1656,242.2031 Q392.4313,241.9375 392.5797,241.8594 Q392.7281,241.7813 392.9313,241.7813 Q393.2594,241.7813 393.5172,242.0391 Q393.775,242.2969 393.775,242.6406 Q393.775,242.9844 393.4313,243.3906 Q392.9313,243.9688 392.1344,244.2969 Q391.0563,244.75 389.7594,244.75 Q388.2438,244.75 387.0406,244.125 Q386.0563,243.625 385.3688,242.5547 Q384.6813,241.4844 384.6813,240.2031 L384.6813,239.0469 Q384.6813,237.7188 385.2984,236.5703 Q385.9156,235.4219 387.0094,234.8047 Q388.1031,234.1875 389.3375,234.1875 Q390.0719,234.1875 390.7203,234.3516 Q391.3688,234.5156 391.9156,234.875 Z "/><text fill="#000000" font-family="sans-serif" font-size="12" lengthAdjust="spacingAndGlyphs" textLength="101" x="407.85" y="243.9102">AcceptorController</text><line style="stroke: #A80036; stroke-width: 1.5;" x1="354" x2="532" y1="255" y2="255"/><line style="stroke: #A80036; stroke-width: 1.5;" x1="354" x2="532" y1="263" y2="263"/><polygon fill="#4177AF" points="364,271.418,360,277.418,368,277.418" style="stroke: #1963A0; stroke-width: 1.0;"/><text fill="#000000" font-family="sans-serif" font-size="11" lengthAdjust="spacingAndGlyphs" textLength="138" x="373" y="278.4189">AcceptorController(Session)</text><ellipse cx="364" cy="289.2539" fill="#84BE84" rx="3" ry="3" style="stroke: #038048; stroke-width: 1.0;"/><text fill="#000000" font-family="sans-serif" font-size="11" font-style="italic" lengthAdjust="spacingAndGlyphs" textLength="154" x="373" y="292.2549">accept(ControllersVisitor): void</text><!--class mastermind.controllers.Controller--><rect fill="#FEFECE" filter="url(#f14ams1v9qjrf8)" height="89.5078" id="mastermind.controllers.Controller" style="stroke: #A80036; stroke-width: 1.5;" width="119" x="53.5" y="66.5"/><ellipse cx="83.35" cy="82.5" fill="#ADD1B2" rx="11" ry="11" style="stroke: #A80036; stroke-width: 1.0;"/><path d="M86.1156,78.375 Q86.2719,78.1563 86.4594,78.0469 Q86.6469,77.9375 86.8656,77.9375 Q87.2406,77.9375 87.475,78.1953 Q87.7094,78.4531 87.7094,79.0625 L87.7094,80.5156 Q87.7094,81.125 87.475,81.3906 Q87.2406,81.6563 86.8656,81.6563 Q86.5219,81.6563 86.3188,81.4531 Q86.1156,81.2656 86.0063,80.75 Q85.9594,80.3906 85.7719,80.2031 Q85.4438,79.8281 84.8344,79.6094 Q84.225,79.3906 83.6,79.3906 Q82.8344,79.3906 82.2016,79.7188 Q81.5688,80.0469 81.0766,80.7969 Q80.5844,81.5469 80.5844,82.5781 L80.5844,83.6719 Q80.5844,84.9063 81.475,85.7266 Q82.3656,86.5469 83.9594,86.5469 Q84.8969,86.5469 85.5531,86.2969 Q85.9438,86.1406 86.3656,85.7031 Q86.6313,85.4375 86.7797,85.3594 Q86.9281,85.2813 87.1313,85.2813 Q87.4594,85.2813 87.7172,85.5391 Q87.975,85.7969 87.975,86.1406 Q87.975,86.4844 87.6313,86.8906 Q87.1313,87.4688 86.3344,87.7969 Q85.2563,88.25 83.9594,88.25 Q82.4438,88.25 81.2406,87.625 Q80.2563,87.125 79.5688,86.0547 Q78.8813,84.9844 78.8813,83.7031 L78.8813,82.5469 Q78.8813,81.2188 79.4984,80.0703 Q80.1156,78.9219 81.2094,78.3047 Q82.3031,77.6875 83.5375,77.6875 Q84.2719,77.6875 84.9203,77.8516 Q85.5688,78.0156 86.1156,78.375 Z "/><text fill="#000000" font-family="sans-serif" font-size="12" lengthAdjust="spacingAndGlyphs" textLength="54" x="100.65" y="87.4102">Controller</text><line style="stroke: #A80036; stroke-width: 1.5;" x1="54.5" x2="171.5" y1="98.5" y2="98.5"/><polygon fill="none" points="64.5,105.918,68.5,109.918,64.5,113.918,60.5,109.918" style="stroke: #B38D22; stroke-width: 1.0;"/><text fill="#000000" font-family="sans-serif" font-size="11" lengthAdjust="spacingAndGlyphs" textLength="83" x="73.5" y="113.9189">session: Session</text><line style="stroke: #A80036; stroke-width: 1.5;" x1="54.5" x2="171.5" y1="120.3359" y2="120.3359"/><polygon fill="#4177AF" points="64.5,128.7539,60.5,134.7539,68.5,134.7539" style="stroke: #1963A0; stroke-width: 1.0;"/><text fill="#000000" font-family="sans-serif" font-size="11" lengthAdjust="spacingAndGlyphs" textLength="93" x="73.5" y="135.7549">Controller(Session)</text><ellipse cx="64.5" cy="146.5898" fill="#84BE84" rx="3" ry="3" style="stroke: #038048; stroke-width: 1.0;"/><text fill="#000000" font-family="sans-serif" font-size="11" lengthAdjust="spacingAndGlyphs" textLength="67" x="73.5" y="149.5908">getWidth(): int</text><!--class mastermind.controllers.ControllersVisitor--><rect fill="#FEFECE" filter="url(#f14ams1v9qjrf8)" height="89.5078" id="mastermind.controllers.ControllersVisitor" style="stroke: #A80036; stroke-width: 1.5;" width="170" x="418" y="359"/><ellipse cx="452.35" cy="375" fill="#ADD1B2" rx="11" ry="11" style="stroke: #A80036; stroke-width: 1.0;"/><path d="M455.1156,370.875 Q455.2719,370.6563 455.4594,370.5469 Q455.6469,370.4375 455.8656,370.4375 Q456.2406,370.4375 456.475,370.6953 Q456.7094,370.9531 456.7094,371.5625 L456.7094,373.0156 Q456.7094,373.625 456.475,373.8906 Q456.2406,374.1563 455.8656,374.1563 Q455.5219,374.1563 455.3188,373.9531 Q455.1156,373.7656 455.0063,373.25 Q454.9594,372.8906 454.7719,372.7031 Q454.4438,372.3281 453.8344,372.1094 Q453.225,371.8906 452.6,371.8906 Q451.8344,371.8906 451.2016,372.2188 Q450.5688,372.5469 450.0766,373.2969 Q449.5844,374.0469 449.5844,375.0781 L449.5844,376.1719 Q449.5844,377.4063 450.475,378.2266 Q451.3656,379.0469 452.9594,379.0469 Q453.8969,379.0469 454.5531,378.7969 Q454.9438,378.6406 455.3656,378.2031 Q455.6313,377.9375 455.7797,377.8594 Q455.9281,377.7813 456.1313,377.7813 Q456.4594,377.7813 456.7172,378.0391 Q456.975,378.2969 456.975,378.6406 Q456.975,378.9844 456.6313,379.3906 Q456.1313,379.9688 455.3344,380.2969 Q454.2563,380.75 452.9594,380.75 Q451.4438,380.75 450.2406,380.125 Q449.2563,379.625 448.5688,378.5547 Q447.8813,377.4844 447.8813,376.2031 L447.8813,375.0469 Q447.8813,373.7188 448.4984,372.5703 Q449.1156,371.4219 450.2094,370.8047 Q451.3031,370.1875 452.5375,370.1875 Q453.2719,370.1875 453.9203,370.3516 Q454.5688,370.5156 455.1156,370.875 Z "/><text fill="#000000" font-family="sans-serif" font-size="12" lengthAdjust="spacingAndGlyphs" textLength="95" x="470.65" y="379.9102">ControllersVisitor</text><line style="stroke: #A80036; stroke-width: 1.5;" x1="419" x2="587" y1="391" y2="391"/><line style="stroke: #A80036; stroke-width: 1.5;" x1="419" x2="587" y1="399" y2="399"/><ellipse cx="429" cy="411.418" fill="#84BE84" rx="3" ry="3" style="stroke: #038048; stroke-width: 1.0;"/><text fill="#000000" font-family="sans-serif" font-size="11" font-style="italic" lengthAdjust="spacingAndGlyphs" textLength="126" x="438" y="414.4189">visit(StartController): void</text><ellipse cx="429" cy="425.2539" fill="#84BE84" rx="3" ry="3" style="stroke: #038048; stroke-width: 1.0;"/><text fill="#000000" font-family="sans-serif" font-size="11" font-style="italic" lengthAdjust="spacingAndGlyphs" textLength="124" x="438" y="428.2549">visit(PlayController): void</text><ellipse cx="429" cy="439.0898" fill="#84BE84" rx="3" ry="3" style="stroke: #038048; stroke-width: 1.0;"/><text fill="#000000" font-family="sans-serif" font-size="11" font-style="italic" lengthAdjust="spacingAndGlyphs" textLength="144" x="438" y="442.0908">visit(ResumeController): void</text><!--class mastermind.controllers.ResumeController--><rect fill="#FEFECE" filter="url(#f14ams1v9qjrf8)" height="89.5078" id="mastermind.controllers.ResumeController" style="stroke: #A80036; stroke-width: 1.5;" width="176" x="603" y="585"/><ellipse cx="636.9" cy="601" fill="#ADD1B2" rx="11" ry="11" style="stroke: #A80036; stroke-width: 1.0;"/><path d="M639.6656,596.875 Q639.8219,596.6563 640.0094,596.5469 Q640.1969,596.4375 640.4156,596.4375 Q640.7906,596.4375 641.025,596.6953 Q641.2594,596.9531 641.2594,597.5625 L641.2594,599.0156 Q641.2594,599.625 641.025,599.8906 Q640.7906,600.1563 640.4156,600.1563 Q640.0719,600.1563 639.8688,599.9531 Q639.6656,599.7656 639.5563,599.25 Q639.5094,598.8906 639.3219,598.7031 Q638.9938,598.3281 638.3844,598.1094 Q637.775,597.8906 637.15,597.8906 Q636.3844,597.8906 635.7516,598.2188 Q635.1188,598.5469 634.6266,599.2969 Q634.1344,600.0469 634.1344,601.0781 L634.1344,602.1719 Q634.1344,603.4063 635.025,604.2266 Q635.9156,605.0469 637.5094,605.0469 Q638.4469,605.0469 639.1031,604.7969 Q639.4938,604.6406 639.9156,604.2031 Q640.1813,603.9375 640.3297,603.8594 Q640.4781,603.7813 640.6813,603.7813 Q641.0094,603.7813 641.2672,604.0391 Q641.525,604.2969 641.525,604.6406 Q641.525,604.9844 641.1813,605.3906 Q640.6813,605.9688 639.8844,606.2969 Q638.8063,606.75 637.5094,606.75 Q635.9938,606.75 634.7906,606.125 Q633.8063,605.625 633.1188,604.5547 Q632.4313,603.4844 632.4313,602.2031 L632.4313,601.0469 Q632.4313,599.7188 633.0484,598.5703 Q633.6656,597.4219 634.7594,596.8047 Q635.8531,596.1875 637.0875,596.1875 Q637.8219,596.1875 638.4703,596.3516 Q639.1188,596.5156 639.6656,596.875 Z "/><text fill="#000000" font-family="sans-serif" font-size="12" lengthAdjust="spacingAndGlyphs" textLength="102" x="655.1" y="605.9102">ResumeController</text><line style="stroke: #A80036; stroke-width: 1.5;" x1="604" x2="778" y1="617" y2="617"/><line style="stroke: #A80036; stroke-width: 1.5;" x1="604" x2="778" y1="625" y2="625"/><ellipse cx="614" cy="637.418" fill="#84BE84" rx="3" ry="3" style="stroke: #038048; stroke-width: 1.0;"/><text fill="#000000" font-family="sans-serif" font-size="11" lengthAdjust="spacingAndGlyphs" textLength="132" x="623" y="640.4189">ResumeController(Session)</text><ellipse cx="614" cy="651.2539" fill="#84BE84" rx="3" ry="3" style="stroke: #038048; stroke-width: 1.0;"/><text fill="#000000" font-family="sans-serif" font-size="11" lengthAdjust="spacingAndGlyphs" textLength="150" x="623" y="654.2549">accept(ControllersVisitor): void</text><ellipse cx="614" cy="665.0898" fill="#84BE84" rx="3" ry="3" style="stroke: #038048; stroke-width: 1.0;"/><text fill="#000000" font-family="sans-serif" font-size="11" lengthAdjust="spacingAndGlyphs" textLength="108" x="623" y="668.0908">resume(boolean): void</text><!--class mastermind.controllers.StartController--><rect fill="#FEFECE" filter="url(#f14ams1v9qjrf8)" height="89.5078" id="mastermind.controllers.StartController" style="stroke: #A80036; stroke-width: 1.5;" width="176" x="392" y="585"/><ellipse cx="436.25" cy="601" fill="#ADD1B2" rx="11" ry="11" style="stroke: #A80036; stroke-width: 1.0;"/><path d="M439.0156,596.875 Q439.1719,596.6563 439.3594,596.5469 Q439.5469,596.4375 439.7656,596.4375 Q440.1406,596.4375 440.375,596.6953 Q440.6094,596.9531 440.6094,597.5625 L440.6094,599.0156 Q440.6094,599.625 440.375,599.8906 Q440.1406,600.1563 439.7656,600.1563 Q439.4219,600.1563 439.2188,599.9531 Q439.0156,599.7656 438.9063,599.25 Q438.8594,598.8906 438.6719,598.7031 Q438.3438,598.3281 437.7344,598.1094 Q437.125,597.8906 436.5,597.8906 Q435.7344,597.8906 435.1016,598.2188 Q434.4688,598.5469 433.9766,599.2969 Q433.4844,600.0469 433.4844,601.0781 L433.4844,602.1719 Q433.4844,603.4063 434.375,604.2266 Q435.2656,605.0469 436.8594,605.0469 Q437.7969,605.0469 438.4531,604.7969 Q438.8438,604.6406 439.2656,604.2031 Q439.5313,603.9375 439.6797,603.8594 Q439.8281,603.7813 440.0313,603.7813 Q440.3594,603.7813 440.6172,604.0391 Q440.875,604.2969 440.875,604.6406 Q440.875,604.9844 440.5313,605.3906 Q440.0313,605.9688 439.2344,606.2969 Q438.1563,606.75 436.8594,606.75 Q435.3438,606.75 434.1406,606.125 Q433.1563,605.625 432.4688,604.5547 Q431.7813,603.4844 431.7813,602.2031 L431.7813,601.0469 Q431.7813,599.7188 432.3984,598.5703 Q433.0156,597.4219 434.1094,596.8047 Q435.2031,596.1875 436.4375,596.1875 Q437.1719,596.1875 437.8203,596.3516 Q438.4688,596.5156 439.0156,596.875 Z "/><text fill="#000000" font-family="sans-serif" font-size="12" lengthAdjust="spacingAndGlyphs" textLength="79" x="456.75" y="605.9102">StartController</text><line style="stroke: #A80036; stroke-width: 1.5;" x1="393" x2="567" y1="617" y2="617"/><line style="stroke: #A80036; stroke-width: 1.5;" x1="393" x2="567" y1="625" y2="625"/><ellipse cx="403" cy="637.418" fill="#84BE84" rx="3" ry="3" style="stroke: #038048; stroke-width: 1.0;"/><text fill="#000000" font-family="sans-serif" font-size="11" lengthAdjust="spacingAndGlyphs" textLength="116" x="412" y="640.4189">StartController(Session)</text><ellipse cx="403" cy="651.2539" fill="#84BE84" rx="3" ry="3" style="stroke: #038048; stroke-width: 1.0;"/><text fill="#000000" font-family="sans-serif" font-size="11" lengthAdjust="spacingAndGlyphs" textLength="150" x="412" y="654.2549">accept(ControllersVisitor): void</text><ellipse cx="403" cy="665.0898" fill="#84BE84" rx="3" ry="3" style="stroke: #038048; stroke-width: 1.0;"/><text fill="#000000" font-family="sans-serif" font-size="11" lengthAdjust="spacingAndGlyphs" textLength="56" x="412" y="668.0908">start(): void</text><!--class mastermind.controllers.PlayController--><rect fill="#FEFECE" filter="url(#f14ams1v9qjrf8)" height="241.7031" id="mastermind.controllers.PlayController" style="stroke: #A80036; stroke-width: 1.5;" width="208" x="149" y="509"/><ellipse cx="210.25" cy="525" fill="#ADD1B2" rx="11" ry="11" style="stroke: #A80036; stroke-width: 1.0;"/><path d="M213.0156,520.875 Q213.1719,520.6563 213.3594,520.5469 Q213.5469,520.4375 213.7656,520.4375 Q214.1406,520.4375 214.375,520.6953 Q214.6094,520.9531 214.6094,521.5625 L214.6094,523.0156 Q214.6094,523.625 214.375,523.8906 Q214.1406,524.1563 213.7656,524.1563 Q213.4219,524.1563 213.2188,523.9531 Q213.0156,523.7656 212.9063,523.25 Q212.8594,522.8906 212.6719,522.7031 Q212.3438,522.3281 211.7344,522.1094 Q211.125,521.8906 210.5,521.8906 Q209.7344,521.8906 209.1016,522.2188 Q208.4688,522.5469 207.9766,523.2969 Q207.4844,524.0469 207.4844,525.0781 L207.4844,526.1719 Q207.4844,527.4063 208.375,528.2266 Q209.2656,529.0469 210.8594,529.0469 Q211.7969,529.0469 212.4531,528.7969 Q212.8438,528.6406 213.2656,528.2031 Q213.5313,527.9375 213.6797,527.8594 Q213.8281,527.7813 214.0313,527.7813 Q214.3594,527.7813 214.6172,528.0391 Q214.875,528.2969 214.875,528.6406 Q214.875,528.9844 214.5313,529.3906 Q214.0313,529.9688 213.2344,530.2969 Q212.1563,530.75 210.8594,530.75 Q209.3438,530.75 208.1406,530.125 Q207.1563,529.625 206.4688,528.5547 Q205.7813,527.4844 205.7813,526.2031 L205.7813,525.0469 Q205.7813,523.7188 206.3984,522.5703 Q207.0156,521.4219 208.1094,520.8047 Q209.2031,520.1875 210.4375,520.1875 Q211.1719,520.1875 211.8203,520.3516 Q212.4688,520.5156 213.0156,520.875 Z "/><text fill="#000000" font-family="sans-serif" font-size="12" lengthAdjust="spacingAndGlyphs" textLength="77" x="230.75" y="529.9102">PlayController</text><line style="stroke: #A80036; stroke-width: 1.5;" x1="150" x2="356" y1="541" y2="541"/><rect fill="none" height="6" style="stroke: #C82930; stroke-width: 1.0;" width="6" x="157" y="550.418"/><text fill="#000000" font-family="sans-serif" font-size="11" lengthAdjust="spacingAndGlyphs" textLength="182" x="169" y="556.4189">proposalController: ProposalController</text><rect fill="none" height="6" style="stroke: #C82930; stroke-width: 1.0;" width="6" x="157" y="564.2539"/><text fill="#000000" font-family="sans-serif" font-size="11" lengthAdjust="spacingAndGlyphs" textLength="147" x="169" y="570.2549">undoController: UndoController</text><rect fill="none" height="6" style="stroke: #C82930; stroke-width: 1.0;" width="6" x="157" y="578.0898"/><text fill="#000000" font-family="sans-serif" font-size="11" lengthAdjust="spacingAndGlyphs" textLength="145" x="169" y="584.0908">redoController: RedoController</text><line style="stroke: #A80036; stroke-width: 1.5;" x1="150" x2="356" y1="590.5078" y2="590.5078"/><polygon fill="#4177AF" points="160,598.9258,156,604.9258,164,604.9258" style="stroke: #1963A0; stroke-width: 1.0;"/><text fill="#000000" font-family="sans-serif" font-size="11" lengthAdjust="spacingAndGlyphs" textLength="113" x="169" y="605.9268">PlayController(Session)</text><ellipse cx="160" cy="616.7617" fill="#84BE84" rx="3" ry="3" style="stroke: #038048; stroke-width: 1.0;"/><text fill="#000000" font-family="sans-serif" font-size="11" lengthAdjust="spacingAndGlyphs" textLength="150" x="169" y="619.7627">accept(ControllersVisitor): void</text><ellipse cx="160" cy="630.5977" fill="#84BE84" rx="3" ry="3" style="stroke: #038048; stroke-width: 1.0;"/><text fill="#000000" font-family="sans-serif" font-size="11" lengthAdjust="spacingAndGlyphs" textLength="140" x="169" y="633.5986">proposeCombination(int[]): int</text><ellipse cx="160" cy="644.4336" fill="#84BE84" rx="3" ry="3" style="stroke: #038048; stroke-width: 1.0;"/><text fill="#000000" font-family="sans-serif" font-size="11" lengthAdjust="spacingAndGlyphs" textLength="101" x="169" y="647.4346">getAllCodes(): int[][][]</text><ellipse cx="160" cy="658.2695" fill="#84BE84" rx="3" ry="3" style="stroke: #038048; stroke-width: 1.0;"/><text fill="#000000" font-family="sans-serif" font-size="11" lengthAdjust="spacingAndGlyphs" textLength="94" x="169" y="661.2705">isLooser(): boolean</text><ellipse cx="160" cy="672.1055" fill="#84BE84" rx="3" ry="3" style="stroke: #038048; stroke-width: 1.0;"/><text fill="#000000" font-family="sans-serif" font-size="11" lengthAdjust="spacingAndGlyphs" textLength="62" x="169" y="675.1064">getTurn(): int</text><ellipse cx="160" cy="685.9414" fill="#84BE84" rx="3" ry="3" style="stroke: #038048; stroke-width: 1.0;"/><text fill="#000000" font-family="sans-serif" font-size="11" lengthAdjust="spacingAndGlyphs" textLength="96" x="169" y="688.9424">undoable(): boolean</text><ellipse cx="160" cy="699.7773" fill="#84BE84" rx="3" ry="3" style="stroke: #038048; stroke-width: 1.0;"/><text fill="#000000" font-family="sans-serif" font-size="11" lengthAdjust="spacingAndGlyphs" textLength="58" x="169" y="702.7783">undo(): void</text><ellipse cx="160" cy="713.6133" fill="#84BE84" rx="3" ry="3" style="stroke: #038048; stroke-width: 1.0;"/><text fill="#000000" font-family="sans-serif" font-size="11" lengthAdjust="spacingAndGlyphs" textLength="94" x="169" y="716.6143">redoable(): boolean</text><ellipse cx="160" cy="727.4492" fill="#84BE84" rx="3" ry="3" style="stroke: #038048; stroke-width: 1.0;"/><text fill="#000000" font-family="sans-serif" font-size="11" lengthAdjust="spacingAndGlyphs" textLength="56" x="169" y="730.4502">redo(): void</text><ellipse cx="160" cy="741.2852" fill="#84BE84" rx="3" ry="3" style="stroke: #038048; stroke-width: 1.0;"/><text fill="#000000" font-family="sans-serif" font-size="11" lengthAdjust="spacingAndGlyphs" textLength="94" x="169" y="744.2861">isWinner(): boolean</text><!--class mastermind.controllers.Logic--><rect fill="#FEFECE" filter="url(#f14ams1v9qjrf8)" height="103.3438" id="mastermind.controllers.Logic" style="stroke: #A80036; stroke-width: 1.5;" width="309" x="469.5" y="60"/><ellipse cx="604.75" cy="76" fill="#ADD1B2" rx="11" ry="11" style="stroke: #A80036; stroke-width: 1.0;"/><path d="M607.5156,71.875 Q607.6719,71.6563 607.8594,71.5469 Q608.0469,71.4375 608.2656,71.4375 Q608.6406,71.4375 608.875,71.6953 Q609.1094,71.9531 609.1094,72.5625 L609.1094,74.0156 Q609.1094,74.625 608.875,74.8906 Q608.6406,75.1563 608.2656,75.1563 Q607.9219,75.1563 607.7188,74.9531 Q607.5156,74.7656 607.4063,74.25 Q607.3594,73.8906 607.1719,73.7031 Q606.8438,73.3281 606.2344,73.1094 Q605.625,72.8906 605,72.8906 Q604.2344,72.8906 603.6016,73.2188 Q602.9688,73.5469 602.4766,74.2969 Q601.9844,75.0469 601.9844,76.0781 L601.9844,77.1719 Q601.9844,78.4063 602.875,79.2266 Q603.7656,80.0469 605.3594,80.0469 Q606.2969,80.0469 606.9531,79.7969 Q607.3438,79.6406 607.7656,79.2031 Q608.0313,78.9375 608.1797,78.8594 Q608.3281,78.7813 608.5313,78.7813 Q608.8594,78.7813 609.1172,79.0391 Q609.375,79.2969 609.375,79.6406 Q609.375,79.9844 609.0313,80.3906 Q608.5313,80.9688 607.7344,81.2969 Q606.6563,81.75 605.3594,81.75 Q603.8438,81.75 602.6406,81.125 Q601.6563,80.625 600.9688,79.5547 Q600.2813,78.4844 600.2813,77.2031 L600.2813,76.0469 Q600.2813,74.7188 600.8984,73.5703 Q601.5156,72.4219 602.6094,71.8047 Q603.7031,71.1875 604.9375,71.1875 Q605.6719,71.1875 606.3203,71.3516 Q606.9688,71.5156 607.5156,71.875 Z "/><text fill="#000000" font-family="sans-serif" font-size="12" lengthAdjust="spacingAndGlyphs" textLength="30" x="625.25" y="80.9102">Logic</text><line style="stroke: #A80036; stroke-width: 1.5;" x1="470.5" x2="777.5" y1="92" y2="92"/><rect fill="none" height="6" style="stroke: #C82930; stroke-width: 1.0;" width="6" x="477.5" y="101.418"/><text fill="#000000" font-family="sans-serif" font-size="11" lengthAdjust="spacingAndGlyphs" textLength="83" x="489.5" y="107.4189">session: Session</text><rect fill="none" height="6" style="stroke: #C82930; stroke-width: 1.0;" width="6" x="477.5" y="115.2539"/><text fill="#000000" font-family="sans-serif" font-size="11" lengthAdjust="spacingAndGlyphs" textLength="283" x="489.5" y="121.2549">acceptorControllers: Map&lt;StateValue, AcceptorController&gt;</text><line style="stroke: #A80036; stroke-width: 1.5;" x1="470.5" x2="777.5" y1="127.6719" y2="127.6719"/><ellipse cx="480.5" cy="140.0898" fill="#84BE84" rx="3" ry="3" style="stroke: #038048; stroke-width: 1.0;"/><text fill="#000000" font-family="sans-serif" font-size="11" lengthAdjust="spacingAndGlyphs" textLength="34" x="489.5" y="143.0908">Logic()</text><ellipse cx="480.5" cy="153.9258" fill="#84BE84" rx="3" ry="3" style="stroke: #038048; stroke-width: 1.0;"/><text fill="#000000" font-family="sans-serif" font-size="11" lengthAdjust="spacingAndGlyphs" textLength="166" x="489.5" y="156.9268">getController(): AcceptorController</text><!--class mastermind.controllers.RedoController--><rect fill="#FEFECE" filter="url(#f14ams1v9qjrf8)" height="89.5078" id="mastermind.controllers.RedoController" style="stroke: #A80036; stroke-width: 1.5;" width="144" x="418" y="838.5"/><ellipse cx="445.6" cy="854.5" fill="#ADD1B2" rx="11" ry="11" style="stroke: #A80036; stroke-width: 1.0;"/><path d="M448.3656,850.375 Q448.5219,850.1563 448.7094,850.0469 Q448.8969,849.9375 449.1156,849.9375 Q449.4906,849.9375 449.725,850.1953 Q449.9594,850.4531 449.9594,851.0625 L449.9594,852.5156 Q449.9594,853.125 449.725,853.3906 Q449.4906,853.6563 449.1156,853.6563 Q448.7719,853.6563 448.5688,853.4531 Q448.3656,853.2656 448.2563,852.75 Q448.2094,852.3906 448.0219,852.2031 Q447.6938,851.8281 447.0844,851.6094 Q446.475,851.3906 445.85,851.3906 Q445.0844,851.3906 444.4516,851.7188 Q443.8188,852.0469 443.3266,852.7969 Q442.8344,853.5469 442.8344,854.5781 L442.8344,855.6719 Q442.8344,856.9063 443.725,857.7266 Q444.6156,858.5469 446.2094,858.5469 Q447.1469,858.5469 447.8031,858.2969 Q448.1938,858.1406 448.6156,857.7031 Q448.8813,857.4375 449.0297,857.3594 Q449.1781,857.2813 449.3813,857.2813 Q449.7094,857.2813 449.9672,857.5391 Q450.225,857.7969 450.225,858.1406 Q450.225,858.4844 449.8813,858.8906 Q449.3813,859.4688 448.5844,859.7969 Q447.5063,860.25 446.2094,860.25 Q444.6938,860.25 443.4906,859.625 Q442.5063,859.125 441.8188,858.0547 Q441.1313,856.9844 441.1313,855.7031 L441.1313,854.5469 Q441.1313,853.2188 441.7484,852.0703 Q442.3656,850.9219 443.4594,850.3047 Q444.5531,849.6875 445.7875,849.6875 Q446.5219,849.6875 447.1703,849.8516 Q447.8188,850.0156 448.3656,850.375 Z "/><text fill="#000000" font-family="sans-serif" font-size="12" lengthAdjust="spacingAndGlyphs" textLength="84" x="462.4" y="859.4102">RedoController</text><line style="stroke: #A80036; stroke-width: 1.5;" x1="419" x2="561" y1="870.5" y2="870.5"/><line style="stroke: #A80036; stroke-width: 1.5;" x1="419" x2="561" y1="878.5" y2="878.5"/><polygon fill="#4177AF" points="429,886.918,425,892.918,433,892.918" style="stroke: #1963A0; stroke-width: 1.0;"/><text fill="#000000" font-family="sans-serif" font-size="11" lengthAdjust="spacingAndGlyphs" textLength="118" x="438" y="893.9189">RedoController(Session)</text><polygon fill="#4177AF" points="429,900.7539,425,906.7539,433,906.7539" style="stroke: #1963A0; stroke-width: 1.0;"/><text fill="#000000" font-family="sans-serif" font-size="11" lengthAdjust="spacingAndGlyphs" textLength="94" x="438" y="907.7549">redoable(): boolean</text><polygon fill="#4177AF" points="429,914.5898,425,920.5898,433,920.5898" style="stroke: #1963A0; stroke-width: 1.0;"/><text fill="#000000" font-family="sans-serif" font-size="11" lengthAdjust="spacingAndGlyphs" textLength="56" x="438" y="921.5908">redo(): void</text><!--class mastermind.controllers.UndoController--><rect fill="#FEFECE" filter="url(#f14ams1v9qjrf8)" height="89.5078" id="mastermind.controllers.UndoController" style="stroke: #A80036; stroke-width: 1.5;" width="144" x="38" y="838.5"/><ellipse cx="65.6" cy="854.5" fill="#ADD1B2" rx="11" ry="11" style="stroke: #A80036; stroke-width: 1.0;"/><path d="M68.3656,850.375 Q68.5219,850.1563 68.7094,850.0469 Q68.8969,849.9375 69.1156,849.9375 Q69.4906,849.9375 69.725,850.1953 Q69.9594,850.4531 69.9594,851.0625 L69.9594,852.5156 Q69.9594,853.125 69.725,853.3906 Q69.4906,853.6563 69.1156,853.6563 Q68.7719,853.6563 68.5688,853.4531 Q68.3656,853.2656 68.2563,852.75 Q68.2094,852.3906 68.0219,852.2031 Q67.6938,851.8281 67.0844,851.6094 Q66.475,851.3906 65.85,851.3906 Q65.0844,851.3906 64.4516,851.7188 Q63.8187,852.0469 63.3266,852.7969 Q62.8344,853.5469 62.8344,854.5781 L62.8344,855.6719 Q62.8344,856.9063 63.725,857.7266 Q64.6156,858.5469 66.2094,858.5469 Q67.1469,858.5469 67.8031,858.2969 Q68.1938,858.1406 68.6156,857.7031 Q68.8813,857.4375 69.0297,857.3594 Q69.1781,857.2813 69.3813,857.2813 Q69.7094,857.2813 69.9672,857.5391 Q70.225,857.7969 70.225,858.1406 Q70.225,858.4844 69.8813,858.8906 Q69.3813,859.4688 68.5844,859.7969 Q67.5063,860.25 66.2094,860.25 Q64.6938,860.25 63.4906,859.625 Q62.5062,859.125 61.8187,858.0547 Q61.1312,856.9844 61.1312,855.7031 L61.1312,854.5469 Q61.1312,853.2188 61.7484,852.0703 Q62.3656,850.9219 63.4594,850.3047 Q64.5531,849.6875 65.7875,849.6875 Q66.5219,849.6875 67.1703,849.8516 Q67.8188,850.0156 68.3656,850.375 Z "/><text fill="#000000" font-family="sans-serif" font-size="12" lengthAdjust="spacingAndGlyphs" textLength="84" x="82.4" y="859.4102">UndoController</text><line style="stroke: #A80036; stroke-width: 1.5;" x1="39" x2="181" y1="870.5" y2="870.5"/><line style="stroke: #A80036; stroke-width: 1.5;" x1="39" x2="181" y1="878.5" y2="878.5"/><polygon fill="#4177AF" points="49,886.918,45,892.918,53,892.918" style="stroke: #1963A0; stroke-width: 1.0;"/><text fill="#000000" font-family="sans-serif" font-size="11" lengthAdjust="spacingAndGlyphs" textLength="118" x="58" y="893.9189">UndoController(Session)</text><polygon fill="#4177AF" points="49,900.7539,45,906.7539,53,906.7539" style="stroke: #1963A0; stroke-width: 1.0;"/><text fill="#000000" font-family="sans-serif" font-size="11" lengthAdjust="spacingAndGlyphs" textLength="96" x="58" y="907.7549">undoable(): boolean</text><polygon fill="#4177AF" points="49,914.5898,45,920.5898,53,920.5898" style="stroke: #1963A0; stroke-width: 1.0;"/><text fill="#000000" font-family="sans-serif" font-size="11" lengthAdjust="spacingAndGlyphs" textLength="58" x="58" y="921.5908">undo(): void</text><!--class mastermind.controllers.ProposalController--><rect fill="#FEFECE" filter="url(#f14ams1v9qjrf8)" height="144.8516" id="mastermind.controllers.ProposalController" style="stroke: #A80036; stroke-width: 1.5;" width="166" x="217" y="811"/><ellipse cx="245.5" cy="827" fill="#ADD1B2" rx="11" ry="11" style="stroke: #A80036; stroke-width: 1.0;"/><path d="M248.2656,822.875 Q248.4219,822.6563 248.6094,822.5469 Q248.7969,822.4375 249.0156,822.4375 Q249.3906,822.4375 249.625,822.6953 Q249.8594,822.9531 249.8594,823.5625 L249.8594,825.0156 Q249.8594,825.625 249.625,825.8906 Q249.3906,826.1563 249.0156,826.1563 Q248.6719,826.1563 248.4688,825.9531 Q248.2656,825.7656 248.1563,825.25 Q248.1094,824.8906 247.9219,824.7031 Q247.5938,824.3281 246.9844,824.1094 Q246.375,823.8906 245.75,823.8906 Q244.9844,823.8906 244.3516,824.2188 Q243.7188,824.5469 243.2266,825.2969 Q242.7344,826.0469 242.7344,827.0781 L242.7344,828.1719 Q242.7344,829.4063 243.625,830.2266 Q244.5156,831.0469 246.1094,831.0469 Q247.0469,831.0469 247.7031,830.7969 Q248.0938,830.6406 248.5156,830.2031 Q248.7813,829.9375 248.9297,829.8594 Q249.0781,829.7813 249.2813,829.7813 Q249.6094,829.7813 249.8672,830.0391 Q250.125,830.2969 250.125,830.6406 Q250.125,830.9844 249.7813,831.3906 Q249.2813,831.9688 248.4844,832.2969 Q247.4063,832.75 246.1094,832.75 Q244.5938,832.75 243.3906,832.125 Q242.4063,831.625 241.7188,830.5547 Q241.0313,829.4844 241.0313,828.2031 L241.0313,827.0469 Q241.0313,825.7188 241.6484,824.5703 Q242.2656,823.4219 243.3594,822.8047 Q244.4531,822.1875 245.6875,822.1875 Q246.4219,822.1875 247.0703,822.3516 Q247.7188,822.5156 248.2656,822.875 Z "/><text fill="#000000" font-family="sans-serif" font-size="12" lengthAdjust="spacingAndGlyphs" textLength="104" x="262.5" y="831.9102">ProposalController</text><line style="stroke: #A80036; stroke-width: 1.5;" x1="218" x2="382" y1="843" y2="843"/><ellipse cx="228" cy="855.418" fill="none" rx="3" ry="3" style="stroke: #038048; stroke-width: 1.0;"/><text fill="#000000" font-family="sans-serif" font-size="11" lengthAdjust="spacingAndGlyphs" text-decoration="underline" textLength="73" x="237" y="858.4189">NO_ERROR: int</text><line style="stroke: #A80036; stroke-width: 1.5;" x1="218" x2="382" y1="864.8359" y2="864.8359"/><ellipse cx="228" cy="877.2539" fill="#84BE84" rx="3" ry="3" style="stroke: #038048; stroke-width: 1.0;"/><text fill="#000000" font-family="sans-serif" font-size="11" lengthAdjust="spacingAndGlyphs" textLength="135" x="237" y="880.2549">ProposalController(Session)</text><ellipse cx="228" cy="891.0898" fill="#84BE84" rx="3" ry="3" style="stroke: #038048; stroke-width: 1.0;"/><text fill="#000000" font-family="sans-serif" font-size="11" lengthAdjust="spacingAndGlyphs" textLength="140" x="237" y="894.0908">proposeCombination(int[]): int</text><ellipse cx="228" cy="904.9258" fill="#84BE84" rx="3" ry="3" style="stroke: #038048; stroke-width: 1.0;"/><text fill="#000000" font-family="sans-serif" font-size="11" lengthAdjust="spacingAndGlyphs" textLength="101" x="237" y="907.9268">getAllCodes(): int[][][]</text><ellipse cx="228" cy="918.7617" fill="#84BE84" rx="3" ry="3" style="stroke: #038048; stroke-width: 1.0;"/><text fill="#000000" font-family="sans-serif" font-size="11" lengthAdjust="spacingAndGlyphs" textLength="94" x="237" y="921.7627">isLooser(): boolean</text><ellipse cx="228" cy="932.5977" fill="#84BE84" rx="3" ry="3" style="stroke: #038048; stroke-width: 1.0;"/><text fill="#000000" font-family="sans-serif" font-size="11" lengthAdjust="spacingAndGlyphs" textLength="62" x="237" y="935.5986">getTurn(): int</text><ellipse cx="228" cy="946.4336" fill="#84BE84" rx="3" ry="3" style="stroke: #038048; stroke-width: 1.0;"/><text fill="#000000" font-family="sans-serif" font-size="11" lengthAdjust="spacingAndGlyphs" textLength="94" x="237" y="949.4346">isWinner(): boolean</text><!--class mastermind.models.Session--><rect fill="#FEFECE" filter="url(#f14ams1v9qjrf8)" height="48" id="mastermind.models.Session" style="stroke: #A80036; stroke-width: 1.5;" width="78" x="835" y="859.5"/><ellipse cx="850" cy="875.5" fill="#ADD1B2" rx="11" ry="11" style="stroke: #A80036; stroke-width: 1.0;"/><path d="M852.7656,871.375 Q852.9219,871.1563 853.1094,871.0469 Q853.2969,870.9375 853.5156,870.9375 Q853.8906,870.9375 854.125,871.1953 Q854.3594,871.4531 854.3594,872.0625 L854.3594,873.5156 Q854.3594,874.125 854.125,874.3906 Q853.8906,874.6563 853.5156,874.6563 Q853.1719,874.6563 852.9688,874.4531 Q852.7656,874.2656 852.6563,873.75 Q852.6094,873.3906 852.4219,873.2031 Q852.0938,872.8281 851.4844,872.6094 Q850.875,872.3906 850.25,872.3906 Q849.4844,872.3906 848.8516,872.7188 Q848.2188,873.0469 847.7266,873.7969 Q847.2344,874.5469 847.2344,875.5781 L847.2344,876.6719 Q847.2344,877.9063 848.125,878.7266 Q849.0156,879.5469 850.6094,879.5469 Q851.5469,879.5469 852.2031,879.2969 Q852.5938,879.1406 853.0156,878.7031 Q853.2813,878.4375 853.4297,878.3594 Q853.5781,878.2813 853.7813,878.2813 Q854.1094,878.2813 854.3672,878.5391 Q854.625,878.7969 854.625,879.1406 Q854.625,879.4844 854.2813,879.8906 Q853.7813,880.4688 852.9844,880.7969 Q851.9063,881.25 850.6094,881.25 Q849.0938,881.25 847.8906,880.625 Q846.9063,880.125 846.2188,879.0547 Q845.5313,877.9844 845.5313,876.7031 L845.5313,875.5469 Q845.5313,874.2188 846.1484,873.0703 Q846.7656,871.9219 847.8594,871.3047 Q848.9531,870.6875 850.1875,870.6875 Q850.9219,870.6875 851.5703,870.8516 Q852.2188,871.0156 852.7656,871.375 Z "/><text fill="#000000" font-family="sans-serif" font-size="12" lengthAdjust="spacingAndGlyphs" textLength="46" x="864" y="880.4102">Session</text><line style="stroke: #A80036; stroke-width: 1.5;" x1="836" x2="912" y1="891.5" y2="891.5"/><line style="stroke: #A80036; stroke-width: 1.5;" x1="836" x2="912" y1="899.5" y2="899.5"/><!--class mastermind.models.StateValue--><rect fill="#FEFECE" filter="url(#f14ams1v9qjrf8)" height="48" id="mastermind.models.StateValue" style="stroke: #A80036; stroke-width: 1.5;" width="91" x="948.5" y="859.5"/><ellipse cx="963.5" cy="875.5" fill="#ADD1B2" rx="11" ry="11" style="stroke: #A80036; stroke-width: 1.0;"/><path d="M966.2656,871.375 Q966.4219,871.1563 966.6094,871.0469 Q966.7969,870.9375 967.0156,870.9375 Q967.3906,870.9375 967.625,871.1953 Q967.8594,871.4531 967.8594,872.0625 L967.8594,873.5156 Q967.8594,874.125 967.625,874.3906 Q967.3906,874.6563 967.0156,874.6563 Q966.6719,874.6563 966.4688,874.4531 Q966.2656,874.2656 966.1563,873.75 Q966.1094,873.3906 965.9219,873.2031 Q965.5938,872.8281 964.9844,872.6094 Q964.375,872.3906 963.75,872.3906 Q962.9844,872.3906 962.3516,872.7188 Q961.7188,873.0469 961.2266,873.7969 Q960.7344,874.5469 960.7344,875.5781 L960.7344,876.6719 Q960.7344,877.9063 961.625,878.7266 Q962.5156,879.5469 964.1094,879.5469 Q965.0469,879.5469 965.7031,879.2969 Q966.0938,879.1406 966.5156,878.7031 Q966.7813,878.4375 966.9297,878.3594 Q967.0781,878.2813 967.2813,878.2813 Q967.6094,878.2813 967.8672,878.5391 Q968.125,878.7969 968.125,879.1406 Q968.125,879.4844 967.7813,879.8906 Q967.2813,880.4688 966.4844,880.7969 Q965.4063,881.25 964.1094,881.25 Q962.5938,881.25 961.3906,880.625 Q960.4063,880.125 959.7188,879.0547 Q959.0313,877.9844 959.0313,876.7031 L959.0313,875.5469 Q959.0313,874.2188 959.6484,873.0703 Q960.2656,871.9219 961.3594,871.3047 Q962.4531,870.6875 963.6875,870.6875 Q964.4219,870.6875 965.0703,870.8516 Q965.7188,871.0156 966.2656,871.375 Z "/><text fill="#000000" font-family="sans-serif" font-size="12" lengthAdjust="spacingAndGlyphs" textLength="59" x="977.5" y="880.4102">StateValue</text><line style="stroke: #A80036; stroke-width: 1.5;" x1="949.5" x2="1038.5" y1="891.5" y2="891.5"/><line style="stroke: #A80036; stroke-width: 1.5;" x1="949.5" x2="1038.5" y1="899.5" y2="899.5"/><!--class java.util.Map--><rect fill="#FEFECE" filter="url(#f14ams1v9qjrf8)" height="48" id="java.util.Map" style="stroke: #A80036; stroke-width: 1.5;" width="55" x="1027.5" y="237"/><ellipse cx="1042.5" cy="253" fill="#ADD1B2" rx="11" ry="11" style="stroke: #A80036; stroke-width: 1.0;"/><path d="M1045.2656,248.875 Q1045.4219,248.6563 1045.6094,248.5469 Q1045.7969,248.4375 1046.0156,248.4375 Q1046.3906,248.4375 1046.625,248.6953 Q1046.8594,248.9531 1046.8594,249.5625 L1046.8594,251.0156 Q1046.8594,251.625 1046.625,251.8906 Q1046.3906,252.1563 1046.0156,252.1563 Q1045.6719,252.1563 1045.4688,251.9531 Q1045.2656,251.7656 1045.1563,251.25 Q1045.1094,250.8906 1044.9219,250.7031 Q1044.5938,250.3281 1043.9844,250.1094 Q1043.375,249.8906 1042.75,249.8906 Q1041.9844,249.8906 1041.3516,250.2188 Q1040.7188,250.5469 1040.2266,251.2969 Q1039.7344,252.0469 1039.7344,253.0781 L1039.7344,254.1719 Q1039.7344,255.4063 1040.625,256.2266 Q1041.5156,257.0469 1043.1094,257.0469 Q1044.0469,257.0469 1044.7031,256.7969 Q1045.0938,256.6406 1045.5156,256.2031 Q1045.7813,255.9375 1045.9297,255.8594 Q1046.0781,255.7813 1046.2813,255.7813 Q1046.6094,255.7813 1046.8672,256.0391 Q1047.125,256.2969 1047.125,256.6406 Q1047.125,256.9844 1046.7813,257.3906 Q1046.2813,257.9688 1045.4844,258.2969 Q1044.4063,258.75 1043.1094,258.75 Q1041.5938,258.75 1040.3906,258.125 Q1039.4063,257.625 1038.7188,256.5547 Q1038.0313,255.4844 1038.0313,254.2031 L1038.0313,253.0469 Q1038.0313,251.7188 1038.6484,250.5703 Q1039.2656,249.4219 1040.3594,248.8047 Q1041.4531,248.1875 1042.6875,248.1875 Q1043.4219,248.1875 1044.0703,248.3516 Q1044.7188,248.5156 1045.2656,248.875 Z "/><text fill="#000000" font-family="sans-serif" font-size="12" lengthAdjust="spacingAndGlyphs" textLength="23" x="1056.5" y="257.9102">Map</text><line style="stroke: #A80036; stroke-width: 1.5;" x1="1028.5" x2="1081.5" y1="269" y2="269"/><line style="stroke: #A80036; stroke-width: 1.5;" x1="1028.5" x2="1081.5" y1="277" y2="277"/><!--link mastermind.controllers.Controller to mastermind.controllers.AcceptorController--><path d="M191.098,147.407 C241.98,170.15 308.289,199.788 360.103,222.948 " fill="none" id="mastermind.controllers.Controller-mastermind.controllers.AcceptorController" style="stroke: #A80036; stroke-width: 1.0;"/><polygon fill="none" points="188.163,153.763,172.761,139.211,193.876,140.982,188.163,153.763" style="stroke: #A80036; stroke-width: 1.0;"/><!--link mastermind.controllers.AcceptorController to mastermind.controllers.ControllersVisitor--><path d="M458.764,299.046 C465.905,315.827 474.447,335.9 482.112,353.912 " fill="none" id="mastermind.controllers.AcceptorController-mastermind.controllers.ControllersVisitor" style="stroke: #A80036; stroke-width: 1.0; stroke-dasharray: 7.0,7.0;"/><polygon fill="#A80036" points="484.248,358.934,484.4063,349.0864,482.291,354.3329,477.0445,352.2176,484.248,358.934" style="stroke: #A80036; stroke-width: 1.0;"/><!--link mastermind.controllers.Controller to mastermind.models.Session--><path d="M172.72,121.088 C284.757,137.55 518.102,173.63 550,193 C702.131,285.383 721.209,347.492 796,509 C851.774,629.441 868.024,790.152 872.452,854.314 " fill="none" id="mastermind.controllers.Controller-mastermind.models.Session" style="stroke: #A80036; stroke-width: 1.0;"/><polygon fill="#A80036" points="872.798,859.493,876.1873,850.2457,872.4637,854.5042,868.2052,850.7806,872.798,859.493" style="stroke: #A80036; stroke-width: 1.0;"/><!--link mastermind.controllers.ControllersVisitor to mastermind.controllers.ResumeController--><path d="M540.143,449.255 C571.943,487.145 617.649,541.604 650.407,580.633 " fill="none" id="mastermind.controllers.ControllersVisitor-mastermind.controllers.ResumeController" style="stroke: #A80036; stroke-width: 1.0; stroke-dasharray: 7.0,7.0;"/><polygon fill="#A80036" points="653.934,584.837,651.2106,575.3722,650.719,581.0076,645.0836,580.5161,653.934,584.837" style="stroke: #A80036; stroke-width: 1.0;"/><!--link mastermind.controllers.ControllersVisitor to mastermind.controllers.StartController--><path d="M498.456,449.255 C494.597,486.838 489.064,540.723 485.064,579.682 " fill="none" id="mastermind.controllers.ControllersVisitor-mastermind.controllers.StartController" style="stroke: #A80036; stroke-width: 1.0; stroke-dasharray: 7.0,7.0;"/><polygon fill="#A80036" points="484.535,584.837,489.4348,576.2934,485.0465,579.8632,481.4767,575.475,484.535,584.837" style="stroke: #A80036; stroke-width: 1.0;"/><!--link mastermind.controllers.ControllersVisitor to mastermind.controllers.PlayController--><path d="M445.762,449.078 C422.994,467.141 396.833,488.572 374,509 C369.694,512.853 365.34,516.817 360.971,520.851 " fill="none" id="mastermind.controllers.ControllersVisitor-mastermind.controllers.PlayController" style="stroke: #A80036; stroke-width: 1.0; stroke-dasharray: 7.0,7.0;"/><polygon fill="#A80036" points="357.299,524.256,366.6184,521.0704,360.9656,520.8566,361.1794,515.2038,357.299,524.256" style="stroke: #A80036; stroke-width: 1.0;"/><!--link mastermind.controllers.Logic to mastermind.models.Session--><path d="M790.792,141.469 C817.049,153.289 841.068,169.843 858,193 C1007.93,398.059 920.349,736.775 885.949,846.792 " fill="none" id="mastermind.controllers.Logic-mastermind.models.Session" style="stroke: #A80036; stroke-width: 1.0;"/><polygon fill="#A80036" points="881.943,859.338,888.491,851.9811,883.4638,854.5749,880.8701,849.5478,881.943,859.338" style="stroke: #A80036; stroke-width: 1.0;"/><line style="stroke: #A80036; stroke-width: 1.0;" x1="883.4638" x2="885.8965" y1="854.5749" y2="846.954"/><polygon fill="#A80036" points="778.588,136.365,782.58,142.3703,789.6588,140.9951,785.6668,134.9898,778.588,136.365" style="stroke: #A80036; stroke-width: 1.0;"/><!--link mastermind.controllers.Logic to mastermind.models.StateValue--><path d="M791.613,128.328 C835.866,140.116 880.112,159.94 912,193 C1090.35,377.907 1028.58,732.78 1002.884,846.496 " fill="none" id="mastermind.controllers.Logic-mastermind.models.StateValue" style="stroke: #A80036; stroke-width: 1.0;"/><polygon fill="#A80036" points="999.876,859.437,1005.8099,851.5764,1001.0081,854.5668,998.0176,849.7651,999.876,859.437" style="stroke: #A80036; stroke-width: 1.0;"/><line style="stroke: #A80036; stroke-width: 1.0;" x1="1001.0081" x2="1002.819" y1="854.5668" y2="846.774"/><polygon fill="#A80036" points="778.831,125.14,783.6848,130.4729,790.4744,128.0436,785.6206,122.7107,778.831,125.14" style="stroke: #A80036; stroke-width: 1.0;"/><!--link mastermind.controllers.Logic to java.util.Map--><path d="M791.685,124.135 C860.169,134.85 937.738,155.068 1000,193 C1013.48,201.213 1025.15,213.943 1034.22,226.111 " fill="none" id="mastermind.controllers.Logic-java.util.Map" style="stroke: #A80036; stroke-width: 1.0;"/><polygon fill="#A80036" points="1041.81,236.981,1039.938,227.3117,1038.9479,232.8812,1033.3783,231.8911,1041.81,236.981" style="stroke: #A80036; stroke-width: 1.0;"/><line style="stroke: #A80036; stroke-width: 1.0;" x1="1038.9479" x2="1034.37" y1="232.8812" y2="226.32"/><polygon fill="#A80036" points="778.564,122.18,783.909,127.0206,790.433,123.9485,785.088,119.1079,778.564,122.18" style="stroke: #A80036; stroke-width: 1.0;"/><!--link mastermind.controllers.Logic to mastermind.controllers.AcceptorController--><path d="M551.662,171.449 C534.06,185.794 515.501,200.918 498.8,214.527 " fill="none" id="mastermind.controllers.Logic-mastermind.controllers.AcceptorController" style="stroke: #A80036; stroke-width: 1.0;"/><polygon fill="#A80036" points="488.667,222.785,498.1705,220.1998,492.5428,219.6262,493.1165,213.9985,488.667,222.785" style="stroke: #A80036; stroke-width: 1.0;"/><line style="stroke: #A80036; stroke-width: 1.0;" x1="492.5428" x2="498.7445" y1="219.6262" y2="214.573"/><polygon fill="#A80036" points="561.963,163.055,554.785,163.7449,552.661,170.6361,559.839,169.9462,561.963,163.055" style="stroke: #A80036; stroke-width: 1.0;"/><!--link mastermind.controllers.AcceptorController to mastermind.controllers.PlayController--><path d="M409.932,316.664 C401.9,330.375 393.477,345.133 386,359 C359.9,407.409 332.78,461.651 309.89,508.747 " fill="none" id="mastermind.controllers.AcceptorController-mastermind.controllers.PlayController" style="stroke: #A80036; stroke-width: 1.0;"/><polygon fill="none" points="403.938,313.049,420.152,299.407,415.984,320.182,403.938,313.049" style="stroke: #A80036; stroke-width: 1.0;"/><!--link mastermind.controllers.PlayController to mastermind.controllers.RedoController--><path d="M366.372,751.309 C391.907,778.405 417.759,805.839 439.175,828.566 " fill="none" id="mastermind.controllers.PlayController-mastermind.controllers.RedoController" style="stroke: #A80036; stroke-width: 1.0;"/><polygon fill="#A80036" points="448.376,838.329,445.1149,829.0357,444.947,834.6901,439.2926,834.5222,448.376,838.329" style="stroke: #A80036; stroke-width: 1.0;"/><line style="stroke: #A80036; stroke-width: 1.0;" x1="444.947" x2="439.4605" y1="834.6901" y2="828.8685"/><polygon fill="#A80036" points="357.297,741.678,358.5007,748.7879,365.5267,750.4114,364.323,743.3015,357.297,741.678" style="stroke: #A80036; stroke-width: 1.0;"/><!--link mastermind.controllers.PlayController to mastermind.controllers.UndoController--><path d="M178.194,762.564 C165.286,785.266 152.522,807.716 141.589,826.943 " fill="none" id="mastermind.controllers.PlayController-mastermind.controllers.UndoController" style="stroke: #A80036; stroke-width: 1.0;"/><polygon fill="#A80036" points="135.034,838.472,142.9597,832.6253,137.5053,834.1255,136.0052,828.6711,135.034,838.472" style="stroke: #A80036; stroke-width: 1.0;"/><line style="stroke: #A80036; stroke-width: 1.0;" x1="137.5053" x2="141.4595" y1="834.1255" y2="827.171"/><polygon fill="#A80036" points="184.641,751.225,178.1982,754.4638,178.7098,761.6567,185.1526,758.4179,184.641,751.225" style="stroke: #A80036; stroke-width: 1.0;"/><!--link mastermind.controllers.PlayController to mastermind.controllers.ProposalController--><path d="M277.873,764.098 C280.003,775.497 282.118,786.815 284.148,797.676 " fill="none" id="mastermind.controllers.PlayController-mastermind.controllers.ProposalController" style="stroke: #A80036; stroke-width: 1.0;"/><polygon fill="#A80036" points="286.577,810.671,288.8553,801.0893,285.6583,805.7561,280.9915,802.5592,286.577,810.671" style="stroke: #A80036; stroke-width: 1.0;"/><line style="stroke: #A80036; stroke-width: 1.0;" x1="285.6583" x2="284.1885" y1="805.7561" y2="797.893"/><polygon fill="#A80036" points="275.468,751.225,272.6385,757.8578,277.6729,763.0207,280.5023,756.3879,275.468,751.225" style="stroke: #A80036; stroke-width: 1.0;"/><!--link mastermind.controllers.PlayController to mastermind.models.Session--><path d="M357.245,741.474 C362.712,744.965 368.304,748.168 374,751 C543.237,835.145 623.887,730.739 795,811 C816.924,821.283 837.083,839.746 851.55,855.334 " fill="none" id="mastermind.controllers.PlayController-mastermind.models.Session" style="stroke: #A80036; stroke-width: 1.0; stroke-dasharray: 7.0,7.0;"/><polygon fill="#A80036" points="855.103,859.228,851.9927,849.8832,851.7333,855.5341,846.0824,855.2747,855.103,859.228" style="stroke: #A80036; stroke-width: 1.0;"/><!--link mastermind.controllers.Controller to mastermind.controllers.ProposalController--><path d="M104.2657,176.452 C86.1485,318.179 50.4359,653.817 104,751 C128.105,794.735 157.495,783.23 199,811 C204.803,814.883 210.761,818.932 216.74,823.043 " fill="none" id="mastermind.controllers.Controller-mastermind.controllers.ProposalController" style="stroke: #A80036; stroke-width: 1.0;"/><polygon fill="none" points="97.3258,175.537,106.85,156.609,111.208,177.345,97.3258,175.537" style="stroke: #A80036; stroke-width: 1.0;"/><!--link mastermind.controllers.Controller to mastermind.controllers.RedoController--><path d="M110.425,176.71 C104.8939,329.935 95.1105,707.494 131,751 C208.949,845.491 289.457,758.227 400,811 C414.947,818.136 429.663,828.16 442.726,838.45 " fill="none" id="mastermind.controllers.Controller-mastermind.controllers.RedoController" style="stroke: #A80036; stroke-width: 1.0;"/><polygon fill="none" points="103.4333,176.362,111.172,156.636,117.424,176.882,103.4333,176.362" style="stroke: #A80036; stroke-width: 1.0;"/><!--link mastermind.controllers.AcceptorController to mastermind.controllers.ResumeController--><path d="M547.898,309.586 C569.097,323.087 589.58,339.529 605,359 C658.297,426.297 678.894,527.301 686.606,584.791 " fill="none" id="mastermind.controllers.AcceptorController-mastermind.controllers.ResumeController" style="stroke: #A80036; stroke-width: 1.0;"/><polygon fill="none" points="544.015,315.42,530.425,299.162,551.187,303.397,544.015,315.42" style="stroke: #A80036; stroke-width: 1.0;"/><!--link mastermind.controllers.ResumeController to mastermind.models.Session--><path d="M723.086,675.096 C760.92,727.093 822.633,811.905 854.135,855.199 " fill="none" id="mastermind.controllers.ResumeController-mastermind.models.Session" style="stroke: #A80036; stroke-width: 1.0; stroke-dasharray: 7.0,7.0;"/><polygon fill="#A80036" points="857.087,859.257,855.0266,849.6261,854.1454,855.2139,848.5576,854.3327,857.087,859.257" style="stroke: #A80036; stroke-width: 1.0;"/><!--link mastermind.controllers.AcceptorController to mastermind.controllers.StartController--><path d="M413.698,317.463 C408.034,330.72 402.948,345.076 400,359 C391.715,398.133 391.696,409.871 400,449 C410.365,497.841 434.928,549.519 454.123,584.912 " fill="none" id="mastermind.controllers.AcceptorController-mastermind.controllers.StartController" style="stroke: #A80036; stroke-width: 1.0;"/><polygon fill="none" points="407.485,314.221,422.229,299.002,420.193,320.094,407.485,314.221" style="stroke: #A80036; stroke-width: 1.0;"/><!--link mastermind.controllers.StartController to mastermind.models.Session--><path d="M508.749,675 C527.597,700.612 554.374,731.579 585,751 C666.976,802.983 710.14,763.872 795,811 C815.723,822.509 835.493,840.41 850.073,855.422 " fill="none" id="mastermind.controllers.StartController-mastermind.models.Session" style="stroke: #A80036; stroke-width: 1.0; stroke-dasharray: 7.0,7.0;"/><polygon fill="#A80036" points="853.665,859.17,850.3252,849.9047,850.2053,855.5603,844.5497,855.4403,853.665,859.17" style="stroke: #A80036; stroke-width: 1.0;"/><!--link mastermind.controllers.Controller to mastermind.controllers.UndoController--><path d="M73.4244,174.714 C70.8413,180.729 68.6268,186.874 67,193 C3.3464,432.692 27.9744,506.09 67,751 C71.7625,780.887 82.2536,813.21 91.6805,838.331 " fill="none" id="mastermind.controllers.Controller-mastermind.controllers.UndoController" style="stroke: #A80036; stroke-width: 1.0;"/><polygon fill="none" points="67.2061,171.497,82.3556,156.682,79.7517,177.711,67.2061,171.497" style="stroke: #A80036; stroke-width: 1.0;"/><!--
@startuml

class  mastermind.controllers.AcceptorController{
~ AcceptorController(Session)
+ {abstract} accept(ControllersVisitor): void
}
mastermind.controllers.Controller <|-down- mastermind.controllers.AcceptorController
mastermind.controllers.AcceptorController ..> mastermind.controllers.ControllersVisitor

class  mastermind.controllers.Controller{
# session: Session
~ Controller(Session)
+ getWidth(): int
}
mastermind.controllers.Controller -down-> mastermind.models.Session

class  mastermind.controllers.ControllersVisitor{
+ {abstract} visit(StartController): void
+ {abstract} visit(PlayController): void
+ {abstract} visit(ResumeController): void
}
mastermind.controllers.ControllersVisitor ..> mastermind.controllers.ResumeController
mastermind.controllers.ControllersVisitor ..> mastermind.controllers.StartController
mastermind.controllers.ControllersVisitor ..> mastermind.controllers.PlayController

class  mastermind.controllers.Logic{
- session: Session
- acceptorControllers: Map<StateValue, AcceptorController>
+ Logic()
+ getController(): AcceptorController
}
mastermind.controllers.Logic *-down-> mastermind.models.Session
mastermind.controllers.Logic *-down-> mastermind.models.StateValue
mastermind.controllers.Logic *-down-> java.util.Map
mastermind.controllers.Logic *- -> mastermind.controllers.AcceptorController

class  mastermind.controllers.PlayController{
- proposalController: ProposalController
- undoController: UndoController
- redoController: RedoController
~ PlayController(Session)
+ accept(ControllersVisitor): void
+ proposeCombination(int[]): int
+ getAllCodes(): int[][][]
+ isLooser(): boolean
+ getTurn(): int
+ undoable(): boolean
+ undo(): void
+ redoable(): boolean
+ redo(): void
+ isWinner(): boolean
}
mastermind.controllers.AcceptorController <|-down- mastermind.controllers.PlayController
mastermind.controllers.PlayController *-down-> mastermind.controllers.RedoController
mastermind.controllers.PlayController *-down-> mastermind.controllers.UndoController
mastermind.controllers.PlayController *-down-> mastermind.controllers.ProposalController
mastermind.controllers.PlayController ..> mastermind.models.Session

class  mastermind.controllers.ProposalController{
+ {static} NO_ERROR: int
+ ProposalController(Session)
+ proposeCombination(int[]): int
+ getAllCodes(): int[][][]
+ isLooser(): boolean
+ getTurn(): int
+ isWinner(): boolean
}
mastermind.controllers.Controller <|-down- mastermind.controllers.ProposalController

class  mastermind.controllers.RedoController{
~ RedoController(Session)
~ redoable(): boolean
~ redo(): void
}
mastermind.controllers.Controller <|-down- mastermind.controllers.RedoController

class  mastermind.controllers.ResumeController{
+ ResumeController(Session)
+ accept(ControllersVisitor): void
+ resume(boolean): void
}
mastermind.controllers.AcceptorController <|-down- mastermind.controllers.ResumeController
mastermind.controllers.ResumeController ..> mastermind.models.Session

class  mastermind.controllers.StartController{
+ StartController(Session)
+ accept(ControllersVisitor): void
+ start(): void
}
mastermind.controllers.AcceptorController <|-down- mastermind.controllers.StartController
mastermind.controllers.StartController ..> mastermind.models.Session

class  mastermind.controllers.UndoController{
~ UndoController(Session)
~ undoable(): boolean
~ undo(): void
}
mastermind.controllers.Controller <|-down- mastermind.controllers.UndoController

@enduml

PlantUML version 1.2019.05(Sat Apr 20 18:45:36 CEST 2019)
(GPL source distribution)
Java Runtime: OpenJDK Runtime Environment
JVM: OpenJDK 64-Bit Server VM
Java Version: 1.8.0_222-b10
Operating System: Windows 10
OS Version: 10.0
Default Encoding: windows-1252
Language: es
Country: ES
--></g></svg>